<?xml version="1.0" encoding="UTF-8"?>
<!DOCTYPE svg PUBLIC "-//W3C//DTD SVG 1.1//EN" "http://www.w3.org/Graphics/SVG/1.1/DTD/svg11.dtd">
<!-- Creator: CorelDRAW -->
<svg xmlns="http://www.w3.org/2000/svg" xml:space="preserve" width="210mm" height="250mm" version="1.1" style="shape-rendering:geometricPrecision; text-rendering:geometricPrecision; image-rendering:optimizeQuality; fill-rule:evenodd; clip-rule:evenodd"
viewBox="0 0 21000 25000"
 xmlns:xlink="http://www.w3.org/1999/xlink"
 xmlns:xodm="http://www.corel.com/coreldraw/odm/2003">
 <defs>
  <style type="text/css">
   <![CDATA[
    .str0 {stroke:#BD5A5A;stroke-width:26.5;stroke-miterlimit:22.9256}
    .str3 {stroke:#BD5A5A;stroke-width:18.9;stroke-miterlimit:22.9256}
    .str4 {stroke:#BD5A5A;stroke-width:9.5;stroke-miterlimit:22.9256}
    .str2 {stroke:#B45A5A;stroke-width:33.6;stroke-linecap:round;stroke-miterlimit:22.9256}
    .str1 {stroke:white;stroke-width:73.88;stroke-linecap:round;stroke-miterlimit:22.9256}
    .str5 {stroke:#BD5A5A;stroke-width:73.9;stroke-linecap:round;stroke-miterlimit:22.9256}
    .fil1 {fill:none}
    .fil3 {fill:none;fill-rule:nonzero}
    .fil24 {fill:#B45A5A;fill-rule:nonzero}
    .fil2 {fill:#BD5A5A;fill-rule:nonzero}
    .fil11 {fill:#EBEBEA;fill-rule:nonzero}
    .fil18 {fill:white;fill-rule:nonzero}
    .fil0 {fill:white;fill-rule:nonzero;fill-opacity:0.000000}
    .fil21 {fill:#EBEBEA;fill-rule:nonzero;fill-opacity:0.101961}
    .fil28 {fill:white;fill-rule:nonzero;fill-opacity:0.301961}
    .fil14 {fill:url(#id2)}
    .fil12 {fill:url(#id3)}
    .fil13 {fill:url(#id4)}
    .fil31 {fill:url(#id5);fill-rule:nonzero}
    .fil9 {fill:url(#id6);fill-rule:nonzero}
    .fil23 {fill:url(#id7);fill-rule:nonzero}
    .fil22 {fill:url(#id8);fill-rule:nonzero}
    .fil29 {fill:url(#id9);fill-rule:nonzero}
    .fil30 {fill:url(#id10);fill-rule:nonzero}
    .fil32 {fill:url(#id11);fill-rule:nonzero}
    .fil25 {fill:url(#id12);fill-rule:nonzero}
    .fil10 {fill:url(#id13);fill-rule:nonzero}
    .fil17 {fill:url(#id14);fill-rule:nonzero}
    .fil5 {fill:url(#id15);fill-rule:nonzero}
    .fil26 {fill:url(#id16);fill-rule:nonzero}
    .fil4 {fill:url(#id17);fill-rule:nonzero}
    .fil20 {fill:url(#id18);fill-rule:nonzero}
    .fil19 {fill:url(#id19);fill-rule:nonzero}
    .fil8 {fill:url(#id20);fill-rule:nonzero}
    .fil7 {fill:url(#id21);fill-rule:nonzero}
    .fil6 {fill:url(#id22);fill-rule:nonzero}
    .fil15 {fill:url(#id23);fill-rule:nonzero}
    .fil16 {fill:url(#id24);fill-rule:nonzero}
    .fil27 {fill:url(#id25);fill-rule:nonzero}
   ]]>
  </style>
   <clipPath id="id0">
    <path d="M16652.15 7232.25l-12541.25 -3596.14 0 13481.29 12541.25 3596.14 0 -13481.29z"/>
   </clipPath>
   <clipPath id="id1">
    <path d="M19881.53 4686.82l-19000 -5448.15 0 20424.15 19000 5448.16 0 -20424.16z"/>
   </clipPath>
  <linearGradient id="id2" gradientUnits="userSpaceOnUse" x1="11121.56" y1="11805.72" x2="11923" y2="12807.69">
   <stop offset="0" style="stop-opacity:1; stop-color:#BD5A5A"/>
   <stop offset="1" style="stop-opacity:1; stop-color:#9E4444"/>
  </linearGradient>
  <linearGradient id="id3" gradientUnits="userSpaceOnUse" x1="13447.09" y1="12262.61" x2="13325.89" y2="13253.87">
   <stop offset="0" style="stop-opacity:1; stop-color:#BD5A5A"/>
   <stop offset="1" style="stop-opacity:1; stop-color:#994242"/>
  </linearGradient>
  <linearGradient id="id4" gradientUnits="userSpaceOnUse" xlink:href="#id3" x1="9318.7" y1="11059.44" x2="9318.7" y2="12101.38">
  </linearGradient>
  <linearGradient id="id5" gradientUnits="userSpaceOnUse" x1="4869.2" y1="5763.8" x2="4588.93" y2="6162.37">
   <stop offset="0" style="stop-opacity:1; stop-color:#BD5A5A"/>
   <stop offset="1" style="stop-opacity:1; stop-color:#9E4141"/>
  </linearGradient>
  <linearGradient id="id6" gradientUnits="userSpaceOnUse" x1="3345.08" y1="12541.58" x2="3705.67" y2="12541.58">
   <stop offset="0" style="stop-opacity:1; stop-color:#D87777"/>
   <stop offset="1" style="stop-opacity:1; stop-color:#BD5A5A"/>
  </linearGradient>
  <linearGradient id="id7" gradientUnits="userSpaceOnUse" x1="9998.95" y1="6221.77" x2="8917.24" y2="9831.05">
   <stop offset="0" style="stop-opacity:1; stop-color:#575958"/>
   <stop offset="1" style="stop-opacity:1; stop-color:#1C1E1C"/>
  </linearGradient>
  <linearGradient id="id8" gradientUnits="userSpaceOnUse" xlink:href="#id7" x1="13887.96" y1="7303.51" x2="12804.73" y2="10951.97">
  </linearGradient>
  <linearGradient id="id9" gradientUnits="userSpaceOnUse" xlink:href="#id5" x1="4869.17" y1="5781.39" x2="4588.91" y2="6165.57">
  </linearGradient>
  <linearGradient id="id10" gradientUnits="userSpaceOnUse" xlink:href="#id5" x1="4869.17" y1="5799.1" x2="4588.91" y2="6183.28">
  </linearGradient>
  <linearGradient id="id11" gradientUnits="userSpaceOnUse" xlink:href="#id5" x1="4869.2" y1="5787.38" x2="4588.93" y2="6180.32">
  </linearGradient>
  <linearGradient id="id12" gradientUnits="userSpaceOnUse" xlink:href="#id7" x1="4747.97" y1="4551.83" x2="3785.95" y2="7698.63">
  </linearGradient>
  <linearGradient id="id13" gradientUnits="userSpaceOnUse" x1="15049.96" y1="18566.54" x2="16052.89" y2="15616.38">
   <stop offset="0" style="stop-opacity:1; stop-color:#8B3737"/>
   <stop offset="1" style="stop-opacity:1; stop-color:#E28888"/>
  </linearGradient>
  <linearGradient id="id14" gradientUnits="userSpaceOnUse" x1="8196.11" y1="5504.6" x2="7553.75" y2="3777.29">
   <stop offset="0" style="stop-opacity:1; stop-color:#BD5A5A"/>
   <stop offset="1" style="stop-opacity:1; stop-color:#DD8686"/>
  </linearGradient>
  <linearGradient id="id15" gradientUnits="userSpaceOnUse" x1="11162.47" y1="6796.87" x2="11923" y2="5915.12">
   <stop offset="0" style="stop-opacity:1; stop-color:#1B1B1B"/>
   <stop offset="0.329412" style="stop-opacity:1; stop-color:#121212"/>
   <stop offset="1" style="stop-opacity:1; stop-color:#020202"/>
  </linearGradient>
  <linearGradient id="id16" gradientUnits="userSpaceOnUse" x1="3604.36" y1="5266.67" x2="2779.12" y2="7904.64">
   <stop offset="0" style="stop-opacity:1; stop-color:#F68E69"/>
   <stop offset="1" style="stop-opacity:1; stop-color:#E52E5F"/>
  </linearGradient>
  <linearGradient id="id17" gradientUnits="userSpaceOnUse" x1="9878.64" y1="18799.32" x2="15927.86" y2="7845.97">
   <stop offset="0" style="stop-opacity:1; stop-color:#161716"/>
   <stop offset="1" style="stop-opacity:1; stop-color:#8B8B8B"/>
  </linearGradient>
  <linearGradient id="id18" gradientUnits="userSpaceOnUse" xlink:href="#id7" x1="9518.69" y1="13016.41" x2="8515.78" y2="16214.34">
  </linearGradient>
  <linearGradient id="id19" gradientUnits="userSpaceOnUse" xlink:href="#id15" x1="8362.89" y1="4834.59" x2="8676.4" y2="4834.59">
  </linearGradient>
  <linearGradient id="id20" gradientUnits="userSpaceOnUse" x1="2904.22" y1="13491.62" x2="4307.11" y2="13491.62">
   <stop offset="0" style="stop-opacity:1; stop-color:#D37575"/>
   <stop offset="1" style="stop-opacity:1; stop-color:#BD5A5A"/>
  </linearGradient>
  <linearGradient id="id21" gradientUnits="userSpaceOnUse" x1="2343.67" y1="13209.83" x2="3946.54" y2="13209.83">
   <stop offset="0" style="stop-opacity:1; stop-color:#BD5A5A"/>
   <stop offset="1" style="stop-opacity:1; stop-color:#923D3D"/>
  </linearGradient>
  <linearGradient id="id22" gradientUnits="userSpaceOnUse" xlink:href="#id7" x1="3385.99" y1="11136.65" x2="2343.65" y2="14489.07">
  </linearGradient>
  <linearGradient id="id23" gradientUnits="userSpaceOnUse" xlink:href="#id7" x1="6472.04" y1="12018.53" x2="5429.74" y2="15370.98">
  </linearGradient>
  <linearGradient id="id24" gradientUnits="userSpaceOnUse" x1="6163.45" y1="13839.36" x2="6532.33" y2="15004.94">
   <stop offset="0" style="stop-opacity:1; stop-color:#BD5A5A"/>
   <stop offset="1" style="stop-opacity:1; stop-color:#753232"/>
  </linearGradient>
  <linearGradient id="id25" gradientUnits="userSpaceOnUse" xlink:href="#id24" x1="2936.67" y1="5111.67" x2="3880.45" y2="7400.9">
  </linearGradient>
 </defs>
 <g id="Слой_x0020_1">
  <metadata id="CorelCorpID_0Corel-Layer"/>
  <g>
  </g>
  <g style="clip-path:url(#id0)">
   <g id="_2567858645168">
    <polygon class="fil0" points="4110.9,3636.11 16652.15,3636.11 16652.15,20713.54 4110.9,20713.54 "/>
   </g>
  </g>
  <polygon class="fil1" points="16652.15,7232.25 4110.9,3636.11 4110.9,17117.4 16652.15,20713.54 "/>
  <g>
  </g>
  <g style="clip-path:url(#id1)">
   <g id="_2532124687552">
    <path id="_1" class="fil1 str0" d="M4702.86 7947.96l0 743.88c0,63.66 30.02,133.32 83.53,193.65 53.48,60.37 126.04,106.48 201.67,128.16l5233.14 1500.56c75.64,21.68 148.2,17.19 201.66,-12.47 53.48,-29.66 83.54,-82.1 83.54,-145.74l0 -743.9"/>
    <path class="fil2" d="M4780.03 8005.69c0,15.87 -4.53,30.1 -13.07,40.84 -8.5,10.79 -20.61,17.59 -34.76,19.6 -14.1,2 -29.71,-0.89 -44.69,-8.34 -15,-7.41 -28.79,-19.03 -39.57,-33.39 -10.82,-14.35 -18.11,-30.79 -21.08,-47.21 -2.92,-16.44 -1.36,-32.12 4.56,-45.1 5.9,-12.96 15.85,-22.61 28.64,-27.7 12.74,-5.13 27.72,-5.5 43.01,-1 20.44,5.93 40.04,20.05 54.43,39.24 14.43,19.17 22.53,41.85 22.53,63.06z"/>
    <path class="fil3 str0" d="M17579.09 12553.78l0 743.85c0,63.64 -30.03,116.08 -83.54,145.74 -53.46,29.71 -126.02,34.19 -201.66,12.47l-5233.15 -1500.56c-75.62,-21.68 -148.18,-67.78 -201.66,-128.11 -53.46,-60.38 -83.53,-130.03 -83.53,-193.7l0 -743.83"/>
    <path class="fil2" d="M17501.93 12567.12c0,15.88 4.56,32.71 13.06,48.35 8.5,15.63 20.6,29.37 34.75,39.52 14.15,10.09 29.71,16.15 44.69,17.32 15,1.15 28.79,-2.57 39.58,-10.71 10.81,-8.17 18.15,-20.39 21.09,-35.15 2.92,-14.75 1.36,-31.34 -4.53,-47.71 -5.94,-16.31 -15.88,-31.7 -28.67,-44.13 -12.75,-12.42 -27.74,-21.36 -43.01,-25.65 -20.45,-5.77 -40.01,-2.89 -54.43,8.02 -14.44,10.91 -22.53,28.93 -22.53,50.14z"/>
    <path class="fil4" d="M15117.18 20427.72l-7196.9 -2063.71c-163.67,-46.94 -294.11,-297.75 -294.11,-559.42l0 -12667.03c0,-262.23 132.08,-437.24 294.11,-390.78l7196.9 2063.66c163.71,46.95 293.55,297.08 293.55,559.31l0 12667.02c2.2,262.87 -129.84,437.88 -293.55,390.95z"/>
    <polygon class="fil5" points="12662.62,6573.15 10334.4,5905.55 10334.4,6057.11 12662.62,6724.71 "/>
    <path class="fil6" d="M4424.31 12295.56l-2102.22 -602.83c-157.13,-45.06 -284.51,50.66 -284.51,213.76l0 2182.07c0,163.11 127.38,331.86 284.51,376.92l2102.22 602.79c157.13,45.1 284.53,-50.63 284.53,-213.72l0 -2182.09c0,-163.1 -127.4,-331.86 -284.53,-376.9z"/>
    <path class="fil3 str0" d="M2322.09 11712.77l2102.22 602.82c146.56,42.01 265.29,199.34 265.29,351.34l0 2182.07c0,152 -118.73,241.28 -265.29,199.22l-2102.22 -602.78c-146.56,-42.01 -265.27,-199.38 -265.27,-351.38l0 -2182.04c0,-152 118.71,-241.26 265.27,-199.25z"/>
    <polygon class="fil7" points="2381.41,13811.71 3082.81,12850.08 3972,14264.26 "/>
    <polygon class="fil8" points="2940.3,13971.88 3741.6,13262.51 4315.97,14361.31 "/>
    <path class="fil9" d="M3545.02 12785.54c101.38,29.06 183.55,-32.66 183.55,-137.88 0,-105.18 -82.17,-214.05 -183.55,-243.11 -101.33,-29.07 -183.5,32.66 -183.5,137.88 0,105.19 82.17,214.05 183.5,243.11z"/>
    <path class="fil10" d="M16516.01 15688.69l-2912.06 -834.99c-152.75,-43.81 -276.6,49.51 -276.6,208.43l0 2624.13c0,158.93 123.85,323.32 276.6,367.13l2912.06 835c152.81,43.81 276.63,-49.5 276.63,-208.48l0 -2624.09c0,-158.92 -123.82,-323.32 -276.63,-367.13z"/>
    <line class="fil3 str1" x1="15946.01" y1="16377.3" x2="13993.73" y2= "15817.48" />
    <line class="fil3 str1" x1="15946.01" y1="16751.21" x2="13993.73" y2= "16191.43" />
    <line class="fil3 str1" x1="15946.01" y1="17124.96" x2="13993.73" y2= "16565.18" />
    <line class="fil3 str1" x1="15946.01" y1="17499.03" x2="13993.73" y2= "16939.25" />
    <line class="fil3 str1" x1="15085" y1="17625.45" x2="13993.73" y2= "17312.51" />
    <path class="fil11" d="M14055.39 12016.21l-1012.14 -290.21c-213.96,-61.38 -387.4,69.34 -387.4,291.92l0 998.43c0,222.59 173.44,452.76 387.4,514.12l1012.14 290.21c213.97,61.37 387.42,-69.34 387.42,-291.92l0 -998.44c0,-222.58 -173.45,-452.75 -387.42,-514.11z"/>
    <path class="fil12" d="M13558.7 12768.23c118.73,34.02 214.98,-38.49 214.98,-161.99 0,-123.46 -96.25,-251.16 -214.98,-285.23 -118.68,-34.04 -214.93,38.48 -214.93,161.97 0,123.5 96.25,251.22 214.93,285.25zm-267.44 83.77c73.28,-50.66 170.92,-61.17 271.49,-29.22 100.58,25.74 198.22,92.23 271.5,184.95 73.31,92.72 116.28,204.03 119.49,309.58l-781.97 -224.24c3.21,-103.7 46.18,-190.36 119.49,-241.07z"/>
    <path class="fil11" d="M9928.43 10832.8l-1012.15 -290.22c-213.96,-61.37 -387.41,69.35 -387.41,291.9l0 998.46c0,222.58 173.45,452.76 387.41,514.08l1012.15 290.25c213.96,61.33 387.41,-69.34 387.41,-291.93l0 -998.46c0,-222.55 -173.45,-452.71 -387.41,-514.08z"/>
    <path class="fil13" d="M9215.72 11367.4l78.41 22.49 -2.41 -150.16c0.16,-28.67 11.18,-52.95 30.71,-67.66 19.48,-14.67 45.89,-18.56 73.47,-10.82l45.5 13.03c27.57,8.09 53.95,27.13 73.48,52.98 19.48,25.9 30.49,56.52 30.66,85.22l77.84 22.33c0,-49.54 -18.92,-102.49 -52.58,-147.18 -33.73,-44.7 -79.38,-77.45 -126.99,-91.12l-45.5 -13.07c-47.95,-13.74 -93.93,-7.33 -128.08,17.85 -34.14,25.11 -53.75,67 -54.51,116.64l0 149.47zm31.11 42.42l341.84 98c60.16,17.23 108.95,81.96 108.95,144.58l0 355.58c0,62.57 -48.79,99.34 -108.95,82.1l-341.84 -98c-60.16,-17.28 -108.95,-82.01 -108.95,-144.6l0 -355.58c0,-62.62 48.79,-99.37 108.95,-82.08z"/>
    <path class="fil11" d="M11991.93 11424.53l-1012.17 -290.26c-213.93,-61.33 -387.38,69.34 -387.38,291.94l0 998.46c0,222.54 173.45,452.71 387.38,514.08l1012.17 290.2c213.92,61.37 387.37,-69.34 387.37,-291.89l0 -998.46c0,-222.59 -173.45,-452.75 -387.37,-514.07z"/>
    <path class="fil14" d="M11157.97 12036.65c0,-140.29 109.31,-222.71 244.19,-184.03 134.85,38.68 244.2,183.75 244.2,324.09 0,140.29 -109.35,222.66 -244.2,183.98 -134.88,-38.65 -244.19,-183.75 -244.19,-324.04zm244.19 -285.76c-188.91,-54.19 -342.03,61.2 -342.03,257.7 0,196.49 153.12,399.72 342.03,453.88 188.89,54.14 342.01,-61.21 342.01,-257.75 0,-196.49 -153.12,-399.69 -342.01,-453.83zm218.7 759.15l211.21 280.27 69.14 -52.11 -211.2 -280.26 -69.15 52.1z"/>
    <path class="fil15" d="M7525.44 13184.74l-2102.22 -602.78c-157.13,-45.06 -284.53,50.63 -284.53,213.73l0 2182.07c0,163.11 127.4,331.86 284.53,376.95l2102.22 602.79c157.18,45.05 284.56,-50.62 284.56,-213.77l0 -2182.04c0,-163.13 -127.38,-331.89 -284.56,-376.95z"/>
    <path class="fil3 str0" d="M5423.22 12602l2102.22 602.79c146.54,42.04 265.28,199.37 265.28,351.37l0 2182.09c0,152 -118.74,241.22 -265.28,199.2l-2102.22 -602.78c-146.56,-42.05 -265.29,-199.38 -265.29,-351.38l0 -2182.07c0,-152 118.73,-241.23 265.29,-199.22z"/>
    <path class="fil16" d="M6882.12 14663.05c-114.39,116.66 -255.29,200.07 -414.59,245.4 -159.7,-136.61 -300.94,-300.95 -415.6,-483.45 -172.55,-279.99 -205.82,-736.43 114.42,-673.66 167.06,32.71 290.85,242.75 300.54,259.02 8.06,-9.77 132.49,-149.71 300.52,-86.66 320.27,122.62 286.32,558.05 114.71,739.35z"/>
    <polygon class="fil3 str2" points="16525,5926.59 13300.8,5002.08 13300.8,7998.43 16525,8922.97 "/>
    <path class="fil17" d="M8588.29 4409.44l-1657.66 -475.33c-279.95,-80.28 -506.9,90.72 -506.9,381.96 0,291.21 226.95,592.38 506.9,672.66l1657.66 475.32c279.94,80.29 506.86,-90.75 506.86,-381.97 0,-291.24 -226.92,-592.39 -506.86,-672.64z"/>
    <path class="fil18" d="M6995.52 4625.4c84.99,24.38 153.85,-27.53 153.85,-115.96 0,-88.38 -68.86,-179.81 -153.85,-204.19 -84.97,-24.37 -153.88,27.58 -153.88,115.96 0,88.39 68.91,179.83 153.88,204.19z"/>
    <path class="fil18" d="M7759.46 4844.47c84.98,24.36 153.88,-27.54 153.88,-115.97 0,-88.39 -68.9,-179.82 -153.88,-204.18 -84.99,-24.38 -153.85,27.53 -153.85,115.96 0,88.38 68.86,179.81 153.85,204.19z"/>
    <path class="fil19" d="M8687.17 4950.2c0.08,31.83 -8.86,60.38 -25.77,82.03 -16.92,21.64 -40.96,35.43 -69.19,39.6 -28.22,4.12 -59.28,-1.49 -89.26,-16.24 -30,-14.71 -57.57,-37.88 -79.22,-66.54 -21.64,-28.65 -36.39,-61.48 -42.41,-94.4 -6.01,-32.91 -2.97,-64.37 8.7,-90.39 11.66,-26.05 31.47,-45.49 56.89,-55.87 25.4,-10.39 55.26,-11.27 85.81,-2.48 40.89,11.69 80.05,39.75 108.99,78.08 28.98,38.31 45.29,83.69 45.46,126.21z"/>
    <path class="fil20" d="M10515.38 14131.62l-2004.22 -574.69c-149.8,-42.98 -271.25,48.26 -271.25,203.79l0 2080.33c0,155.49 121.45,316.4 271.25,359.36l2004.22 574.69c149.84,42.98 271.29,-48.3 271.29,-203.78l0 -2080.34c0,-155.49 -121.45,-316.4 -271.29,-359.36z"/>
    <path class="fil3 str3" d="M8511.16 13571.24l2004.22 574.73c142.26,40.77 257.49,193.49 257.49,341.08l0 2080.3c0,147.59 -115.23,234.21 -257.49,193.4l-2004.22 -574.68c-142.21,-40.77 -257.51,-193.5 -257.51,-341.09l0 -2080.34c0,-147.54 115.3,-234.17 257.51,-193.4z"/>
    <path class="fil2" d="M9307.47 15354.12l-118.88 -34.07 216.45 -577.51 137.49 39.45 216.7 701.68 -118.85 -34.08 -164.23 -555.49 -4.77 -1.36 -163.91 461.38zm3.9 -249.66l324.19 93.01 0 93.03 -324.19 -92.96 0 -93.08z"/>
    <polygon class="fil3 str4" points="10343.22,14498.75 8676.31,14020.75 8676.31,15698.43 10343.22,16176.45 "/>
    <path class="fil2" d="M8773.75 14073.78c0,17.75 -5.06,33.63 -14.56,45.66 -9.45,11.98 -22.96,19.63 -38.7,21.88 -15.81,2.24 -33.17,-0.96 -49.92,-9.22 -16.76,-8.25 -32.15,-21.21 -44.21,-37.2 -12.06,-15.99 -20.32,-34.32 -23.65,-52.67 -3.33,-18.36 -1.61,-35.87 4.92,-50.38 6.55,-14.52 17.61,-25.34 31.8,-31.11 14.23,-5.77 30.91,-6.25 47.98,-1.33 22.88,6.67 44.77,22.41 60.92,43.86 16.2,21.41 25.3,46.74 25.42,70.51z"/>
    <path class="fil2" d="M10429.44 14548.53c0,17.76 -5.09,33.64 -14.59,45.66 -9.5,12.03 -23.02,19.64 -38.8,21.88 -15.83,2.26 -33.2,-1 -50,-9.29 -16.75,-8.3 -32.14,-21.28 -44.2,-37.36 -12.03,-16.04 -20.24,-34.39 -23.49,-52.75 -3.28,-18.36 -1.53,-35.87 5.09,-50.34 6.61,-14.48 17.71,-25.26 31.99,-30.95 14.27,-5.73 31.02,-6.09 48.1,-1.08 22.8,6.65 44.69,22.41 60.76,43.8 16.12,21.41 25.14,46.75 25.14,70.43z"/>
    <path class="fil2" d="M9603.02 14311.48c0,17.76 -5.09,33.63 -14.59,45.65 -9.5,12.03 -23.01,19.65 -38.84,21.89 -15.81,2.24 -33.2,-1 -49.95,-9.3 -16.76,-8.31 -32.15,-21.29 -44.21,-37.36 -12.08,-16.03 -20.24,-34.39 -23.53,-52.76 -3.29,-18.34 -1.48,-35.87 5.12,-50.34 6.58,-14.47 17.73,-25.25 32,-30.94 14.27,-5.74 30.98,-6.1 48.1,-1.13 22.8,6.69 44.65,22.45 60.77,43.86 16.07,21.4 25.13,46.74 25.13,70.43z"/>
    <path class="fil2" d="M8773.75 15737c0,17.71 -5.06,33.59 -14.56,45.61 -9.45,12.03 -22.96,19.65 -38.7,21.89 -15.81,2.24 -33.17,-0.93 -49.92,-9.21 -16.76,-8.26 -32.15,-21.21 -44.21,-37.21 -12.06,-15.99 -20.32,-34.32 -23.65,-52.66 -3.33,-18.33 -1.61,-35.88 4.92,-50.39 6.55,-14.47 17.61,-25.33 31.8,-31.11 14.23,-5.77 30.91,-6.21 47.98,-1.33 22.88,6.58 44.85,22.29 61.04,43.74 16.2,21.48 25.3,46.86 25.3,70.67z"/>
    <path class="fil2" d="M10429.44 16211.88c0,17.76 -5.09,33.63 -14.59,45.65 -9.5,12.03 -23.02,19.65 -38.8,21.89 -15.83,2.24 -33.2,-1 -50,-9.3 -16.75,-8.3 -32.14,-21.29 -44.2,-37.32 -12.03,-16.07 -20.24,-34.43 -23.49,-52.79 -3.28,-18.37 -1.53,-35.88 5.09,-50.35 6.61,-14.47 17.71,-25.25 31.99,-30.93 14.27,-5.75 31.02,-6.11 48.1,-1.09 11.3,3.24 22.52,8.78 32.98,16.27 10.42,7.5 19.92,16.84 27.9,27.46 8.02,10.62 14.32,22.32 18.61,34.42 4.29,12.08 6.48,24.38 6.41,36.09z"/>
    <path class="fil2" d="M9602.94 15974.81c0,17.76 -5.09,33.64 -14.6,45.67 -9.5,12.03 -23,19.63 -38.83,21.87 -15.8,2.26 -33.19,-1 -49.95,-9.28 -16.76,-8.31 -32.15,-21.29 -44.21,-37.36 -12.07,-16.05 -20.25,-34.39 -23.54,-52.76 -3.24,-18.36 -1.47,-35.87 5.14,-50.34 6.57,-14.47 17.72,-25.25 31.99,-30.95 14.26,-5.73 30.98,-6.09 48.1,-1.08 11.3,3.25 22.52,8.77 32.98,16.27 10.43,7.5 19.93,16.84 27.91,27.46 7.97,10.62 14.3,22.33 18.59,34.39 4.29,12.1 6.45,24.37 6.42,36.11z"/>
    <path class="fil21" d="M18240.85 10439.98l-1266.19 -363.07c-267.68,-76.75 -484.66,84.64 -484.66,360.45l0 1237.25c0,275.82 216.98,561.63 484.66,638.37l1266.19 363.08c267.62,76.74 484.6,-84.64 484.6,-360.43l0 -1237.28c0,-275.83 -216.98,-561.63 -484.6,-638.37z"/>
    <line class="fil3 str5" x1="16962.88" y1="10744.32" x2="18262.05" y2= "11116.83" />
    <line class="fil3 str5" x1="16962.88" y1="11046.69" x2="18262.05" y2= "11419.19" />
    <line class="fil3 str5" x1="16962.88" y1="11349.52" x2="18262.05" y2= "11722.03" />
    <line class="fil3 str5" x1="16962.88" y1="11652.47" x2="18262.05" y2= "12025.03" />
    <path class="fil22" d="M12279.37 7798.33l3197.9 916.97c72.94,20.92 142.94,71.14 194.57,139.65 51.58,68.46 80.57,149.59 80.57,225.51l0 2345.94c0,75.8 -28.96,140.22 -80.5,179.06 -51.55,38.85 -121.41,48.94 -194.32,28.01l-3198.22 -917.09c-72.87,-20.96 -142.69,-71.14 -194.2,-139.53 -51.56,-68.34 -80.54,-149.32 -80.62,-225.16l0 -2346.29c0.08,-75.75 29.06,-140.09 80.62,-178.94 51.51,-38.8 121.33,-48.93 194.2,-28.13z"/>
    <path class="fil2" d="M13804.42 9123.44l186.15 53.34 0 698.36c0,76.56 -17.4,138.89 -52.18,187.04 -34.48,48.22 -82.98,79.72 -145.52,94.5 -62.52,14.4 -135.63,9.62 -219.25,-14.34 -83.94,-24.05 -157.18,-61.26 -219.75,-111.55 -62.52,-50.63 -111.03,-109.96 -145.5,-177.94 -34.43,-67.98 -51.67,-140.26 -51.67,-216.81l0 -698.36 186.14 53.39 0 682.16c0,44.54 9.35,86.9 28.11,127.06 19.04,40.26 45.81,75.25 80.25,104.95 34.48,29.39 75.28,50.83 122.42,64.34 47.18,13.54 87.98,15.47 122.42,5.89 34.78,-9.86 61.57,-29.51 80.28,-58.93 18.72,-29.42 28.1,-66.42 28.1,-110.94l0 -682.16zm574.58 164.74l0 1068.94 -186.12 -53.41 0 -1068.87 186.12 53.34z"/>
    <path class="fil23" d="M8390.55 6715.84l3190.54 914.9c72.85,20.88 142.67,70.98 194.14,139.33 51.51,68.3 80.41,149.23 80.41,225l0 2340.55c0,75.64 -28.9,139.94 -80.29,178.66 -51.42,38.76 -121.17,48.83 -193.89,27.99l-3190.91 -915.02c-72.68,-20.92 -142.38,-70.98 -193.77,-139.21 -51.39,-68.18 -80.34,-148.99 -80.42,-224.63l0 -2340.93c0.08,-75.6 29.03,-139.81 80.42,-178.53 51.39,-38.73 121.09,-48.83 193.77,-28.11z"/>
    <path class="fil24" d="M9597.61 7950.4l185.71 53.24 0 696.78c0,76.37 -17.36,138.58 -52.07,186.6 -34.36,48.1 -82.78,79.52 -145.15,94.28 -62.41,14.39 -135.32,9.62 -218.78,-14.32 -83.74,-24.01 -156.81,-61.08 -219.22,-111.27 -62.41,-50.54 -110.8,-109.7 -145.19,-177.53 -34.34,-67.86 -51.54,-139.94 -51.54,-216.34l0 -696.75 185.71 53.28 0 680.58c0,44.47 9.33,86.71 28.01,126.76 19.05,40.2 45.74,75.07 80.09,104.74 34.4,29.3 75.13,50.7 122.14,64.17 47.07,13.52 87.79,15.47 122.18,5.85 34.66,-9.82 61.37,-29.42 80.08,-58.75 18.68,-29.39 28.03,-66.27 28.03,-110.72l0 -680.6zm542.73 155.65l225.77 455.28 8.01 2.28 226.75 -325.52 211.74 60.73 -315.88 442.66 320.88 625.22 -215.25 -61.72 -228.24 -453.39 -8.01 -2.29 -228.28 322.48 -214.22 -61.42 323.85 -440.36 -319.88 -624.95 212.76 61z"/>
    <path class="fil25" d="M6910.03 5986.95l-4417.38 -1266.62c-85.19,-24.45 -154.24,27.01 -154.24,114.96l0 2230.73c0,87.9 69.05,178.98 154.24,203.44l4417.38 1266.66c85.17,24.4 154.24,-27.06 154.24,-115.01l0 -2230.73c0,-87.9 -69.07,-178.98 -154.24,-203.43z"/>
    <path class="fil26" d="M4566.1 6558.71c0,199.1 -57.21,377.36 -164.4,512.16 -107.14,134.85 -259.45,220.19 -437.68,245.28 -178.21,25.09 -374.31,-11.18 -563.5,-104.29 -189.2,-93.09 -362.97,-238.8 -499.38,-418.69 -136.39,-179.91 -229.28,-385.93 -266.91,-592 -37.65,-206.09 -18.32,-402.93 55.51,-565.72 73.79,-162.81 198.83,-284.2 359.21,-348.81 160.37,-64.62 348.96,-69.58 541.85,-14.27 258.66,74.16 506.75,251.37 689.64,492.6 182.91,241.22 285.66,526.75 285.66,793.74z"/>
    <path class="fil27" d="M4566.1 6558.71c0,199.1 -57.21,377.36 -164.4,512.16 -107.14,134.85 -259.45,220.19 -437.68,245.28 -178.21,25.09 -374.31,-11.18 -563.5,-104.29 -189.2,-93.09 -362.97,-238.8 -499.38,-418.69 -136.39,-179.91 -229.28,-385.93 -266.91,-592 -37.65,-206.09 -18.32,-402.93 55.51,-565.72 73.79,-162.81 198.83,-284.2 359.21,-348.81 160.37,-64.62 348.96,-69.58 541.85,-14.27 258.66,74.16 506.75,251.37 689.64,492.6 182.91,241.22 285.66,526.75 285.66,793.74z"/>
    <path class="fil28" d="M3598.38 6205.02c133.69,38.32 242.06,-42.7 242.06,-180.99 0,-138.28 -108.37,-281.47 -242.06,-319.8 -133.68,-38.36 -242.05,42.7 -242.05,180.98 0,138.3 108.37,281.48 242.05,319.81z"/>
    <path class="fil28" d="M3920.89 6823.28l-645.03 -184.97c-8.5,-2.42 -16.92,-6.59 -24.79,-12.29 -7.84,-5.65 -14.99,-12.7 -20.98,-20.78 -6.02,-8.05 -10.8,-16.94 -14.04,-26.12 -3.24,-9.22 -4.93,-18.56 -4.93,-27.51 0,-108.11 40.8,-200.05 113.43,-255.7 72.61,-55.58 171.13,-70.29 273.83,-40.84 50.87,14.56 101.21,39.58 148.19,73.52 47.02,33.95 89.7,76.19 125.66,124.39 35.97,48.13 64.47,101.25 83.94,156.29 19.49,55.03 29.45,110.91 29.45,164.47 0,18.02 -6.79,33.41 -18.94,42.71 -12.16,9.31 -28.59,11.74 -45.79,6.83z"/>
    <path class="fil29" d="M4858.7 6021.46l1801.72 516.61c37.77,10.82 68.39,51.23 68.39,90.24l0 99.32c0,38.97 -30.62,61.81 -68.39,50.95l-1801.72 -516.61c-37.79,-10.82 -68.41,-51.23 -68.41,-90.22l0 -99.3c0,-39.01 30.62,-61.85 68.41,-50.99z"/>
    <path class="fil30" d="M4858.7 6442.83l1801.72 516.61c37.77,10.82 68.39,51.22 68.39,90.24l0 99.27c0,39.01 -30.62,61.82 -68.39,51l-1801.72 -516.62c-37.79,-10.86 -68.41,-51.22 -68.41,-90.22l0 -99.33c0,-38.97 30.62,-61.82 68.41,-50.95z"/>
    <path class="fil31" d="M6646.15 7604.76l-1776.42 -509.35c-12.39,-3.57 -24.25,-12.03 -32.99,-23.57 -8.77,-11.54 -13.67,-25.21 -13.67,-38 -0.04,-6.37 1.12,-12.31 3.46,-17.56 2.31,-5.21 5.72,-9.59 10.09,-12.83 4.33,-3.29 9.49,-5.38 15.16,-6.21 5.68,-0.8 11.77,-0.32 17.95,1.44l1776.42 509.39c12.47,3.57 24.42,12.1 33.24,23.74 8.81,11.66 13.78,25.41 13.78,38.27 -0.12,12.8 -5.09,23.62 -13.9,30.12 -8.82,6.48 -20.73,8.13 -33.12,4.56z"/>
    <path class="fil32" d="M4869.73 7311.18l828.18 237.51c12.39,3.51 24.25,1.87 33,-4.66 8.74,-6.54 13.66,-17.36 13.66,-30.14 0,-12.79 -4.92,-26.46 -13.66,-38 -8.75,-11.54 -20.61,-20 -33,-23.57l-828.18 -237.46c-12.39,-3.56 -24.25,-1.88 -32.99,4.65 -8.77,6.53 -13.67,17.36 -13.67,30.15 -0.04,6.33 1.12,12.93 3.46,19.48 2.31,6.53 5.77,12.82 10.09,18.56 4.33,5.72 9.49,10.74 15.19,14.78 5.7,4.05 11.79,7.02 17.92,8.7z"/>
    <path class="fil3 str0" d="M3284.15 14786.28l0 743.84c0,63.66 30.07,133.32 83.54,193.69 53.51,60.33 126.03,106.43 201.7,128.11l5705.98 1636.17c75.63,21.72 148.18,17.22 201.71,-12.47 53.46,-29.66 83.53,-82.1 83.53,-145.74l0 -743.85"/>
    <path class="fil2" d="M3361.32 14843.84c0,15.87 -4.53,30.1 -13.03,40.84 -8.54,10.79 -20.6,17.6 -34.75,19.6 -14.15,2 -29.71,-0.87 -44.74,-8.33 -15,-7.42 -28.74,-19.04 -39.55,-33.39 -10.79,-14.36 -18.12,-30.78 -21.06,-47.22 -2.96,-16.44 -1.37,-32.15 4.53,-45.1 5.89,-12.94 15.87,-22.61 28.63,-27.74 12.74,-5.09 27.72,-5.44 43.04,-0.96 20.45,5.93 40.01,20.05 54.44,39.21 14.39,19.2 22.49,41.85 22.49,63.09z"/>
    <path class="fil2" d="M9637.73 16643.55c0,15.86 -4.53,30.1 -13.03,40.88 -8.53,10.75 -20.6,17.55 -34.76,19.57 -14.15,2 -29.69,-0.89 -44.69,-8.3 -15.03,-7.46 -28.78,-19.08 -39.6,-33.44 -10.79,-14.35 -18.12,-30.78 -21.04,-47.21 -2.97,-16.43 -1.37,-32.11 4.53,-45.05 5.89,-13 15.87,-22.65 28.62,-27.74 12.75,-5.14 27.73,-5.46 43.05,-1 20.44,5.97 40,20.07 54.44,39.24 14.39,19.16 22.48,41.84 22.48,63.05z"/>
    <path class="fil2" d="M6533.96 15753.71c0,15.88 -4.57,30.11 -13.07,40.85 -8.5,10.79 -20.61,17.59 -34.76,19.6 -14.15,2 -29.69,-0.88 -44.69,-8.34 -15,-7.41 -28.78,-19.03 -39.56,-33.39 -10.83,-14.35 -18.16,-30.79 -21.08,-47.21 -2.93,-16.44 -1.37,-32.12 4.52,-45.1 5.93,-12.96 15.88,-22.61 28.67,-27.7 12.74,-5.13 27.74,-5.5 43.01,-1 20.44,5.93 40,20.05 54.43,39.24 14.43,19.17 22.53,41.81 22.53,63.05z"/>
    <line class="fil3 str0" x1="6465.38" y1="15787.74" x2="6465.41" y2= "16682.18" />
   </g>
  </g>
  <polygon class="fil1" points="19881.53,4686.82 881.53,-761.33 881.53,19662.82 19881.53,25110.98 "/>
  <polygon class="fil1" points="-1704.12,4937.72 -14245.37,1341.58 -14245.37,14822.87 -1704.12,18419.01 "/>
 </g>
</svg>
