<?xml version="1.0" encoding="UTF-8"?>
<!DOCTYPE svg PUBLIC "-//W3C//DTD SVG 1.1//EN" "http://www.w3.org/Graphics/SVG/1.1/DTD/svg11.dtd">
<!-- Creator: CorelDRAW -->
<svg xmlns="http://www.w3.org/2000/svg" xml:space="preserve" width="130mm" height="170mm" version="1.1" style="shape-rendering:geometricPrecision; text-rendering:geometricPrecision; image-rendering:optimizeQuality; fill-rule:evenodd; clip-rule:evenodd"
viewBox="0 0 13000 17000"
 xmlns:xlink="http://www.w3.org/1999/xlink"
 xmlns:xodm="http://www.corel.com/coreldraw/odm/2003">
 <defs>
  <style type="text/css">
   <![CDATA[
    .str0 {stroke:#BD5A5A;stroke-width:26.5;stroke-miterlimit:22.9256}
    .str3 {stroke:#BD5A5A;stroke-width:18.9;stroke-miterlimit:22.9256}
    .str4 {stroke:#BD5A5A;stroke-width:9.5;stroke-miterlimit:22.9256}
    .str2 {stroke:#B45A5A;stroke-width:33.6;stroke-linecap:round;stroke-miterlimit:22.9256}
    .str1 {stroke:white;stroke-width:73.88;stroke-linecap:round;stroke-miterlimit:22.9256}
    .str5 {stroke:#BD5A5A;stroke-width:73.9;stroke-linecap:round;stroke-miterlimit:22.9256}
    .fil1 {fill:none}
    .fil3 {fill:none;fill-rule:nonzero}
    .fil7 {fill:none;fill-rule:nonzero}
    .fil26 {fill:#B45A5A;fill-rule:nonzero}
    .fil2 {fill:#BD5A5A;fill-rule:nonzero}
    .fil0 {fill:white;fill-rule:nonzero;fill-opacity:0.000000}
    .fil23 {fill:#EBEBEA;fill-rule:nonzero;fill-opacity:0.101961}
    .fil30 {fill:white;fill-rule:nonzero;fill-opacity:0.301961}
    .fil22 {fill:#BD5A5A;fill-rule:nonzero}
    .fil12 {fill:#EBEBEA;fill-rule:nonzero}
    .fil19 {fill:white;fill-rule:nonzero}
    .fil28 {fill:url(#id2);fill-rule:nonzero}
    .fil24 {fill:url(#id3);fill-rule:nonzero}
    .fil34 {fill:url(#id4);fill-rule:nonzero}
    .fil29 {fill:url(#id5);fill-rule:nonzero}
    .fil33 {fill:url(#id6);fill-rule:nonzero}
    .fil27 {fill:url(#id7);fill-rule:nonzero}
    .fil25 {fill:url(#id8);fill-rule:nonzero}
    .fil31 {fill:url(#id9);fill-rule:nonzero}
    .fil32 {fill:url(#id10);fill-rule:nonzero}
    .fil14 {fill:url(#id11)}
    .fil13 {fill:url(#id12)}
    .fil15 {fill:url(#id13)}
    .fil10 {fill:url(#id14);fill-rule:nonzero}
    .fil5 {fill:url(#id15);fill-rule:nonzero}
    .fil9 {fill:url(#id16);fill-rule:nonzero}
    .fil17 {fill:url(#id17);fill-rule:nonzero}
    .fil20 {fill:url(#id18);fill-rule:nonzero}
    .fil6 {fill:url(#id19);fill-rule:nonzero}
    .fil18 {fill:url(#id20);fill-rule:nonzero}
    .fil16 {fill:url(#id21);fill-rule:nonzero}
    .fil8 {fill:url(#id22);fill-rule:nonzero}
    .fil11 {fill:url(#id23);fill-rule:nonzero}
    .fil21 {fill:url(#id24);fill-rule:nonzero}
    .fil4 {fill:url(#id25);fill-rule:nonzero}
   ]]>
  </style>
   <clipPath id="id0" style="clip-rule:nonzero">
    <path d="M12652.15 3232.25l-12541.25 -3596.14 0 13481.29 12541.25 3596.14 0 -13481.29z"/>
   </clipPath>
   <clipPath id="id1" style="clip-rule:nonzero">
    <path d="M12652.15 3232.25l-12541.25 -3596.14 0 13481.29 12541.25 3596.14 0 -13481.29z"/>
   </clipPath>
  <linearGradient id="id2" gradientUnits="userSpaceOnUse" x1="1902.78" y1="3604.78" x2="1352.49" y2="5374.7">
   <stop offset="0" style="stop-opacity:1; stop-color:#F68E69"/>
   <stop offset="1" style="stop-opacity:1; stop-color:#E52E5F"/>
  </linearGradient>
  <linearGradient id="id3" gradientUnits="userSpaceOnUse" x1="8696.37" y1="4951.47" x2="7981.99" y2="7372.8">
   <stop offset="0" style="stop-opacity:1; stop-color:#575958"/>
   <stop offset="1" style="stop-opacity:1; stop-color:#1C1E1C"/>
  </linearGradient>
  <linearGradient id="id4" gradientUnits="userSpaceOnUse" x1="2743.27" y1="3948.37" x2="2558.07" y2="4210.29">
   <stop offset="0" style="stop-opacity:1; stop-color:#BD5A5A"/>
   <stop offset="1" style="stop-opacity:1; stop-color:#9E4141"/>
  </linearGradient>
  <linearGradient id="id5" gradientUnits="userSpaceOnUse" x1="1457.3" y1="3500.67" x2="2086.21" y2="5036.33">
   <stop offset="0" style="stop-opacity:1; stop-color:#BD5A5A"/>
   <stop offset="1" style="stop-opacity:1; stop-color:#753232"/>
  </linearGradient>
  <linearGradient id="id6" gradientUnits="userSpaceOnUse" xlink:href="#id4" x1="2743.27" y1="3940.72" x2="2558.06" y2="4204.38">
  </linearGradient>
  <linearGradient id="id7" gradientUnits="userSpaceOnUse" xlink:href="#id3" x1="2663.88" y1="3130.64" x2="2028.88" y2="5227.21">
  </linearGradient>
  <linearGradient id="id8" gradientUnits="userSpaceOnUse" xlink:href="#id3" x1="6129.91" y1="4237.08" x2="5415.54" y2="6632.09">
  </linearGradient>
  <linearGradient id="id9" gradientUnits="userSpaceOnUse" xlink:href="#id4" x1="2743.25" y1="3946.49" x2="2558.04" y2="4205.53">
  </linearGradient>
  <linearGradient id="id10" gradientUnits="userSpaceOnUse" xlink:href="#id4" x1="2743.25" y1="3952.29" x2="2558.04" y2="4211.34">
  </linearGradient>
  <linearGradient id="id11" gradientUnits="userSpaceOnUse" x1="5680.12" y1="7434.76" x2="5680.12" y2="8135.6">
   <stop offset="0" style="stop-opacity:1; stop-color:#BD5A5A"/>
   <stop offset="1" style="stop-opacity:1; stop-color:#994242"/>
  </linearGradient>
  <linearGradient id="id12" gradientUnits="userSpaceOnUse" xlink:href="#id11" x1="8405.33" y1="8215.56" x2="8325.95" y2="8886.37">
  </linearGradient>
  <linearGradient id="id13" gradientUnits="userSpaceOnUse" x1="6870.74" y1="7906.03" x2="7399.91" y2="8593.75">
   <stop offset="0" style="stop-opacity:1; stop-color:#BD5A5A"/>
   <stop offset="1" style="stop-opacity:1; stop-color:#9E4444"/>
  </linearGradient>
  <linearGradient id="id14" gradientUnits="userSpaceOnUse" x1="1737.83" y1="8413.33" x2="1975.96" y2="8413.33">
   <stop offset="0" style="stop-opacity:1; stop-color:#D87777"/>
   <stop offset="1" style="stop-opacity:1; stop-color:#BD5A5A"/>
  </linearGradient>
  <linearGradient id="id15" gradientUnits="userSpaceOnUse" x1="6897.2" y1="4625.49" x2="7399.91" y2="4043.41">
   <stop offset="0" style="stop-opacity:1; stop-color:#1B1B1B"/>
   <stop offset="0.329412" style="stop-opacity:1; stop-color:#121212"/>
   <stop offset="1" style="stop-opacity:1; stop-color:#020202"/>
  </linearGradient>
  <linearGradient id="id16" gradientUnits="userSpaceOnUse" x1="1446.79" y1="9044.03" x2="2372.83" y2="9044.03">
   <stop offset="0" style="stop-opacity:1; stop-color:#D37575"/>
   <stop offset="1" style="stop-opacity:1; stop-color:#BD5A5A"/>
  </linearGradient>
  <linearGradient id="id17" gradientUnits="userSpaceOnUse" xlink:href="#id5" x1="3569.28" y1="9239" x2="3847.36" y2="10046.16">
  </linearGradient>
  <linearGradient id="id18" gradientUnits="userSpaceOnUse" xlink:href="#id15" x1="5047.23" y1="3329.82" x2="5256.81" y2="3329.82">
  </linearGradient>
  <linearGradient id="id19" gradientUnits="userSpaceOnUse" xlink:href="#id3" x1="1764.29" y1="7460.23" x2="1076.38" y2="9717.03">
  </linearGradient>
  <linearGradient id="id20" gradientUnits="userSpaceOnUse" x1="4939.29" y1="3813.99" x2="4515.96" y2="2585.73">
   <stop offset="0" style="stop-opacity:1; stop-color:#BD5A5A"/>
   <stop offset="1" style="stop-opacity:1; stop-color:#DD8686"/>
  </linearGradient>
  <linearGradient id="id21" gradientUnits="userSpaceOnUse" xlink:href="#id3" x1="3801.58" y1="8042.39" x2="3113.67" y2="10299.23">
  </linearGradient>
  <linearGradient id="id22" gradientUnits="userSpaceOnUse" x1="1076.38" y1="8858.82" x2="2134.71" y2="8858.82">
   <stop offset="0" style="stop-opacity:1; stop-color:#BD5A5A"/>
   <stop offset="1" style="stop-opacity:1; stop-color:#923D3D"/>
  </linearGradient>
  <linearGradient id="id23" gradientUnits="userSpaceOnUse" x1="9463.66" y1="12412.18" x2="10125.12" y2="10433.54">
   <stop offset="0" style="stop-opacity:1; stop-color:#8B3737"/>
   <stop offset="1" style="stop-opacity:1; stop-color:#E28888"/>
  </linearGradient>
  <linearGradient id="id24" gradientUnits="userSpaceOnUse" xlink:href="#id3" x1="5812.41" y1="8702.5" x2="5150.96" y2="10855.54">
  </linearGradient>
  <linearGradient id="id25" gradientUnits="userSpaceOnUse" x1="6050.12" y1="12568.77" x2="10044.21" y2="5302.53">
   <stop offset="0" style="stop-opacity:1; stop-color:#161716"/>
   <stop offset="1" style="stop-opacity:1; stop-color:#8B8B8B"/>
  </linearGradient>
 </defs>
 <g id="Слой_x0020_1">
  <metadata id="CorelCorpID_0Corel-Layer"/>
  <g style="clip-path:url(#id0)">
   <polygon class="fil0" points="110.9,-363.89 12652.15,-363.89 12652.15,16713.54 110.9,16713.54 "/>
  </g>
  <g style="clip-path:url(#id1)">
   <g id="_2532124677712">
    <path id="_1" class="fil1 str0" d="M2633.23 5384.82l0 491.01c0,42.02 19.82,88 55.14,127.82 35.3,39.85 83.19,70.28 133.11,84.59l3454.22 990.47c49.93,14.31 97.82,11.35 133.11,-8.23 35.3,-19.58 55.14,-54.19 55.14,-96.2l0 -491.02"/>
    <path class="fil2" d="M2684.17 5422.92c0,10.48 -2.99,19.87 -8.63,26.96 -5.61,7.12 -13.6,11.61 -22.94,12.94 -9.31,1.32 -19.61,-0.59 -29.5,-5.51 -9.9,-4.89 -19,-12.56 -26.12,-22.04 -7.14,-9.47 -11.95,-20.32 -13.91,-31.16 -1.93,-10.85 -0.9,-21.2 3.01,-29.77 3.89,-8.55 10.46,-14.92 18.9,-18.28 8.41,-3.39 18.3,-3.63 28.39,-0.66 13.49,3.91 26.43,13.23 35.93,25.9 9.52,12.65 14.87,27.62 14.87,41.62z"/>
    <path class="fil3 str0" d="M11132.39 8424.96l0 490.99c0,42.01 -19.82,76.62 -55.14,96.2 -35.29,19.61 -83.18,22.57 -133.11,8.23l-3454.22 -990.47c-49.92,-14.31 -97.81,-44.74 -133.11,-84.56 -35.29,-39.85 -55.14,-85.83 -55.14,-127.85l0 -490.98"/>
    <path class="fil2" d="M11081.46 8433.77c0,10.48 3.01,21.59 8.62,31.91 5.61,10.32 13.6,19.39 22.94,26.09 9.34,6.66 19.61,10.66 29.5,11.43 9.9,0.76 19,-1.7 26.12,-7.07 7.14,-5.39 11.98,-13.46 13.92,-23.2 1.93,-9.74 0.9,-20.69 -2.99,-31.49 -3.92,-10.77 -10.48,-20.93 -18.92,-29.13 -8.42,-8.2 -18.31,-14.1 -28.39,-16.93 -13.5,-3.81 -26.41,-1.91 -35.93,5.29 -9.53,7.2 -14.87,19.1 -14.87,33.1z"/>
    <path class="fil4" d="M9507.37 13622.28l-4750.43 -1362.18c-108.03,-30.99 -194.13,-196.54 -194.13,-369.26l0 -8361.07c0,-173.09 87.18,-288.61 194.13,-257.94l4750.43 1362.15c108.06,30.99 193.76,196.09 193.76,369.18l0 8361.07c1.45,173.51 -85.7,289.03 -193.76,258.05z"/>
    <polygon class="fil5" points="7887.2,4477.35 6350.42,4036.69 6350.42,4136.73 7887.2,4577.39 "/>
    <path class="fil6" d="M2449.37 8254.52l-1387.6 -397.91c-103.72,-29.74 -187.8,33.44 -187.8,141.1l0 1440.31c0,107.66 84.08,219.05 187.8,248.79l1387.6 397.88c103.72,29.77 187.81,-33.42 187.81,-141.07l0 -1440.32c0,-107.66 -84.09,-219.05 -187.81,-248.78z"/>
    <path class="fil7 str0" d="M1061.77 7869.84l1387.6 397.9c96.74,27.73 175.11,131.58 175.11,231.91l0 1440.31c0,100.33 -78.37,159.26 -175.11,131.5l-1387.6 -397.88c-96.74,-27.73 -175.1,-131.6 -175.1,-231.93l0 -1440.29c0,-100.33 78.36,-159.25 175.1,-131.52z"/>
    <polygon class="fil8" points="1100.92,9255.28 1563.89,8620.54 2150.82,9553.99 "/>
    <polygon class="fil9" points="1469.83,9361 1998.74,8892.77 2377.86,9618.05 "/>
    <path class="fil10" d="M1868.98 8577.94c66.92,19.18 121.16,-21.56 121.16,-91.01 0,-69.43 -54.24,-141.29 -121.16,-160.47 -66.88,-19.19 -121.12,21.56 -121.12,91.01 0,69.43 54.24,141.29 121.12,160.47z"/>
    <path class="fil11" d="M10430.69 10494.21l-1922.15 -551.15c-100.83,-28.92 -182.58,32.68 -182.58,137.58l0 1732.1c0,104.9 81.75,213.41 182.58,242.33l1922.15 551.15c100.86,28.92 182.59,-32.67 182.59,-137.61l0 -1732.07c0,-104.9 -81.73,-213.41 -182.59,-242.33z"/>
    <line class="fil7 str1" x1="10054.45" y1="10948.74" x2="8765.82" y2= "10579.22" />
    <line class="fil7 str1" x1="10054.45" y1="11195.54" x2="8765.82" y2= "10826.05" />
    <line class="fil7 str1" x1="10054.45" y1="11442.24" x2="8765.82" y2= "11072.75" />
    <line class="fil7 str1" x1="10054.45" y1="11689.15" x2="8765.82" y2= "11319.66" />
    <line class="fil7 str1" x1="9486.13" y1="11772.6" x2="8765.82" y2= "11566.04" />
    <path class="fil12" d="M8806.52 8070.13l-668.08 -191.56c-141.23,-40.51 -255.71,45.77 -255.71,192.69l0 659.03c0,146.92 114.48,298.85 255.71,339.35l668.08 191.56c141.23,40.51 255.72,-45.77 255.72,-192.69l0 -659.03c0,-146.92 -114.49,-298.85 -255.72,-339.35z"/>
    <path class="fil13" d="M8478.67 8566.51c78.37,22.46 141.9,-25.4 141.9,-106.92 0,-81.49 -63.53,-165.78 -141.9,-188.27 -78.34,-22.47 -141.87,25.4 -141.87,106.91 0,81.52 63.53,165.82 141.87,188.28zm-176.53 55.3c48.37,-33.44 112.82,-40.38 179.2,-19.29 66.39,16.99 130.84,60.88 179.21,122.08 48.39,61.2 76.75,134.67 78.87,204.34l-516.15 -148.01c2.12,-68.45 30.48,-125.65 78.87,-159.12z"/>
    <path class="fil12" d="M6082.45 7289l-668.08 -191.56c-141.23,-40.51 -255.72,45.77 -255.72,192.67l0 659.05c0,146.92 114.49,298.85 255.72,339.33l668.08 191.58c141.23,40.48 255.72,-45.77 255.72,-192.69l0 -659.05c0,-146.9 -114.49,-298.82 -255.72,-339.33z"/>
    <path class="fil14" d="M5612.02 7641.87l51.75 14.85 -1.59 -99.12c0.11,-18.92 7.38,-34.95 20.27,-44.66 12.86,-9.68 30.29,-12.25 48.5,-7.14l30.03 8.6c18.2,5.34 35.61,17.91 48.5,34.97 12.86,17.1 20.13,37.31 20.24,56.25l51.38 14.74c0,-32.7 -12.49,-67.65 -34.71,-97.15 -22.26,-29.5 -52.39,-51.12 -83.82,-60.14l-30.03 -8.63c-31.65,-9.07 -62,-4.84 -84.54,11.78 -22.54,16.58 -35.48,44.23 -35.98,76.99l0 98.66zm20.53 28l225.64 64.69c39.71,11.37 71.91,54.1 71.91,95.43l0 234.71c0,41.3 -32.2,65.57 -71.91,54.19l-225.64 -64.69c-39.71,-11.4 -71.91,-54.13 -71.91,-95.44l0 -234.71c0,-41.33 32.2,-65.59 71.91,-54.18z"/>
    <path class="fil12" d="M7444.5 7679.58l-668.1 -191.59c-141.21,-40.48 -255.7,45.77 -255.7,192.7l0 659.05c0,146.89 114.49,298.82 255.7,339.33l668.1 191.55c141.2,40.51 255.69,-45.77 255.69,-192.67l0 -659.05c0,-146.92 -114.49,-298.84 -255.69,-339.32z"/>
    <path class="fil15" d="M6894.03 8083.62c0,-92.6 72.15,-147 161.18,-121.47 89.01,25.53 161.19,121.29 161.19,213.92 0,92.6 -72.18,146.97 -161.19,121.44 -89.03,-25.51 -161.18,-121.29 -161.18,-213.89zm161.18 -188.62c-124.69,-35.77 -225.76,40.4 -225.76,170.1 0,129.7 101.07,263.84 225.76,299.59 124.68,35.74 225.75,-40.4 225.75,-170.13 0,-129.7 -101.07,-263.82 -225.75,-299.56zm144.36 501.09l139.41 185 45.64 -34.4 -139.41 -184.99 -45.64 34.39z"/>
    <path class="fil16" d="M4496.32 8841.44l-1387.6 -397.88c-103.72,-29.74 -187.81,33.42 -187.81,141.08l0 1440.31c0,107.66 84.09,219.05 187.81,248.81l1387.6 397.88c103.75,29.74 187.83,-33.41 187.83,-141.1l0 -1440.29c0,-107.68 -84.08,-219.07 -187.83,-248.81z"/>
    <path class="fil7 str0" d="M3108.72 8456.79l1387.6 397.88c96.73,27.75 175.1,131.6 175.1,231.93l0 1440.32c0,100.33 -78.37,159.22 -175.1,131.49l-1387.6 -397.88c-96.74,-27.75 -175.11,-131.6 -175.11,-231.93l0 -1440.31c0,-100.33 78.37,-159.23 175.11,-131.5z"/>
    <path class="fil17" d="M4071.69 9817.22c-75.51,77 -168.51,132.06 -273.66,161.98 -105.41,-90.17 -198.64,-198.65 -274.32,-319.11 -113.9,-184.81 -135.86,-486.09 75.52,-444.66 110.27,21.59 191.98,160.23 198.38,170.97 5.32,-6.45 87.45,-98.82 198.36,-57.2 211.4,80.94 188.99,368.35 75.72,488.02z"/>
    <polygon class="fil7 str2" points="10436.62,4050.58 8308.44,3440.34 8308.44,5418.13 10436.62,6028.39 "/>
    <path class="fil18" d="M5197.87 3049.16l-1094.16 -313.75c-184.79,-52.99 -334.59,59.88 -334.59,252.12 0,192.22 149.8,391.01 334.59,444l1094.16 313.74c184.78,53 334.56,-59.9 334.56,-252.12 0,-192.24 -149.78,-391.02 -334.56,-443.99z"/>
    <path class="fil19" d="M4146.54 3191.71c56.1,16.09 101.55,-18.17 101.55,-76.54 0,-58.34 -45.45,-118.69 -101.55,-134.78 -56.09,-16.09 -101.57,18.2 -101.57,76.54 0,58.34 45.48,118.7 101.57,134.78z"/>
    <path class="fil19" d="M4650.79 3336.31c56.09,16.08 101.57,-18.18 101.57,-76.55 0,-58.34 -45.48,-118.69 -101.57,-134.77 -56.1,-16.09 -101.55,18.17 -101.55,76.54 0,58.34 45.45,118.69 101.55,134.78z"/>
    <path class="fil20" d="M5263.14 3406.1c0.05,21.01 -5.85,39.85 -17.01,54.14 -11.17,14.29 -27.04,23.39 -45.67,26.14 -18.63,2.72 -39.13,-0.98 -58.92,-10.72 -19.8,-9.71 -38,-25 -52.29,-43.92 -14.28,-18.91 -24.02,-40.58 -27.99,-62.31 -3.97,-21.72 -1.96,-42.49 5.74,-59.66 7.7,-17.2 20.77,-30.03 37.55,-36.88 16.77,-6.86 36.48,-7.44 56.64,-1.64 26.99,7.72 52.84,26.24 71.94,51.54 19.13,25.29 29.9,55.24 30.01,83.31z"/>
    <path class="fil21" d="M6469.88 9466.44l-1322.92 -379.33c-98.88,-28.37 -179.04,31.85 -179.04,134.51l0 1373.16c0,102.63 80.16,208.84 179.04,237.2l1322.92 379.33c98.9,28.37 179.07,-31.88 179.07,-134.51l0 -1373.16c0,-102.63 -80.17,-208.84 -179.07,-237.2z"/>
    <path class="fil7 str3" d="M5146.96 9096.55l1322.92 379.36c93.9,26.91 169.96,127.72 169.96,225.14l0 1373.13c0,97.42 -76.06,154.6 -169.96,127.66l-1322.92 -379.33c-93.87,-26.91 -169.97,-127.72 -169.97,-225.14l0 -1373.16c0,-97.39 76.1,-154.57 169.97,-127.66z"/>
    <path class="fil22" d="M5672.58 10273.37l-78.47 -22.49 142.87 -381.19 90.75 26.04 143.04 463.15 -78.45 -22.49 -108.4 -366.66 -3.15 -0.9 -108.19 304.54zm2.57 -164.79l213.99 61.39 0 61.41 -213.99 -61.36 0 -61.44z"/>
    <polygon class="fil7 str4" points="6356.24,9708.77 5255.97,9393.26 5255.97,10500.64 6356.24,10816.16 "/>
    <path class="fil22" d="M5320.29 9428.26c0,11.72 -3.34,22.2 -9.61,30.14 -6.24,7.91 -15.16,12.96 -25.55,14.44 -10.43,1.48 -21.89,-0.63 -32.95,-6.08 -11.06,-5.45 -21.22,-14 -29.18,-24.56 -7.96,-10.55 -13.41,-22.65 -15.61,-34.76 -2.2,-12.12 -1.06,-23.68 3.25,-33.26 4.32,-9.58 11.62,-16.72 20.99,-20.53 9.39,-3.81 20.4,-4.13 31.67,-0.88 15.1,4.4 29.55,14.79 40.21,28.95 10.69,14.13 16.7,30.85 16.78,46.54z"/>
    <path class="fil22" d="M6413.15 9741.63c0,11.72 -3.36,22.2 -9.63,30.14 -6.27,7.94 -15.19,12.96 -25.61,14.44 -10.45,1.49 -21.91,-0.66 -33,-6.13 -11.06,-5.48 -21.22,-14.05 -29.18,-24.66 -7.94,-10.59 -13.36,-22.7 -15.5,-34.82 -2.17,-12.12 -1.01,-23.68 3.36,-33.23 4.36,-9.56 11.69,-16.67 21.11,-20.43 9.42,-3.78 20.48,-4.02 31.75,-0.71 15.05,4.39 29.5,14.79 40.11,28.91 10.64,14.13 16.59,30.86 16.59,46.49z"/>
    <path class="fil22" d="M5867.66 9585.16c0,11.72 -3.36,22.2 -9.63,30.13 -6.27,7.94 -15.19,12.97 -25.64,14.45 -10.43,1.48 -21.91,-0.66 -32.97,-6.14 -11.06,-5.48 -21.22,-14.05 -29.18,-24.66 -7.97,-10.58 -13.36,-22.7 -15.53,-34.82 -2.17,-12.11 -0.98,-23.68 3.38,-33.23 4.34,-9.55 11.7,-16.67 21.12,-20.42 9.42,-3.79 20.45,-4.03 31.75,-0.75 15.05,4.42 29.47,14.82 40.11,28.95 10.61,14.13 16.59,30.85 16.59,46.49z"/>
    <path class="fil22" d="M5320.29 10526.1c0,11.69 -3.34,22.17 -9.61,30.1 -6.24,7.94 -15.16,12.97 -25.55,14.45 -10.43,1.48 -21.89,-0.61 -32.95,-6.08 -11.06,-5.45 -21.22,-14 -29.18,-24.56 -7.96,-10.55 -13.41,-22.65 -15.61,-34.76 -2.2,-12.1 -1.06,-23.68 3.25,-33.26 4.32,-9.55 11.62,-16.72 20.99,-20.53 9.39,-3.81 20.4,-4.1 31.67,-0.88 15.1,4.34 29.6,14.71 40.29,28.87 10.69,14.18 16.7,30.93 16.7,46.65z"/>
    <path class="fil22" d="M6413.15 10839.55c0,11.72 -3.36,22.2 -9.63,30.13 -6.27,7.94 -15.19,12.97 -25.61,14.45 -10.45,1.48 -21.91,-0.66 -33,-6.14 -11.06,-5.48 -21.22,-14.05 -29.18,-24.63 -7.94,-10.61 -13.36,-22.73 -15.5,-34.85 -2.17,-12.12 -1.01,-23.68 3.36,-33.23 4.36,-9.55 11.69,-16.67 21.11,-20.42 9.42,-3.79 20.48,-4.03 31.75,-0.72 7.46,2.14 14.87,5.8 21.77,10.74 6.88,4.95 13.15,11.12 18.42,18.13 5.29,7.01 9.45,14.73 12.28,22.72 2.83,7.97 4.28,16.09 4.23,23.82z"/>
    <path class="fil22" d="M5867.61 10683.07c0,11.72 -3.36,22.2 -9.64,30.14 -6.27,7.94 -15.18,12.96 -25.63,14.44 -10.43,1.49 -21.91,-0.66 -32.97,-6.13 -11.06,-5.48 -21.22,-14.05 -29.18,-24.66 -7.97,-10.59 -13.37,-22.7 -15.54,-34.82 -2.14,-12.12 -0.97,-23.68 3.39,-33.23 4.34,-9.55 11.7,-16.67 21.12,-20.43 9.41,-3.78 20.45,-4.02 31.75,-0.71 7.46,2.14 14.86,5.79 21.77,10.74 6.88,4.95 13.15,11.11 18.42,18.12 5.26,7.01 9.44,14.74 12.27,22.7 2.83,7.99 4.26,16.09 4.24,23.84z"/>
    <path class="fil23" d="M11569.19 7029.71l-835.76 -239.64c-176.69,-50.66 -319.91,55.86 -319.91,237.92l0 816.66c0,182.06 143.22,370.71 319.91,421.37l835.76 239.66c176.66,50.65 319.88,-55.88 319.88,-237.91l0 -816.69c0,-182.06 -143.22,-370.71 -319.88,-421.37z"/>
    <line class="fil3 str5" x1="10725.65" y1="7230.6" x2="11583.19" y2= "7476.48" />
    <line class="fil3 str5" x1="10725.65" y1="7430.18" x2="11583.19" y2= "7676.06" />
    <line class="fil3 str5" x1="10725.65" y1="7630.07" x2="11583.19" y2= "7875.95" />
    <line class="fil3 str5" x1="10725.65" y1="7830.04" x2="11583.19" y2= "8075.95" />
    <path class="fil24" d="M7634.23 5286.05l2110.82 605.26c48.15,13.81 94.35,46.96 128.43,92.18 34.05,45.19 53.18,98.74 53.18,148.85l0 1548.48c0,50.03 -19.11,92.55 -53.13,118.19 -34.03,25.64 -80.14,32.3 -128.27,18.49l-2111.03 -605.34c-48.1,-13.84 -94.19,-46.96 -128.19,-92.1 -34.03,-45.11 -53.16,-98.56 -53.21,-148.62l0 -1548.71c0.05,-50 19.18,-92.47 53.21,-118.11 34,-25.61 80.09,-32.3 128.19,-18.57z"/>
    <path class="fil2" d="M8640.86 6160.71l122.87 35.21 0 460.96c0,50.54 -11.48,91.68 -34.44,123.46 -22.76,31.83 -54.77,52.62 -96.05,62.38 -41.27,9.5 -89.53,6.35 -144.72,-9.47 -55.41,-15.87 -103.75,-40.43 -145.05,-73.63 -41.27,-33.42 -73.29,-72.58 -96.04,-117.45 -22.73,-44.87 -34.11,-92.58 -34.11,-143.11l0 -460.96 122.87 35.24 0 450.27c0,29.4 6.17,57.36 18.55,83.87 12.57,26.57 30.24,49.67 52.97,69.27 22.76,19.4 49.69,33.55 80.81,42.47 31.14,8.94 58.07,10.21 80.8,3.89 22.96,-6.51 40.64,-19.48 52.99,-38.9 12.36,-19.42 18.55,-43.84 18.55,-73.23l0 -450.27zm379.26 108.74l0 705.57 -122.85 -35.25 0 -705.53 122.85 35.21z"/>
    <path class="fil25" d="M5067.35 4571.54l2105.97 603.89c48.08,13.78 94.17,46.85 128.14,91.97 34,45.08 53.08,98.5 53.08,148.51l0 1544.92c0,49.93 -19.08,92.37 -53,117.93 -33.94,25.58 -79.98,32.23 -127.98,18.47l-2106.21 -603.97c-47.97,-13.81 -93.98,-46.85 -127.9,-91.89 -33.92,-45 -53.03,-98.34 -53.08,-148.27l0 -1545.17c0.05,-49.9 19.16,-92.28 53.08,-117.84 33.92,-25.56 79.93,-32.23 127.9,-18.55z"/>
    <path class="fil26" d="M5864.09 5386.43l122.58 35.14 0 459.92c0,50.41 -11.46,91.47 -34.37,123.17 -22.68,31.75 -54.64,52.49 -95.81,62.23 -41.19,9.5 -89.32,6.35 -144.41,-9.45 -55.27,-15.85 -103.5,-40.32 -144.7,-73.45 -41.19,-33.36 -73.13,-72.41 -95.83,-117.18 -22.67,-44.79 -34.02,-92.37 -34.02,-142.8l0 -459.9 122.58 35.17 0 449.23c0,29.35 6.16,57.23 18.49,83.67 12.57,26.53 30.19,49.55 52.86,69.13 22.71,19.34 49.59,33.47 80.62,42.36 31.07,8.92 57.95,10.21 80.65,3.86 22.88,-6.48 40.51,-19.42 52.86,-38.78 12.33,-19.4 18.5,-43.74 18.5,-73.08l0 -449.24zm358.24 102.74l149.02 300.51 5.29 1.51 149.67 -214.87 139.76 40.09 -208.5 292.18 211.8 412.69 -142.08 -40.74 -150.65 -299.27 -5.29 -1.51 -150.68 212.86 -141.4 -40.54 213.76 -290.67 -211.14 -412.51 140.44 40.27z"/>
    <path class="fil27" d="M4090.11 4090.42l-2915.76 -836.05c-56.23,-16.14 -101.81,17.83 -101.81,75.88l0 1472.43c0,58.02 45.58,118.14 101.81,134.28l2915.76 836.08c56.22,16.11 101.81,-17.86 101.81,-75.91l0 -1472.43c0,-58.02 -45.59,-118.14 -101.81,-134.28z"/>
    <path class="fil28" d="M2542.96 4467.82c0,131.42 -37.76,249.08 -108.51,338.06 -70.72,89.01 -171.26,145.34 -288.9,161.9 -117.63,16.56 -247.07,-7.38 -371.95,-68.84 -124.88,-61.44 -239.58,-157.62 -329.62,-276.36 -90.03,-118.75 -151.34,-254.74 -176.18,-390.76 -24.85,-136.03 -12.09,-265.96 36.64,-373.41 48.71,-107.47 131.24,-187.59 237.1,-230.24 105.86,-42.65 230.34,-45.93 357.66,-9.42 170.73,48.95 334.49,165.92 455.21,325.15 120.73,159.22 188.55,347.69 188.55,523.92z"/>
    <path class="fil29" d="M2542.96 4467.82c0,131.42 -37.76,249.08 -108.51,338.06 -70.72,89.01 -171.26,145.34 -288.9,161.9 -117.63,16.56 -247.07,-7.38 -371.95,-68.84 -124.88,-61.44 -239.58,-157.62 -329.62,-276.36 -90.03,-118.75 -151.34,-254.74 -176.18,-390.76 -24.85,-136.03 -12.09,-265.96 36.64,-373.41 48.71,-107.47 131.24,-187.59 237.1,-230.24 105.86,-42.65 230.34,-45.93 357.66,-9.42 170.73,48.95 334.49,165.92 455.21,325.15 120.73,159.22 188.55,347.69 188.55,523.92z"/>
    <path class="fil30" d="M1904.2 4234.36c88.24,25.29 159.78,-28.18 159.78,-119.46 0,-91.28 -71.54,-185.79 -159.78,-211.09 -88.24,-25.32 -159.76,28.18 -159.76,119.46 0,91.28 71.52,185.79 159.76,211.09z"/>
    <path class="fil30" d="M2117.08 4642.45l-425.76 -122.08c-5.61,-1.61 -11.17,-4.36 -16.36,-8.12 -5.18,-3.73 -9.89,-8.39 -13.86,-13.71 -3.97,-5.32 -7.12,-11.19 -9.26,-17.25 -2.14,-6.08 -3.25,-12.25 -3.25,-18.15 0,-71.36 26.93,-132.05 74.87,-168.78 47.92,-36.69 112.95,-46.4 180.74,-26.96 33.58,9.61 66.81,26.12 97.82,48.53 31.03,22.41 59.21,50.29 82.94,82.1 23.74,31.77 42.55,66.83 55.41,103.16 12.86,36.33 19.44,73.21 19.44,108.56 0,11.9 -4.49,22.06 -12.51,28.2 -8.02,6.14 -18.87,7.75 -30.22,4.5z"/>
    <path class="fil31" d="M2736.1 4113.2l1189.25 341c24.93,7.14 45.14,33.81 45.14,59.56l0 65.56c0,25.72 -20.21,40.8 -45.14,33.63l-1189.25 -341c-24.95,-7.14 -45.16,-33.81 -45.16,-59.55l0 -65.54c0,-25.75 20.21,-40.83 45.16,-33.66z"/>
    <path class="fil32" d="M2736.1 4391.33l1189.25 341c24.93,7.14 45.14,33.81 45.14,59.56l0 65.53c0,25.75 -20.21,40.8 -45.14,33.66l-1189.25 -341c-24.95,-7.17 -45.16,-33.81 -45.16,-59.55l0 -65.57c0,-25.72 20.21,-40.8 45.16,-33.63z"/>
    <path class="fil33" d="M3915.93 5158.28l-1172.55 -336.2c-8.18,-2.36 -16.01,-7.94 -21.78,-15.56 -5.79,-7.62 -9.02,-16.64 -9.02,-25.08 -0.03,-4.21 0.74,-8.13 2.28,-11.59 1.53,-3.44 3.78,-6.33 6.66,-8.47 2.86,-2.17 6.27,-3.55 10.01,-4.1 3.75,-0.53 7.77,-0.21 11.85,0.95l1172.55 336.23c8.23,2.36 16.12,7.99 21.94,15.67 5.82,7.7 9.1,16.77 9.1,25.26 -0.08,8.45 -3.36,15.59 -9.18,19.88 -5.82,4.28 -13.68,5.37 -21.86,3.01z"/>
    <path class="fil34" d="M2743.38 4964.5l546.65 156.77c8.18,2.32 16.01,1.24 21.78,-3.07 5.77,-4.32 9.02,-11.46 9.02,-19.9 0,-8.44 -3.25,-17.46 -9.02,-25.08 -5.77,-7.62 -13.6,-13.2 -21.78,-15.56l-546.65 -156.74c-8.18,-2.35 -16.01,-1.24 -21.78,3.07 -5.79,4.31 -9.02,11.46 -9.02,19.9 -0.03,4.18 0.74,8.54 2.28,12.86 1.53,4.31 3.81,8.46 6.66,12.25 2.86,3.78 6.27,7.09 10.03,9.76 3.76,2.67 7.78,4.63 11.83,5.74z"/>
    <path class="fil3 str0" d="M1696.79 9898.56l0 490.98c0,42.02 19.85,88 55.14,127.85 35.32,39.82 83.19,70.25 133.14,84.56l3766.32 1079.98c49.92,14.34 97.81,11.37 133.14,-8.23 35.29,-19.58 55.14,-54.19 55.14,-96.2l0 -490.99"/>
    <path class="fil2" d="M1747.73 9936.55c0,10.48 -2.99,19.87 -8.6,26.96 -5.64,7.12 -13.6,11.62 -22.94,12.94 -9.34,1.32 -19.61,-0.58 -29.53,-5.5 -9.9,-4.9 -18.97,-12.57 -26.11,-22.04 -7.12,-9.48 -11.96,-20.32 -13.9,-31.17 -1.95,-10.85 -0.9,-21.22 2.99,-29.77 3.89,-8.54 10.48,-14.92 18.9,-18.31 8.41,-3.36 18.3,-3.59 28.41,-0.63 13.5,3.91 26.41,13.23 35.93,25.88 9.5,12.67 14.85,27.62 14.85,41.64z"/>
    <path class="fil2" d="M5890.57 11124.48c0,10.47 -2.99,19.87 -8.6,26.98 -5.63,7.1 -13.6,11.59 -22.94,12.92 -9.34,1.32 -19.6,-0.59 -29.5,-5.48 -9.92,-4.92 -19,-12.59 -26.14,-22.07 -7.12,-9.47 -11.96,-20.32 -13.89,-31.16 -1.96,-10.85 -0.9,-21.2 2.99,-29.74 3.89,-8.58 10.48,-14.95 18.89,-18.31 8.42,-3.39 18.31,-3.6 28.42,-0.66 13.49,3.94 26.4,13.25 35.93,25.9 9.5,12.65 14.84,27.62 14.84,41.62z"/>
    <path class="fil2" d="M3841.88 10537.13c0,10.48 -3.02,19.87 -8.63,26.96 -5.61,7.12 -13.6,11.61 -22.94,12.94 -9.34,1.32 -19.6,-0.58 -29.5,-5.51 -9.9,-4.89 -19,-12.56 -26.11,-22.04 -7.15,-9.47 -11.99,-20.32 -13.92,-31.16 -1.93,-10.85 -0.9,-21.2 2.99,-29.77 3.91,-8.55 10.48,-14.92 18.92,-18.28 8.41,-3.39 18.31,-3.63 28.39,-0.66 13.49,3.91 26.4,13.23 35.93,25.9 9.52,12.65 14.87,27.6 14.87,41.62z"/>
    <line class="fil3 str0" x1="3796.61" y1="10559.59" x2="3796.63" y2= "11149.98" />
   </g>
  </g>
  <polygon class="fil3" points="12652.15,3232.25 110.9,-363.89 110.9,13117.4 12652.15,16713.54 "/>
 </g>
</svg>
