<svg viewBox="0 0 862 720" fill="none" xmlns="http://www.w3.org/2000/svg">
<path d="M320.842 274.699V293.257C320.842 294.845 321.591 296.583 322.926 298.088C324.26 299.594 326.07 300.744 327.957 301.285L458.51 338.72C460.397 339.261 462.207 339.149 463.541 338.409C464.875 337.669 465.625 336.361 465.625 334.773V316.215" stroke="#5ABD70" stroke-miterlimit="10"></path>
<path d="M322.767 276.139C322.767 276.535 322.654 276.89 322.441 277.158C322.229 277.427 321.927 277.597 321.574 277.647C321.222 277.697 320.833 277.625 320.459 277.439C320.085 277.254 319.741 276.964 319.472 276.606C319.202 276.248 319.02 275.838 318.946 275.428C318.873 275.018 318.912 274.627 319.06 274.303C319.207 273.98 319.455 273.739 319.774 273.612C320.092 273.484 320.466 273.475 320.847 273.587C321.357 273.735 321.846 274.087 322.205 274.566C322.565 275.044 322.767 275.61 322.767 276.139Z" fill="#5ABD70"></path>
<path d="M642.07 389.602V408.159C642.07 409.747 641.321 411.055 639.986 411.795C638.652 412.536 636.842 412.648 634.955 412.106L504.402 374.671C502.515 374.13 500.705 372.98 499.371 371.475C498.037 369.969 497.287 368.231 497.287 366.643V348.086" stroke="#5ABD70" stroke-miterlimit="10"></path>
<path d="M640.145 389.935C640.145 390.331 640.259 390.751 640.471 391.141C640.683 391.531 640.985 391.874 641.338 392.127C641.691 392.379 642.079 392.53 642.453 392.559C642.827 392.588 643.171 392.495 643.44 392.292C643.71 392.088 643.893 391.783 643.966 391.415C644.039 391.047 644 390.633 643.853 390.225C643.705 389.818 643.457 389.434 643.138 389.124C642.82 388.814 642.446 388.591 642.065 388.484C641.555 388.34 641.067 388.412 640.707 388.684C640.347 388.956 640.145 389.406 640.145 389.935Z" fill="#5ABD70"></path>
<mask id="mask0_2615_70825" style="mask-type:luminance" maskUnits="userSpaceOnUse" x="190" y="64" width="474" height="646">
<path d="M664 199.917L190 64V573.529L664 709.446V199.917Z" fill="white"></path>
</mask>
<g mask="url(#mask0_2615_70825)">
<path d="M580.652 586.036L401.108 534.552C397.025 533.381 393.771 527.124 393.771 520.596V204.587C393.771 198.045 397.066 193.679 401.108 194.838L580.652 246.321C584.736 247.492 587.975 253.732 587.975 260.274V576.283C588.03 582.841 584.736 587.207 580.652 586.036Z" fill="url(#paint0_linear_2615_70825)"></path>
<path d="M519.417 240.401L461.334 223.746V227.527L519.417 244.182V240.401Z" fill="url(#paint1_linear_2615_70825)"></path>
<g opacity="0.8">
<path d="M313.893 383.16L261.448 368.121C257.528 366.997 254.35 369.385 254.35 373.454V427.891C254.35 431.96 257.528 436.17 261.448 437.294L313.893 452.332C317.813 453.457 320.991 451.069 320.991 447V392.563C320.991 388.494 317.813 384.284 313.893 383.16Z" fill="url(#paint2_linear_2615_70825)"></path>
<path d="M261.448 368.621L313.893 383.66C317.549 384.708 320.511 388.633 320.511 392.425V446.862C320.511 450.654 317.549 452.881 313.893 451.832L261.448 436.794C257.792 435.746 254.83 431.82 254.83 428.028V373.592C254.83 369.8 257.792 367.573 261.448 368.621Z" stroke="#5ABD70" stroke-opacity="0.4"></path>
</g>
<path d="M262.928 420.984L280.426 396.994L302.609 432.274L262.928 420.984Z" fill="url(#paint3_linear_2615_70825)"></path>
<path d="M276.871 424.98L296.861 407.283L311.19 434.695L276.871 424.98Z" fill="url(#paint4_linear_2615_70825)"></path>
<path d="M291.957 395.384C294.486 396.109 296.536 394.569 296.536 391.944C296.536 389.32 294.486 386.604 291.957 385.879C289.429 385.154 287.379 386.694 287.379 389.319C287.379 391.943 289.429 394.659 291.957 395.384Z" fill="url(#paint5_linear_2615_70825)"></path>
<path d="M615.549 467.81L542.901 446.979C539.09 445.886 536 448.214 536 452.179V517.644C536 521.609 539.09 525.71 542.901 526.803L615.549 547.634C619.361 548.727 622.45 546.399 622.45 542.433V476.969C622.45 473.004 619.361 468.903 615.549 467.81Z" fill="url(#paint6_linear_2615_70825)"></path>
<path d="M601.329 484.989L552.625 471.023" stroke="white" stroke-width="2.79231" stroke-miterlimit="10" stroke-linecap="round"></path>
<path d="M601.329 494.317L552.625 480.352" stroke="white" stroke-width="2.79231" stroke-miterlimit="10" stroke-linecap="round"></path>
<path d="M601.329 503.641L552.625 489.676" stroke="white" stroke-width="2.79231" stroke-miterlimit="10" stroke-linecap="round"></path>
<path d="M601.329 512.973L552.625 499.008" stroke="white" stroke-width="2.79231" stroke-miterlimit="10" stroke-linecap="round"></path>
<path d="M579.849 516.127L552.625 508.32" stroke="white" stroke-width="2.79231" stroke-miterlimit="10" stroke-linecap="round"></path>
<path d="M554.163 376.191L528.913 368.951C523.575 367.42 519.248 370.681 519.248 376.234V401.142C519.248 406.695 523.575 412.437 528.913 413.968L554.163 421.208C559.501 422.739 563.828 419.478 563.828 413.925V389.017C563.828 383.464 559.501 377.722 554.163 376.191Z" fill="#EBEBEA" fill-opacity="0.1"></path>
<path fill-rule="evenodd" clip-rule="evenodd" d="M541.772 394.952C544.734 395.801 547.135 393.992 547.135 390.911C547.135 387.831 544.734 384.645 541.772 383.795C538.811 382.946 536.41 384.755 536.41 387.836C536.41 390.917 538.811 394.103 541.772 394.952ZM535.1 397.042C536.928 395.778 539.364 395.516 541.873 396.313C544.382 396.955 546.818 398.614 548.646 400.927C550.475 403.24 551.547 406.017 551.627 408.65L532.119 403.056C532.199 400.469 533.271 398.307 535.1 397.042Z" fill="url(#paint7_linear_2615_70825)"></path>
<path d="M451.206 346.668L425.956 339.428C420.618 337.897 416.291 341.158 416.291 346.71V371.619C416.291 377.172 420.618 382.914 425.956 384.444L451.206 391.685C456.544 393.215 460.871 389.955 460.871 384.402V359.493C460.871 353.941 456.544 348.199 451.206 346.668Z" fill="#EBEBEA" fill-opacity="0.1"></path>
<path fill-rule="evenodd" clip-rule="evenodd" d="M433.426 360.005L435.382 360.566L435.322 356.82C435.326 356.105 435.601 355.499 436.088 355.132C436.574 354.766 437.233 354.669 437.921 354.862L439.056 355.187C439.744 355.389 440.402 355.864 440.889 356.509C441.375 357.155 441.65 357.919 441.654 358.635L443.596 359.192C443.596 357.956 443.124 356.635 442.284 355.52C441.443 354.405 440.304 353.588 439.116 353.247L437.981 352.921C436.785 352.578 435.638 352.738 434.786 353.366C433.934 353.993 433.445 355.038 433.426 356.276V360.005ZM434.202 361.063L442.73 363.508C444.231 363.938 445.448 365.553 445.448 367.115V375.986C445.448 377.547 444.231 378.464 442.73 378.034L434.202 375.589C432.701 375.158 431.484 373.543 431.484 371.982V363.111C431.484 361.549 432.701 360.632 434.202 361.063Z" fill="url(#paint8_linear_2615_70825)"></path>
<path d="M502.685 361.43L477.434 354.189C472.097 352.659 467.77 355.919 467.77 361.472V386.381C467.77 391.933 472.097 397.675 477.434 399.206L502.685 406.446C508.022 407.977 512.349 404.716 512.349 399.164V374.255C512.349 368.702 508.022 362.96 502.685 361.43Z" fill="#EBEBEA" fill-opacity="0.1"></path>
<path fill-rule="evenodd" clip-rule="evenodd" d="M481.88 376.701C481.88 373.201 484.607 371.145 487.972 372.11C491.336 373.075 494.064 376.694 494.064 380.195C494.064 383.695 491.336 385.75 487.972 384.785C484.607 383.821 481.88 380.201 481.88 376.701ZM487.972 369.572C483.259 368.22 479.439 371.099 479.439 376.001C479.439 380.903 483.259 385.973 487.972 387.324C492.684 388.675 496.504 385.797 496.504 380.894C496.504 375.992 492.684 370.923 487.972 369.572ZM493.428 388.511L498.697 395.503L500.422 394.203L495.153 387.211L493.428 388.511Z" fill="url(#paint9_linear_2615_70825)"></path>
<g opacity="0.8">
<path d="M391.258 405.343L338.813 390.305C334.893 389.181 331.715 391.568 331.715 395.637V450.074C331.715 454.143 334.893 458.353 338.813 459.478L391.258 474.516C395.179 475.64 398.357 473.253 398.357 469.183V414.747C398.357 410.677 395.179 406.467 391.258 405.343Z" fill="url(#paint10_linear_2615_70825)"></path>
<path d="M338.813 390.805L391.258 405.843C394.914 406.892 397.876 410.817 397.876 414.609V469.046C397.876 472.838 394.914 475.064 391.258 474.016L338.813 458.978C335.157 457.929 332.195 454.004 332.195 450.212V395.775C332.195 391.983 335.157 389.757 338.813 390.805Z" stroke="#5ABD70" stroke-opacity="0.4"></path>
</g>
<path d="M375.209 442.223C372.355 445.133 368.84 447.214 364.866 448.345C360.882 444.937 357.358 440.837 354.498 436.284C350.193 429.299 349.363 417.912 357.352 419.478C361.52 420.294 364.608 425.534 364.85 425.94C365.051 425.696 368.155 422.205 372.347 423.778C380.337 426.837 379.49 437.7 375.209 442.223Z" fill="url(#paint11_linear_2615_70825)"></path>
<path d="M615.773 224.271L535.338 201.207V275.958L615.773 299.023V224.271Z" stroke="#5ABD70" stroke-width="1.26923" stroke-miterlimit="10" stroke-linecap="round"></path>
<path d="M417.773 186.422L376.419 174.564C369.435 172.561 363.773 176.827 363.773 184.093C363.773 191.358 369.435 198.871 376.419 200.874L417.773 212.732C424.757 214.735 430.418 210.468 430.418 203.203C430.418 195.937 424.757 188.424 417.773 186.422Z" fill="url(#paint12_linear_2615_70825)"></path>
<path d="M378.038 191.81C380.158 192.418 381.876 191.123 381.876 188.917C381.876 186.712 380.158 184.431 378.038 183.823C375.918 183.215 374.199 184.511 374.199 186.716C374.199 188.921 375.918 191.202 378.038 191.81Z" fill="white" fill-opacity="0.6"></path>
<path d="M397.096 197.275C399.216 197.883 400.935 196.588 400.935 194.382C400.935 192.177 399.216 189.896 397.096 189.288C394.976 188.68 393.258 189.975 393.258 192.181C393.258 194.386 394.976 196.667 397.096 197.275Z" fill="white" fill-opacity="0.6"></path>
<path d="M420.24 199.913C420.242 200.707 420.019 201.419 419.597 201.959C419.175 202.499 418.575 202.843 417.871 202.947C417.167 203.05 416.392 202.91 415.644 202.542C414.896 202.175 414.208 201.597 413.668 200.882C413.128 200.167 412.76 199.348 412.61 198.527C412.46 197.706 412.536 196.921 412.827 196.272C413.118 195.622 413.612 195.137 414.246 194.878C414.88 194.619 415.625 194.597 416.387 194.816C417.407 195.108 418.384 195.808 419.106 196.764C419.829 197.72 420.236 198.852 420.24 199.913Z" fill="url(#paint13_linear_2615_70825)"></path>
<path d="M465.849 428.965L415.849 414.628C412.112 413.556 409.082 415.832 409.082 419.712V471.611C409.082 475.49 412.112 479.504 415.849 480.576L465.849 494.913C469.587 495.985 472.617 493.708 472.617 489.829V437.93C472.617 434.051 469.587 430.037 465.849 428.965Z" fill="url(#paint14_linear_2615_70825)"></path>
<path d="M415.849 414.985L465.849 429.323C469.398 430.34 472.273 434.15 472.273 437.832V489.73C472.273 493.412 469.398 495.573 465.849 494.555L415.849 480.218C412.301 479.201 409.425 475.391 409.425 471.709V419.81C409.425 416.129 412.301 413.968 415.849 414.985Z" stroke="#5ABD70" stroke-opacity="0.4" stroke-width="0.714609"></path>
<path d="M435.715 459.463L432.749 458.613L438.149 444.206L441.579 445.19L446.985 462.695L444.02 461.845L439.923 447.987L439.804 447.953L435.715 459.463ZM435.812 453.235L443.9 455.555V457.876L435.812 455.557V453.235Z" fill="#5ABD70"></path>
<path d="M461.554 438.124L419.969 426.199V468.053L461.554 479.978V438.124Z" stroke="#5ABD70" stroke-width="0.357304" stroke-miterlimit="10"></path>
<path d="M422.4 427.522C422.4 427.965 422.274 428.361 422.037 428.661C421.801 428.96 421.464 429.151 421.071 429.207C420.677 429.263 420.244 429.183 419.826 428.977C419.408 428.771 419.024 428.448 418.723 428.049C418.422 427.65 418.216 427.193 418.133 426.735C418.05 426.277 418.093 425.84 418.256 425.478C418.419 425.116 418.695 424.846 419.049 424.702C419.404 424.558 419.82 424.546 420.246 424.669C420.817 424.835 421.363 425.228 421.766 425.763C422.17 426.297 422.397 426.929 422.4 427.522Z" fill="#5ABD70"></path>
<path d="M463.705 439.366C463.705 439.809 463.578 440.205 463.341 440.505C463.104 440.805 462.767 440.995 462.373 441.051C461.978 441.107 461.545 441.026 461.126 440.819C460.708 440.612 460.324 440.288 460.023 439.887C459.723 439.487 459.518 439.029 459.437 438.571C459.355 438.113 459.399 437.676 459.564 437.315C459.729 436.954 460.006 436.685 460.362 436.543C460.718 436.4 461.136 436.391 461.562 436.516C462.131 436.682 462.677 437.075 463.078 437.609C463.48 438.143 463.705 438.775 463.705 439.366Z" fill="#5ABD70"></path>
<path d="M443.088 433.452C443.088 433.895 442.961 434.291 442.724 434.591C442.487 434.891 442.15 435.081 441.755 435.137C441.361 435.193 440.927 435.112 440.509 434.905C440.091 434.698 439.707 434.374 439.406 433.973C439.105 433.573 438.901 433.115 438.819 432.657C438.737 432.199 438.782 431.762 438.947 431.401C439.111 431.04 439.389 430.771 439.745 430.629C440.101 430.486 440.518 430.477 440.945 430.601C441.514 430.768 442.059 431.161 442.461 431.695C442.862 432.229 443.088 432.861 443.088 433.452Z" fill="#5ABD70"></path>
<path d="M422.4 469.015C422.4 469.457 422.274 469.853 422.037 470.153C421.801 470.453 421.464 470.643 421.071 470.699C420.677 470.755 420.244 470.676 419.826 470.469C419.408 470.263 419.024 469.94 418.723 469.541C418.422 469.142 418.216 468.685 418.133 468.227C418.05 467.77 418.093 467.332 418.256 466.97C418.419 466.609 418.695 466.338 419.049 466.194C419.404 466.05 419.82 466.039 420.246 466.161C420.817 466.325 421.365 466.717 421.769 467.252C422.173 467.788 422.4 468.421 422.4 469.015Z" fill="#5ABD70"></path>
<path d="M463.705 480.862C463.705 481.305 463.578 481.701 463.341 482.001C463.104 482.301 462.767 482.491 462.373 482.547C461.978 482.603 461.545 482.522 461.126 482.315C460.708 482.108 460.324 481.784 460.023 481.384C459.723 480.983 459.518 480.525 459.437 480.067C459.355 479.609 459.399 479.172 459.564 478.811C459.729 478.45 460.006 478.181 460.362 478.039C460.718 477.896 461.136 477.887 461.562 478.012C461.844 478.093 462.124 478.231 462.385 478.418C462.645 478.605 462.882 478.838 463.081 479.103C463.281 479.368 463.438 479.66 463.545 479.962C463.652 480.263 463.707 480.57 463.705 480.862Z" fill="#5ABD70"></path>
<path d="M443.086 474.948C443.086 475.391 442.959 475.787 442.722 476.087C442.485 476.387 442.148 476.577 441.753 476.633C441.359 476.689 440.925 476.608 440.507 476.401C440.089 476.194 439.705 475.87 439.404 475.469C439.103 475.069 438.899 474.611 438.817 474.153C438.736 473.695 438.78 473.258 438.945 472.897C439.109 472.536 439.387 472.267 439.743 472.125C440.099 471.982 440.516 471.973 440.943 472.098C441.225 472.179 441.505 472.317 441.766 472.504C442.026 472.691 442.263 472.924 442.462 473.189C442.661 473.454 442.819 473.746 442.926 474.047C443.033 474.349 443.087 474.655 443.086 474.948Z" fill="#5ABD70"></path>
</g>
<path d="M658.579 336.868L626.991 327.811C620.313 325.896 614.9 329.922 614.9 336.803V367.669C614.9 374.55 620.313 381.68 626.991 383.595L658.579 392.653C665.256 394.567 670.669 390.541 670.669 383.661V352.794C670.669 345.913 665.256 338.783 658.579 336.868Z" fill="#EBEBEA" fill-opacity="0.1"></path>
<path d="M626.697 344.461L659.108 353.754" stroke="#5ABD70" stroke-width="2.79231" stroke-miterlimit="10" stroke-linecap="round"></path>
<path d="M626.697 352.004L659.108 361.297" stroke="#5ABD70" stroke-width="2.79231" stroke-miterlimit="10" stroke-linecap="round"></path>
<path d="M626.697 359.559L659.108 368.852" stroke="#5ABD70" stroke-width="2.79231" stroke-miterlimit="10" stroke-linecap="round"></path>
<path d="M626.697 367.117L659.108 376.411" stroke="#5ABD70" stroke-width="2.79231" stroke-miterlimit="10" stroke-linecap="round"></path>
<path d="M509.856 270.966L589.635 293.842C591.455 294.364 593.201 295.617 594.489 297.326C595.776 299.034 596.499 301.058 596.499 302.952V361.477C596.499 363.368 595.777 364.975 594.491 365.944C593.205 366.913 591.462 367.165 589.643 366.643L509.856 343.764C508.038 343.241 506.296 341.989 505.011 340.283C503.725 338.578 503.002 336.558 503 334.666V276.132C503.002 274.242 503.725 272.637 505.011 271.668C506.296 270.7 508.038 270.447 509.856 270.966Z" fill="url(#paint15_linear_2615_70825)" fill-opacity="0.6"></path>
<path d="M547.902 304.024L552.546 305.355V322.777C552.546 324.687 552.112 326.242 551.244 327.443C550.384 328.646 549.174 329.432 547.614 329.801C546.054 330.16 544.23 330.041 542.144 329.443C540.05 328.843 538.223 327.915 536.662 326.66C535.102 325.397 533.892 323.917 533.032 322.221C532.173 320.525 531.743 318.722 531.743 316.812V299.39L536.387 300.722V317.74C536.387 318.851 536.62 319.908 537.088 320.91C537.563 321.914 538.231 322.787 539.09 323.528C539.95 324.261 540.968 324.796 542.144 325.133C543.321 325.471 544.339 325.519 545.198 325.28C546.066 325.034 546.734 324.544 547.201 323.81C547.668 323.076 547.902 322.153 547.902 321.042V304.024ZM562.236 308.134V334.801L557.593 333.469V306.803L562.236 308.134Z" fill="#5ABD70"></path>
<path d="M412.84 243.961L492.436 266.785C494.253 267.306 495.995 268.556 497.279 270.261C498.564 271.965 499.285 273.984 499.285 275.874V334.265C499.285 336.152 498.564 337.756 497.282 338.722C495.999 339.689 494.259 339.94 492.445 339.42L412.84 316.593C411.027 316.071 409.288 314.822 408.006 313.12C406.724 311.419 406.002 309.403 406 307.516V249.116C406.002 247.23 406.724 245.628 408.006 244.662C409.288 243.696 411.027 243.444 412.84 243.961Z" fill="url(#paint16_linear_2615_70825)" fill-opacity="0.6"></path>
<path d="M442.953 274.76L447.586 276.088V293.471C447.586 295.376 447.153 296.928 446.287 298.126C445.43 299.326 444.222 300.11 442.666 300.478C441.109 300.837 439.29 300.718 437.208 300.121C435.119 299.522 433.296 298.597 431.739 297.345C430.182 296.084 428.975 294.608 428.117 292.916C427.26 291.223 426.831 289.425 426.831 287.519V270.137L431.464 271.466V288.445C431.464 289.554 431.697 290.608 432.163 291.607C432.638 292.61 433.304 293.48 434.161 294.22C435.019 294.951 436.035 295.485 437.208 295.821C438.382 296.158 439.398 296.207 440.256 295.967C441.121 295.722 441.787 295.233 442.254 294.501C442.72 293.768 442.953 292.848 442.953 291.739V274.76ZM456.493 278.643L462.125 290.001L462.325 290.058L467.982 281.937L473.264 283.452L465.384 294.495L473.389 310.093L468.019 308.553L462.325 297.242L462.125 297.185L456.43 305.23L451.086 303.698L459.165 292.712L451.185 277.121L456.493 278.643Z" fill="#5ABD70"></path>
<path d="M375.905 225.777L265.703 194.178C263.578 193.568 261.855 194.852 261.855 197.046V252.697C261.855 254.89 263.578 257.162 265.703 257.772L375.905 289.372C378.03 289.981 379.753 288.697 379.753 286.503V230.852C379.753 228.659 378.03 226.387 375.905 225.777Z" fill="url(#paint17_linear_2615_70825)"></path>
<path d="M317.43 240.041C317.43 245.008 316.003 249.455 313.329 252.818C310.656 256.182 306.856 258.311 302.41 258.937C297.964 259.563 293.072 258.658 288.352 256.335C283.632 254.013 279.297 250.378 275.894 245.89C272.491 241.402 270.174 236.262 269.235 231.121C268.296 225.98 268.778 221.069 270.62 217.008C272.461 212.946 275.58 209.918 279.581 208.306C283.582 206.694 288.287 206.57 293.099 207.95C299.552 209.8 305.741 214.221 310.304 220.239C314.867 226.257 317.43 233.38 317.43 240.041Z" fill="url(#paint18_linear_2615_70825)"></path>
<path d="M317.43 240.041C317.43 245.008 316.003 249.455 313.329 252.818C310.656 256.182 306.856 258.311 302.41 258.937C297.964 259.563 293.072 258.658 288.352 256.335C283.632 254.013 279.297 250.378 275.894 245.89C272.491 241.402 270.174 236.262 269.235 231.121C268.296 225.98 268.778 221.069 270.62 217.008C272.461 212.946 275.58 209.918 279.581 208.306C283.582 206.694 288.287 206.57 293.099 207.95C299.552 209.8 305.741 214.221 310.304 220.239C314.867 226.257 317.43 233.38 317.43 240.041Z" fill="url(#paint19_linear_2615_70825)"></path>
<path opacity="0.3" d="M293.288 231.217C296.623 232.173 299.327 230.152 299.327 226.702C299.327 223.252 296.623 219.68 293.288 218.724C289.953 217.767 287.25 219.789 287.25 223.239C287.25 226.689 289.953 230.261 293.288 231.217Z" fill="white"></path>
<path opacity="0.3" d="M301.334 246.641L285.242 242.027C285.03 241.966 284.82 241.862 284.624 241.72C284.428 241.579 284.25 241.403 284.1 241.202C283.95 241.001 283.831 240.779 283.75 240.55C283.669 240.32 283.627 240.087 283.627 239.864C283.627 237.167 284.645 234.873 286.457 233.485C288.268 232.098 290.726 231.731 293.288 232.466C294.557 232.829 295.813 233.453 296.985 234.3C298.158 235.147 299.223 236.201 300.12 237.403C301.017 238.604 301.728 239.929 302.214 241.302C302.7 242.675 302.949 244.069 302.949 245.405C302.949 245.855 302.779 246.239 302.476 246.471C302.173 246.703 301.763 246.764 301.334 246.641Z" fill="white"></path>
<path d="M324.73 226.638L369.678 239.526C370.62 239.796 371.384 240.804 371.384 241.777V244.255C371.384 245.227 370.62 245.797 369.678 245.526L324.73 232.638C323.787 232.368 323.023 231.36 323.023 230.387V227.91C323.023 226.937 323.787 226.367 324.73 226.638Z" fill="url(#paint20_linear_2615_70825)"></path>
<path d="M324.73 237.15L369.678 250.038C370.62 250.308 371.384 251.316 371.384 252.289V254.766C371.384 255.739 370.62 256.308 369.678 256.038L324.73 243.15C323.787 242.879 323.023 241.872 323.023 240.899V238.421C323.023 237.449 323.787 236.879 324.73 237.15Z" fill="url(#paint21_linear_2615_70825)"></path>
<path d="M369.322 266.137L325.005 253.43C324.696 253.341 324.4 253.13 324.182 252.842C323.963 252.554 323.841 252.213 323.841 251.894C323.84 251.735 323.869 251.587 323.927 251.456C323.985 251.326 324.07 251.217 324.179 251.136C324.287 251.054 324.416 251.002 324.557 250.981C324.699 250.961 324.851 250.973 325.005 251.017L369.322 263.725C369.633 263.814 369.931 264.027 370.151 264.317C370.371 264.608 370.495 264.951 370.495 265.272C370.492 265.591 370.368 265.861 370.148 266.023C369.928 266.185 369.631 266.226 369.322 266.137Z" fill="url(#paint22_linear_2615_70825)"></path>
<path d="M325.005 258.813L345.666 264.738C345.975 264.826 346.271 264.785 346.489 264.622C346.707 264.459 346.83 264.189 346.83 263.87C346.83 263.551 346.707 263.21 346.489 262.922C346.271 262.634 345.975 262.423 345.666 262.334L325.005 256.41C324.696 256.321 324.4 256.363 324.182 256.526C323.963 256.689 323.841 256.959 323.841 257.278C323.84 257.436 323.869 257.601 323.927 257.764C323.985 257.927 324.071 258.084 324.179 258.227C324.287 258.37 324.416 258.495 324.558 258.596C324.7 258.697 324.852 258.771 325.005 258.813Z" fill="url(#paint23_linear_2615_70825)"></path>
<path d="M285.449 445.297V463.854C285.449 465.442 286.199 467.18 287.533 468.686C288.868 470.191 290.677 471.341 292.565 471.882L434.914 512.7C436.801 513.242 438.611 513.13 439.946 512.389C441.28 511.649 442.03 510.341 442.03 508.753V490.196" stroke="#5ABD70" stroke-miterlimit="10"></path>
<path d="M287.374 446.733C287.374 447.129 287.261 447.484 287.049 447.752C286.836 448.021 286.535 448.191 286.182 448.241C285.829 448.291 285.441 448.219 285.066 448.033C284.692 447.848 284.349 447.558 284.079 447.2C283.81 446.842 283.627 446.432 283.554 446.022C283.48 445.612 283.52 445.22 283.667 444.897C283.814 444.574 284.063 444.333 284.381 444.205C284.699 444.078 285.073 444.069 285.455 444.181C285.965 444.329 286.453 444.681 286.813 445.159C287.172 445.638 287.374 446.203 287.374 446.733Z" fill="#5ABD70"></path>
<path d="M443.954 491.631C443.954 492.027 443.841 492.382 443.629 492.651C443.416 492.919 443.115 493.089 442.762 493.139C442.409 493.189 442.021 493.117 441.647 492.932C441.272 492.746 440.929 492.456 440.659 492.098C440.39 491.74 440.207 491.33 440.134 490.92C440.06 490.51 440.1 490.119 440.247 489.796C440.394 489.472 440.643 489.231 440.961 489.104C441.279 488.976 441.653 488.968 442.035 489.079C442.545 489.228 443.033 489.58 443.393 490.058C443.752 490.536 443.954 491.102 443.954 491.631Z" fill="#5ABD70"></path>
<path d="M366.523 469.432C366.523 469.828 366.409 470.183 366.197 470.451C365.985 470.72 365.683 470.89 365.33 470.94C364.977 470.99 364.589 470.918 364.215 470.732C363.841 470.547 363.497 470.257 363.228 469.899C362.958 469.541 362.775 469.131 362.702 468.721C362.629 468.311 362.668 467.92 362.815 467.596C362.963 467.273 363.211 467.032 363.53 466.905C363.848 466.777 364.222 466.768 364.603 466.88C365.113 467.028 365.601 467.38 365.961 467.859C366.321 468.337 366.523 468.902 366.523 469.432Z" fill="#5ABD70"></path>
<path d="M364.812 470.281L364.813 492.595" stroke="#5ABD70"></path>
<defs>
<linearGradient id="paint0_linear_2615_70825" x1="450.32" y1="547.233" x2="601.206" y2="271.838" gradientUnits="userSpaceOnUse">
<stop stop-color="#161716"></stop>
<stop offset="1" stop-color="#8B8B8B"></stop>
</linearGradient>
<linearGradient id="paint1_linear_2615_70825" x1="482.324" y1="246.149" x2="501.526" y2="224.516" gradientUnits="userSpaceOnUse">
<stop stop-color="#1B1B1B"></stop>
<stop offset="0.33" stop-color="#121212"></stop>
<stop offset="1" stop-color="#020202"></stop>
</linearGradient>
<linearGradient id="paint2_linear_2615_70825" x1="288.386" y1="352.686" x2="262.234" y2="439.812" gradientUnits="userSpaceOnUse">
<stop stop-color="#575958"></stop>
<stop offset="1" stop-color="#1C1E1C"></stop>
</linearGradient>
<linearGradient id="paint3_linear_2615_70825" x1="262.928" y1="406.476" x2="302.609" y2="406.476" gradientUnits="userSpaceOnUse">
<stop stop-color="#5ABD70"></stop>
<stop offset="1" stop-color="#3D9250"></stop>
</linearGradient>
<linearGradient id="paint4_linear_2615_70825" x1="276.871" y1="413.266" x2="311.19" y2="413.266" gradientUnits="userSpaceOnUse">
<stop stop-color="#74D389"></stop>
<stop offset="1" stop-color="#5ABD70"></stop>
</linearGradient>
<linearGradient id="paint5_linear_2615_70825" x1="287.379" y1="389.319" x2="296.548" y2="389.319" gradientUnits="userSpaceOnUse">
<stop stop-color="#76D88B"></stop>
<stop offset="1" stop-color="#5ABD70"></stop>
</linearGradient>
<linearGradient id="paint6_linear_2615_70825" x1="579.856" y1="541.395" x2="604.814" y2="465.953" gradientUnits="userSpaceOnUse">
<stop stop-color="#368B49"></stop>
<stop offset="1" stop-color="#88E29C"></stop>
</linearGradient>
<linearGradient id="paint7_linear_2615_70825" x1="539.756" y1="381.569" x2="536.86" y2="407.697" gradientUnits="userSpaceOnUse">
<stop stop-color="#5ABD70"></stop>
<stop offset="1" stop-color="#429956"></stop>
</linearGradient>
<linearGradient id="paint8_linear_2615_70825" x1="436.95" y1="352.08" x2="436.014" y2="379.188" gradientUnits="userSpaceOnUse">
<stop stop-color="#5ABD70"></stop>
<stop offset="1" stop-color="#429956"></stop>
</linearGradient>
<linearGradient id="paint9_linear_2615_70825" x1="481.74" y1="369.042" x2="501.41" y2="396.253" gradientUnits="userSpaceOnUse">
<stop stop-color="#5ABD70"></stop>
<stop offset="1" stop-color="#449E58"></stop>
</linearGradient>
<linearGradient id="paint10_linear_2615_70825" x1="365.751" y1="374.869" x2="339.599" y2="461.996" gradientUnits="userSpaceOnUse">
<stop stop-color="#575958"></stop>
<stop offset="1" stop-color="#1C1E1C"></stop>
</linearGradient>
<linearGradient id="paint11_linear_2615_70825" x1="355.62" y1="419.174" x2="367.39" y2="451.131" gradientUnits="userSpaceOnUse">
<stop stop-color="#5ABD70"></stop>
<stop offset="1" stop-color="#327541"></stop>
</linearGradient>
<linearGradient id="paint12_linear_2615_70825" x1="408.584" y1="217.659" x2="392.8" y2="167.384" gradientUnits="userSpaceOnUse">
<stop stop-color="#5ABD70"></stop>
<stop offset="1" stop-color="#86DD99"></stop>
</linearGradient>
<linearGradient id="paint13_linear_2615_70825" x1="412.549" y1="197.708" x2="420.24" y2="197.708" gradientUnits="userSpaceOnUse">
<stop stop-color="#1B1B1B"></stop>
<stop offset="0.33" stop-color="#121212"></stop>
<stop offset="1" stop-color="#020202"></stop>
</linearGradient>
<linearGradient id="paint14_linear_2615_70825" x1="441.532" y1="399.912" x2="416.599" y2="482.976" gradientUnits="userSpaceOnUse">
<stop stop-color="#575958"></stop>
<stop offset="1" stop-color="#1C1E1C"></stop>
</linearGradient>
<linearGradient id="paint15_linear_2615_70825" x1="550.754" y1="258.319" x2="523.488" y2="350.181" gradientUnits="userSpaceOnUse">
<stop stop-color="#575958"></stop>
<stop offset="1" stop-color="#1C1E1C"></stop>
</linearGradient>
<linearGradient id="paint16_linear_2615_70825" x1="453.644" y1="231.344" x2="426.441" y2="322.995" gradientUnits="userSpaceOnUse">
<stop stop-color="#575958"></stop>
<stop offset="1" stop-color="#1C1E1C"></stop>
</linearGradient>
<linearGradient id="paint17_linear_2615_70825" x1="322.07" y1="189.048" x2="298.46" y2="269.431" gradientUnits="userSpaceOnUse">
<stop stop-color="#575958"></stop>
<stop offset="1" stop-color="#1C1E1C"></stop>
</linearGradient>
<linearGradient id="paint18_linear_2615_70825" x1="293.659" y1="207.972" x2="272.624" y2="275.785" gradientUnits="userSpaceOnUse">
<stop stop-color="#F68E69"></stop>
<stop offset="1" stop-color="#E52E5F"></stop>
</linearGradient>
<linearGradient id="paint19_linear_2615_70825" x1="276.546" y1="203.608" x2="300.029" y2="262.414" gradientUnits="userSpaceOnUse">
<stop stop-color="#5ABD70"></stop>
<stop offset="1" stop-color="#327541"></stop>
</linearGradient>
<linearGradient id="paint20_linear_2615_70825" x1="325.294" y1="220.394" x2="318.739" y2="230.189" gradientUnits="userSpaceOnUse">
<stop stop-color="#5ABD70"></stop>
<stop offset="1" stop-color="#419E55"></stop>
</linearGradient>
<linearGradient id="paint21_linear_2615_70825" x1="325.294" y1="220.394" x2="318.739" y2="230.189" gradientUnits="userSpaceOnUse">
<stop stop-color="#5ABD70"></stop>
<stop offset="1" stop-color="#419E55"></stop>
</linearGradient>
<linearGradient id="paint22_linear_2615_70825" x1="325.294" y1="220.394" x2="318.739" y2="230.189" gradientUnits="userSpaceOnUse">
<stop stop-color="#5ABD70"></stop>
<stop offset="1" stop-color="#419E55"></stop>
</linearGradient>
<linearGradient id="paint23_linear_2615_70825" x1="325.294" y1="220.394" x2="318.739" y2="230.189" gradientUnits="userSpaceOnUse">
<stop stop-color="#5ABD70"></stop>
<stop offset="1" stop-color="#419E55"></stop>
</linearGradient>
</defs>
</svg>