<svg viewBox="0 0 862 720" fill="none" xmlns="http://www.w3.org/2000/svg">
<g clip-path="url(#clip0_2615_70918)">
<path d="M552 336.211L656.433 273.462L656.433 228.539" stroke="#5ABD70" stroke-width="2"></path>
<rect width="76.0452" height="76.0452" rx="38.0226" transform="matrix(0.920505 -0.390731 0 1 615 196.715)" fill="url(#paint0_linear_2615_70918)"></rect>
<g clip-path="url(#clip1_2615_70918)">
<path d="M659.282 204.476C656.41 205.695 653.981 208.182 652.214 210.873L644.703 208.238C645.145 207.079 645.366 206.015 645.366 205.044C645.145 201.256 642.274 199.32 638.74 200.82C635.205 202.32 632.334 206.694 632.334 210.576C632.334 214.459 635.205 216.394 638.74 214.894C640.507 214.144 642.053 212.76 643.157 211.078L650.667 213.714C650.226 215.357 649.784 217.243 649.784 218.942C649.784 221.368 650.667 223.42 651.993 224.556L648.017 230.854C646.912 230.595 645.808 230.579 644.483 231.141C640.948 232.641 638.077 237.015 638.077 240.897C638.077 244.78 640.948 246.715 644.483 245.215C648.017 243.715 650.888 239.342 650.888 235.459C650.888 234.003 650.446 232.735 649.784 231.803L653.76 225.747C655.306 226.304 657.294 226.431 659.503 225.493C664.804 223.243 669.001 216.851 669.001 211.027C669.001 205.204 664.583 202.226 659.282 204.476Z" fill="#5ABD70"></path>
</g>
</g>
<path d="M165.496 542.986L147.457 532.57L209.507 496.754L227.546 507.17L165.496 542.986Z" fill="url(#paint1_linear_2615_70918)"></path>
<path d="M190.141 557.218L172.102 546.802L251.203 501.125L269.242 511.541L190.141 557.218Z" fill="url(#paint2_linear_2615_70918)"></path>
<path d="M214.77 571.431L196.73 561.031L292.282 505.863L310.321 516.264L214.77 571.431Z" fill="url(#paint3_linear_2615_70918)"></path>
<path d="M239.41 585.656L221.371 575.24L297.139 531.492L315.179 541.908L239.41 585.656Z" fill="url(#paint4_linear_2615_70918)"></path>
<path d="M264.041 599.887L246.002 589.471L332.541 539.504L350.581 549.92L264.041 599.887Z" fill="url(#paint5_linear_2615_70918)"></path>
<path d="M75.5 505L290.661 377.61L324.378 295.469L508 190L567 84" stroke="#5ABD70" stroke-width="2" stroke-linecap="round" stroke-linejoin="round"></path>
<path d="M279.088 369.184C286.155 365.095 297.605 365.095 304.719 369.184C311.833 373.274 311.802 379.894 304.719 383.983C297.636 388.072 286.201 388.072 279.088 383.983C271.974 379.894 272.02 373.258 279.088 369.184Z" fill="#5ABD70"></path>
<path d="M324.303 300.838C329.288 300.838 333.33 298.503 333.33 295.622C333.33 292.741 329.288 290.406 324.303 290.406C319.317 290.406 315.275 292.741 315.275 295.622C315.275 298.503 319.317 300.838 324.303 300.838Z" fill="#5ABD70"></path>
<path d="M68.6503 501.528C70.6301 500.523 72.8189 500 75.0389 500C77.259 500 79.4478 500.523 81.4276 501.528C84.9459 503.565 84.9459 506.867 81.4276 508.904C79.4478 509.909 77.259 510.432 75.0389 510.432C72.8189 510.432 70.6301 509.909 68.6503 508.904C65.1166 506.867 65.1166 503.565 68.6503 501.528Z" fill="#5ABD70"></path>
<path d="M303.684 377.611C303.684 376.763 302.496 376.068 301.014 376.068H288.191V372.457C288.191 371.608 286.987 370.914 285.521 370.914C284.055 370.914 282.852 371.593 282.852 372.457V377.611C282.875 377.845 282.961 378.068 283.099 378.258C283.237 378.447 283.424 378.597 283.639 378.692C284.213 379.012 284.863 379.172 285.521 379.154H300.953C302.496 379.154 303.684 378.46 303.684 377.611Z" fill="#171917"></path>
<path d="M743.142 367.408L431.844 548.311L240.68 437.945L551.978 257.043L743.142 367.408Z" fill="url(#paint6_linear_2615_70918)"></path>
<path d="M235.278 441.155C228.21 445.26 228.256 451.957 235.386 456.031L400.764 551.52C407.878 555.625 419.375 555.625 426.442 551.52L431.843 548.434L240.679 437.945L235.278 441.155Z" fill="#2C2C2C"></path>
<path d="M748.448 349.4L583.085 253.911C575.955 249.806 564.459 249.806 557.391 253.911L551.99 256.997L743.155 367.362L748.556 364.276C755.608 360.171 755.577 353.52 748.448 349.4Z" fill="#717171"></path>
<path d="M381.027 526.029C381.306 526.148 381.543 526.346 381.71 526.598C381.877 526.85 381.966 527.146 381.966 527.449C381.966 527.751 381.877 528.047 381.71 528.3C381.543 528.552 381.306 528.75 381.027 528.869C380.272 529.253 379.437 529.454 378.589 529.454C377.742 529.454 376.906 529.253 376.151 528.869C375.877 528.748 375.644 528.55 375.481 528.299C375.317 528.049 375.23 527.756 375.23 527.457C375.23 527.157 375.317 526.864 375.481 526.614C375.644 526.363 375.877 526.165 376.151 526.045C376.906 525.661 377.74 525.46 378.587 525.457C379.434 525.454 380.27 525.65 381.027 526.029Z" fill="white" fill-opacity="0.1"></path>
<path d="M278.225 465.419C280.201 466.561 280.231 468.428 278.225 469.585C277.116 470.148 275.889 470.441 274.645 470.441C273.401 470.441 272.175 470.148 271.065 469.585C269.075 468.443 269.059 466.499 271.065 465.434C272.175 464.874 273.4 464.581 274.643 464.578C275.887 464.575 277.113 464.863 278.225 465.419Z" fill="white" fill-opacity="0.1"></path>
<path d="M347.666 506.838C349.008 507.625 349.039 508.89 347.666 509.677C346.91 510.061 346.075 510.261 345.227 510.261C344.38 510.261 343.545 510.061 342.789 509.677L314.581 493.335C314.307 493.214 314.074 493.017 313.911 492.766C313.747 492.515 313.66 492.222 313.66 491.923C313.66 491.624 313.747 491.331 313.911 491.08C314.074 490.83 314.307 490.632 314.581 490.511C315.336 490.126 316.171 489.926 317.019 489.926C317.866 489.926 318.702 490.126 319.457 490.511L347.666 506.838Z" fill="white" fill-opacity="0.1"></path>
<path d="M676.26 379.139L575.955 321.256C573.24 319.713 573.579 316.95 576.712 315.083L590.6 307.043C592.207 306.149 594.002 305.643 595.84 305.565C597.678 305.488 599.508 305.84 601.186 306.596L701.49 364.479C704.206 366.022 703.866 368.784 700.734 370.652L686.846 378.691C685.239 379.589 683.445 380.097 681.606 380.175C679.767 380.253 677.936 379.898 676.26 379.139Z" fill="white" fill-opacity="0.1"></path>
<path d="M610.122 317.043L607.7 321.164L612.205 324.651L604.675 324.589L600.323 328.139L598.086 323.988L590.91 322.691L597.052 320.191L596.959 315.84L602.993 318.448L610.122 317.043Z" fill="#5ABD70"></path>
<path d="M633.532 330.563L631.11 334.683L635.616 338.155L628.085 338.109L623.733 341.658L621.496 337.507L614.32 336.211L620.462 333.696L620.369 329.359L626.403 331.952L633.532 330.563Z" fill="#5ABD70"></path>
<path d="M656.94 344.079L654.518 348.183L659.024 351.671L651.493 351.625L647.141 355.174L644.904 351.023L637.713 349.727L643.87 347.211L643.777 342.875L649.811 345.467L656.94 344.079Z" fill="#5ABD70"></path>
<path d="M680.335 357.579L677.928 361.699L682.434 365.186L674.903 365.125L670.552 368.674L668.314 364.523L661.123 363.242L667.28 360.727L667.172 356.375L673.206 358.983L680.335 357.579Z" fill="white" fill-opacity="0.3"></path>
<path d="M446.114 387.148L465.789 404.123C456.284 407.811 451.037 414.601 453.444 421.499C455.025 425.197 457.854 428.223 461.438 430.048C461.854 430.295 462.271 430.526 462.703 430.742L439.309 446.035C438.352 445.556 437.442 445.063 436.562 444.492C427.597 439.322 421.409 432.717 418.863 425.511C413.647 410.82 424.433 395.574 446.114 387.148Z" fill="url(#paint7_linear_2615_70918)"></path>
<path d="M506.407 362.176L497.765 382.037C488.247 380.635 478.586 380.495 469.032 381.62C434.188 385.694 411.673 405.446 418.833 425.646C421.472 433.115 427.815 439.534 436.502 444.611C437.413 445.151 438.354 445.66 439.311 446.154L415.886 461.462C414.343 460.721 412.985 459.919 411.612 459.163C407.768 456.963 404.109 454.454 400.671 451.663C392.832 445.213 387.446 438.207 384.56 430.769L384.36 430.244L384.174 429.72C373.141 398.61 408.217 367.824 461.903 361.528L462.674 361.436L463.43 361.358H464.171L466.054 361.173C477.464 360.129 488.951 360.227 500.342 361.467C502.379 361.652 504.401 361.888 506.407 362.176Z" fill="url(#paint8_linear_2615_70918)"></path>
<path d="M577.544 363.119C595.754 373.627 609.025 387.192 614.58 402.716L579.921 406.774C575.816 395.216 566.033 385.17 552.561 377.454C539.861 370.124 523.92 364.816 506.452 362.224C504.446 361.936 502.424 361.673 500.387 361.437C489.002 360.187 477.519 360.088 466.114 361.143C408 367.902 373.125 398.487 384.22 429.767L384.405 430.292C387.801 438.611 393.305 445.903 400.376 451.448C403.922 454.32 407.695 456.901 411.657 459.164C413.025 459.946 414.445 460.717 415.916 461.478L392.476 476.786C390.5 475.768 388.587 474.734 386.72 473.7C367.893 462.821 354.931 449.01 349.561 433.825C334.608 391.698 382.121 350.002 454.818 341.484C500.681 336.052 546.358 345.11 577.544 363.119Z" fill="url(#paint9_linear_2615_70918)"></path>
<path d="M425.687 271.691C428.094 270.303 430.039 272.046 430.054 274.778L430.162 313.48C430.082 314.95 429.645 316.378 428.89 317.642C428.134 318.905 427.083 319.966 425.826 320.733L383.096 345.484L373.375 404.432L373.22 351.194L361.029 358.231C358.622 359.62 356.801 358.694 356.786 355.932L356.678 317.23C356.729 315.654 357.134 314.111 357.863 312.714C358.593 311.316 359.627 310.101 360.891 309.159L425.687 271.691Z" fill="url(#paint10_linear_2615_70918)" fill-opacity="0.6"></path>
<path d="M419.82 288.553L379.977 311.561V308.583L419.82 285.59V288.553Z" fill="white" fill-opacity="0.2"></path>
<path d="M419.82 295.127L379.977 318.12V315.157L419.82 292.148V295.127Z" fill="white" fill-opacity="0.2"></path>
<path d="M419.822 301.685L366.984 332.178V329.215L419.822 298.707V301.685Z" fill="white" fill-opacity="0.2"></path>
<path d="M419.822 308.248L366.984 338.756V335.778L419.822 305.285V308.248Z" fill="white" fill-opacity="0.2"></path>
<path d="M419.822 314.822L366.984 345.314V342.352L419.822 311.844V314.822Z" fill="white" fill-opacity="0.2"></path>
<path d="M369.35 323.311L367.35 324.46L370.397 312.527L372.802 311.145L375.845 319.577L373.845 320.727L371.634 314.143L371.565 314.182L369.35 323.311ZM369.225 319.38L373.949 316.665V318.346L369.225 321.061V319.38Z" fill="white" fill-opacity="0.2"></path>
<path d="M527.535 243.914C529.942 242.525 531.886 244.269 531.902 247L532.01 285.702C531.93 287.172 531.493 288.601 530.738 289.864C529.982 291.128 528.93 292.189 527.674 292.955L484.944 317.707L475.222 376.655L475.068 323.417L462.877 330.453C460.47 331.842 458.649 330.916 458.633 328.154L458.525 289.452C458.576 287.877 458.982 286.333 459.711 284.936C460.44 283.539 461.475 282.324 462.738 281.382L527.535 243.914Z" fill="url(#paint11_linear_2615_70918)"></path>
<path d="M521.668 260.775L481.824 283.784V280.805L521.668 257.812V260.775Z" fill="#5ABD70"></path>
<path d="M521.668 267.349L481.824 290.342V287.379L521.668 264.371V267.349Z" fill="#5ABD70"></path>
<path d="M521.669 273.908L468.832 304.4V301.438L521.669 270.93V273.908Z" fill="#5ABD70"></path>
<path d="M521.669 280.471L468.832 310.979V308L521.669 277.508V280.471Z" fill="#5ABD70"></path>
<path d="M521.669 287.045L468.832 317.537V314.574L521.669 284.066V287.045Z" fill="#5ABD70"></path>
<path d="M469.676 296.408V286.226L473.21 284.194C473.86 283.821 474.401 283.621 474.835 283.594C475.269 283.566 475.595 283.687 475.814 283.956C476.032 284.222 476.141 284.61 476.141 285.12C476.141 285.518 476.072 285.907 475.935 286.288C475.797 286.665 475.607 287.02 475.366 287.351C475.127 287.677 474.854 287.968 474.547 288.224V288.324C474.883 288.147 475.197 288.075 475.491 288.109C475.787 288.141 476.026 288.287 476.21 288.546C476.394 288.801 476.486 289.179 476.486 289.68C476.486 290.22 476.37 290.769 476.137 291.327C475.907 291.88 475.567 292.409 475.116 292.913C474.664 293.418 474.108 293.86 473.447 294.24L469.676 296.408ZM471.542 293.575L473.064 292.701C473.584 292.402 473.963 292.069 474.202 291.704C474.44 291.334 474.56 290.958 474.56 290.573C474.56 290.291 474.501 290.077 474.383 289.929C474.265 289.781 474.097 289.709 473.878 289.712C473.663 289.713 473.406 289.799 473.107 289.971L471.542 290.87V293.575ZM471.542 289.414L472.926 288.619C473.182 288.472 473.409 288.29 473.607 288.073C473.808 287.851 473.966 287.611 474.081 287.353C474.199 287.093 474.258 286.829 474.258 286.561C474.258 286.193 474.144 285.961 473.917 285.866C473.693 285.77 473.374 285.84 472.96 286.078L471.542 286.893V289.414Z" fill="#5ABD70"></path>
<g clip-path="url(#clip2_2615_70918)">
<path d="M654.437 464.129L494.935 556.217C491.22 558.362 488 556.696 488 551.997V477.096C488 472.396 490.972 467.155 494.935 464.867L654.437 372.779C658.152 370.634 661.372 372.299 661.372 376.999V452.194C661.372 456.6 658.152 461.984 654.437 464.129Z" fill="url(#paint12_linear_2615_70918)"></path>
<path d="M668.199 456.183L494.83 556.278C491.013 558.481 488 555.815 488 550.234V478.858C488 473.277 491.013 467.131 494.83 464.928L667.999 364.949C671.816 362.745 674.829 365.411 674.829 370.992V442.369C675.03 447.834 671.816 454.095 668.199 456.183Z" fill="url(#paint13_linear_2615_70918)"></path>
<path d="M577.428 443.085C577.428 445.142 576.189 447.325 573.96 448.612L571.731 449.899V453.13L570.74 453.702V443.422L573.96 441.563C576.189 440.276 577.428 441.029 577.428 443.085ZM576.437 443.658C576.437 441.895 575.446 441.586 573.713 442.587L571.483 443.874V448.867L573.713 447.58C575.694 446.73 576.437 445.42 576.437 443.658Z" fill="white"></path>
<path d="M584.858 442.031L579.409 445.177C579.409 446.646 580.647 447.105 581.886 446.39C582.629 445.961 583.372 445.239 583.867 444.365L584.363 444.667C583.867 445.834 582.876 446.7 581.886 447.272C579.904 448.416 578.418 447.511 578.418 445.455C578.418 443.105 579.656 440.922 581.638 439.778C583.62 438.634 584.858 439.387 584.858 441.737V442.031ZM579.409 444.296L583.867 441.722C583.867 440.253 582.876 439.65 581.638 440.365C580.4 441.374 579.409 442.827 579.409 444.296Z" fill="white"></path>
<path d="M589.814 435.055V435.936L589.566 436.079C588.328 436.794 587.337 438.247 587.337 440.304V444.122L586.594 444.551V436.914L587.337 436.485V437.954C587.832 436.786 588.575 435.77 589.814 435.055Z" fill="white"></path>
<path d="M592.538 432.602V433.483L594.519 432.339V433.22L592.538 434.364V441.12L591.547 441.692V434.936L590.309 435.651V434.77L591.547 434.055V433.174C591.547 431.705 592.29 430.395 593.529 429.68C594.024 429.394 594.519 429.402 594.767 429.552L594.519 430.577C594.272 430.426 594.024 430.569 593.529 430.855C592.786 430.99 592.538 431.721 592.538 432.602Z" fill="white"></path>
<path d="M594.766 436.018C594.766 433.668 596.252 431.341 597.986 430.34C599.967 429.196 601.206 429.95 601.206 432.3C601.206 434.649 599.719 436.976 597.986 437.977C596.252 438.978 594.766 438.368 594.766 436.018ZM600.463 432.729C600.463 430.966 599.472 430.363 597.986 431.221C596.499 432.079 595.509 433.826 595.509 435.589C595.509 437.351 596.499 437.954 597.986 437.096C599.472 436.238 600.463 434.491 600.463 432.729Z" fill="white"></path>
<path d="M606.409 425.473V426.354L606.162 426.497C604.923 427.212 603.933 428.665 603.933 430.722V434.54L603.189 434.969V427.332L603.933 426.903V428.372C604.428 427.204 605.171 426.188 606.409 425.473Z" fill="white"></path>
<path d="M618.544 421.697V426.103L617.801 426.532V422.126C617.801 420.658 617.058 420.206 616.067 420.778C614.828 421.493 613.838 422.946 613.838 424.708V428.821L612.847 429.393V424.987C612.847 423.518 612.104 423.066 611.113 423.638C609.874 424.353 608.884 425.806 608.884 427.568V431.681L608.141 432.11V424.473L608.884 424.044V425.512C609.379 424.345 610.122 423.329 611.361 422.614C612.351 422.042 613.342 422.057 613.59 422.795C614.085 421.628 615.076 420.469 616.067 419.896C617.553 419.038 618.544 419.348 618.544 421.697Z" fill="white"></path>
<path d="M625.729 417.259V421.959L624.986 422.388V421.213C624.49 422.38 623.747 423.103 622.757 423.675C621.27 424.533 620.527 424.081 620.527 422.612C620.527 421.437 621.27 420.127 623.004 419.126L624.986 417.982V417.688C624.986 416.513 624.243 416.061 623.252 416.633C622.509 417.062 621.518 417.928 621.023 418.801L620.527 418.206C621.27 417.19 622.014 416.173 623.252 415.458C624.738 414.894 625.729 415.203 625.729 417.259ZM624.986 420.038V418.863L623.004 420.007C621.766 420.722 621.27 421.596 621.27 422.477C621.27 423.358 621.766 423.659 623.004 422.944C623.747 422.222 624.49 421.205 624.986 420.038Z" fill="white"></path>
<path d="M634.15 412.692V417.098L633.407 417.527V413.121C633.407 411.652 632.664 411.2 631.425 411.915C629.939 412.773 629.196 414.083 629.196 415.846V419.958L628.453 420.387V412.75L629.196 412.321V413.79C629.692 412.622 630.435 411.606 631.673 410.891C632.912 410.176 634.15 410.342 634.15 412.692Z" fill="white"></path>
<path d="M635.883 412.276C635.883 409.926 637.369 407.599 639.103 406.598C640.094 406.026 641.084 406.041 641.58 406.637L640.837 407.653C640.341 407.058 639.598 407.193 638.855 407.622C637.369 408.48 636.378 410.227 636.378 411.99C636.378 413.752 637.369 414.355 638.855 413.497C639.598 413.068 640.341 412.345 640.837 411.178L641.58 411.336C641.084 412.503 640.094 413.663 639.103 414.235C637.121 415.379 635.883 414.625 635.883 412.276Z" fill="white"></path>
<path d="M648.764 405.136L643.315 408.282C643.315 409.751 644.553 410.211 645.792 409.496C646.535 409.067 647.278 408.344 647.773 407.471L648.269 407.772C647.773 408.939 646.783 409.805 645.792 410.377C643.81 411.521 642.324 410.617 642.324 408.561C642.324 406.211 643.563 404.027 645.544 402.883C647.278 401.882 648.764 402.493 648.764 404.843V405.136ZM643.315 407.401L647.773 404.827C647.773 403.358 646.783 402.756 645.544 403.471C644.553 404.336 643.563 405.79 643.315 407.401Z" fill="white"></path>
<path d="M585.603 474.785C585.603 478.897 582.631 483.257 577.925 485.974C573.218 488.691 570.246 487.763 570.246 483.651C570.246 481.301 571.237 478.967 573.218 476.648C571.732 476.625 570.989 475.292 570.989 473.235C570.989 469.417 573.714 465.494 577.925 463.063C582.135 460.632 584.86 461.409 584.86 465.227C584.86 467.283 584.117 469.475 582.383 471.357C584.612 471.245 585.603 472.435 585.603 474.785ZM582.135 476.787C582.135 474.731 580.649 474.12 577.925 475.693C575.448 477.123 573.714 479.593 573.714 481.649C573.714 483.999 575.2 484.316 577.925 482.743C580.649 481.17 582.135 479.137 582.135 476.787ZM574.457 471.527C574.457 473.289 575.695 474.043 577.925 472.756C580.154 471.469 581.392 469.579 581.392 467.523C581.392 465.467 579.906 465.15 577.925 466.294C575.943 467.732 574.457 469.471 574.457 471.527Z" fill="white"></path>
<path d="M588.08 477.464C588.08 475.995 589.071 474.248 590.309 473.533C591.548 472.818 592.539 473.421 592.539 474.89C592.539 476.358 591.548 478.105 590.309 478.82C589.071 479.535 588.08 478.933 588.08 477.464Z" fill="white"></path>
<path d="M608.392 461.337C608.392 465.155 605.915 469.816 600.961 472.676C598.236 474.249 595.759 474.798 594.025 474.037L595.512 469.948C596.998 470.558 598.979 470.002 600.961 468.858C603.438 467.428 604.924 465.395 604.924 463.045C604.924 460.989 603.685 460.235 599.97 462.38L595.512 464.954L596.502 452.339L607.401 446.047V449.866L599.475 454.442L598.979 459.721L600.713 458.72C606.162 455.868 608.392 457.518 608.392 461.337Z" fill="white"></path>
<path d="M610.373 455.784C610.373 448.44 613.841 442.326 618.299 439.752C622.758 437.178 626.225 439.288 626.225 446.631C626.225 453.975 622.758 460.089 618.299 462.663C613.593 465.38 610.373 463.127 610.373 455.784ZM622.51 448.776C622.51 443.489 620.776 441.847 618.299 443.277C615.822 444.707 614.088 448.058 614.088 453.639C614.088 458.926 615.822 460.568 618.299 459.138C620.776 457.708 622.51 454.357 622.51 448.776Z" fill="white"></path>
<path d="M628.205 445.495C628.205 438.151 631.673 432.037 636.131 429.463C640.59 426.889 644.057 428.999 644.057 436.342C644.057 443.685 640.59 449.8 636.131 452.374C631.673 454.948 628.205 452.838 628.205 445.495ZM640.342 438.487C640.342 433.2 638.608 431.558 636.131 432.988C633.654 434.418 631.92 437.769 631.92 443.349C631.92 448.637 633.654 450.279 636.131 448.849C638.608 447.419 640.342 444.068 640.342 438.487Z" fill="white"></path>
<path d="M528.399 468.872L533.312 483.494L549.21 474.315L536.348 492.532L541.261 507.154L528.399 503.79L515.537 522.006L520.45 501.71L507.588 498.346L523.486 489.167L528.399 468.872Z" fill="white"></path>
</g>
<path fill-rule="evenodd" clip-rule="evenodd" d="M339.986 258.037C344.513 255.187 348.362 248.224 348.53 242.65L349.493 212.003C349.661 206.43 346.041 204.229 341.514 207.079L299.744 233.493C295.218 236.343 291.369 243.306 291.2 248.879L290.312 279.539C290.144 285.112 293.764 287.313 298.291 284.463L312.793 275.272L318.738 284.655L325.449 267.251L339.986 258.037Z" fill="url(#paint14_linear_2615_70918)"></path>
<path d="M330.644 224.616C324.387 225.312 320.099 236.203 320.099 236.203C320.099 236.203 316.189 230.487 309.819 237.966C303.5 245.319 303.872 257.25 309.172 258.663C312.59 259.63 319.557 261.052 319.557 261.052C319.557 261.052 326.8 250.517 330.325 245.1C335.838 236.813 336.849 224.044 330.644 224.616Z" fill="#5ABD70"></path>
<defs>
<linearGradient id="paint0_linear_2615_70918" x1="38.0226" y1="0" x2="38.0226" y2="76.0452" gradientUnits="userSpaceOnUse">
<stop stop-color="#505050"></stop>
<stop offset="1" stop-color="#202020"></stop>
</linearGradient>
<linearGradient id="paint1_linear_2615_70918" x1="222.584" y1="489.394" x2="174.324" y2="550.309" gradientUnits="userSpaceOnUse">
<stop stop-color="#676767"></stop>
<stop offset="1" stop-color="#1C1E1C"></stop>
</linearGradient>
<linearGradient id="paint2_linear_2615_70918" x1="263.224" y1="492.195" x2="204.667" y2="566.084" gradientUnits="userSpaceOnUse">
<stop stop-color="#676767"></stop>
<stop offset="1" stop-color="#1C1E1C"></stop>
</linearGradient>
<linearGradient id="paint3_linear_2615_70918" x1="303.284" y1="495.425" x2="234.841" y2="581.82" gradientUnits="userSpaceOnUse">
<stop stop-color="#676767"></stop>
<stop offset="1" stop-color="#1C1E1C"></stop>
</linearGradient>
<linearGradient id="paint4_linear_2615_70918" x1="309.367" y1="522.87" x2="252.825" y2="594.222" gradientUnits="userSpaceOnUse">
<stop stop-color="#676767"></stop>
<stop offset="1" stop-color="#1C1E1C"></stop>
</linearGradient>
<linearGradient id="paint5_linear_2615_70918" x1="344.102" y1="529.891" x2="281.067" y2="609.436" gradientUnits="userSpaceOnUse">
<stop stop-color="#676767"></stop>
<stop offset="1" stop-color="#1C1E1C"></stop>
</linearGradient>
<linearGradient id="paint6_linear_2615_70918" x1="328" y1="494" x2="851" y2="350" gradientUnits="userSpaceOnUse">
<stop stop-color="#232423"></stop>
<stop offset="1" stop-color="#676767"></stop>
</linearGradient>
<linearGradient id="paint7_linear_2615_70918" x1="441.677" y1="387.148" x2="441.677" y2="446.035" gradientUnits="userSpaceOnUse">
<stop stop-color="white" stop-opacity="0.3"></stop>
<stop offset="1" stop-color="white" stop-opacity="0.03"></stop>
</linearGradient>
<linearGradient id="paint8_linear_2615_70918" x1="444.276" y1="360.457" x2="444.276" y2="461.462" gradientUnits="userSpaceOnUse">
<stop stop-color="#5ABD70"></stop>
<stop offset="1" stop-color="#4AA05D"></stop>
</linearGradient>
<linearGradient id="paint9_linear_2615_70918" x1="346.768" y1="408.348" x2="614.534" y2="408.348" gradientUnits="userSpaceOnUse">
<stop stop-color="white" stop-opacity="0.06"></stop>
<stop offset="1" stop-color="white" stop-opacity="0.2"></stop>
</linearGradient>
<linearGradient id="paint10_linear_2615_70918" x1="393.42" y1="271.203" x2="393.42" y2="404.432" gradientUnits="userSpaceOnUse">
<stop stop-color="#2E2F2E"></stop>
<stop offset="1" stop-color="#929592"></stop>
</linearGradient>
<linearGradient id="paint11_linear_2615_70918" x1="495.268" y1="243.426" x2="495.268" y2="376.655" gradientUnits="userSpaceOnUse">
<stop stop-color="#282928"></stop>
<stop offset="1" stop-color="#999999"></stop>
</linearGradient>
<linearGradient id="paint12_linear_2615_70918" x1="603.301" y1="402.302" x2="642.857" y2="470.815" gradientUnits="userSpaceOnUse">
<stop stop-color="#5ABD70"></stop>
<stop offset="1" stop-color="#3F9652"></stop>
</linearGradient>
<linearGradient id="paint13_linear_2615_70918" x1="581.419" y1="414.936" x2="620.975" y2="483.448" gradientUnits="userSpaceOnUse">
<stop stop-color="#5ABD70"></stop>
<stop offset="1" stop-color="#409653"></stop>
</linearGradient>
<linearGradient id="paint14_linear_2615_70918" x1="337.052" y1="204.417" x2="322.784" y2="290.447" gradientUnits="userSpaceOnUse">
<stop stop-color="#6D6D6D"></stop>
<stop offset="1" stop-color="#282828"></stop>
</linearGradient>
<clipPath id="clip0_2615_70918">
<rect width="133" height="169.21" fill="white" transform="translate(552 167)"></rect>
</clipPath>
<clipPath id="clip1_2615_70918">
<rect width="39.8332" height="47.0756" fill="white" transform="matrix(0.920505 -0.390731 0 1 632.334 203.539)"></rect>
</clipPath>
<clipPath id="clip2_2615_70918">
<rect width="215.742" height="91.3501" fill="white" transform="matrix(0.866025 -0.5 0 1 488 468.871)"></rect>
</clipPath>
</defs>
</svg>