<?xml version="1.0" encoding="UTF-8"?>
<!DOCTYPE svg PUBLIC "-//W3C//DTD SVG 1.1//EN" "http://www.w3.org/Graphics/SVG/1.1/DTD/svg11.dtd">
<!-- Creator: CorelDRAW -->
<svg xmlns="http://www.w3.org/2000/svg" xml:space="preserve" width="210mm" height="190mm" version="1.1" style="shape-rendering:geometricPrecision; text-rendering:geometricPrecision; image-rendering:optimizeQuality; fill-rule:evenodd; clip-rule:evenodd"
viewBox="0 0 21000 19000"
 xmlns:xlink="http://www.w3.org/1999/xlink"
 xmlns:xodm="http://www.corel.com/coreldraw/odm/2003">
 <defs>
  <style type="text/css">
   <![CDATA[
    .fil42 {fill:#E31E24;fill-rule:nonzero}
    .fil22 {fill:#E31E24;fill-rule:nonzero}
    .fil41 {fill:#DB4834;fill-rule:nonzero}
    .fil23 {fill:white;fill-rule:nonzero}
    .fil1 {fill:white;fill-rule:nonzero;fill-opacity:0.015686}
    .fil0 {fill:white;fill-rule:nonzero;fill-opacity:0.023529}
    .fil31 {fill:#5ABD70;fill-rule:nonzero;fill-opacity:0.035294}
    .fil35 {fill:#DB4834;fill-rule:nonzero;fill-opacity:0.062745}
    .fil30 {fill:#E31E24;fill-rule:nonzero;fill-opacity:0.090196}
    .fil45 {fill:white;fill-rule:nonzero;fill-opacity:0.101961}
    .fil32 {fill:#5ABD70;fill-rule:nonzero;fill-opacity:0.121569}
    .fil46 {fill:#DB4834;fill-rule:nonzero;fill-opacity:0.200000}
    .fil27 {fill:#DB4834;fill-rule:nonzero;fill-opacity:0.239216}
    .fil8 {fill:#E31E24;fill-rule:nonzero;fill-opacity:0.301961}
    .fil7 {fill:#DB4834;fill-rule:nonzero;fill-opacity:0.301961}
    .fil38 {fill:#DB4834;fill-rule:nonzero;fill-opacity:0.321569}
    .fil37 {fill:#DB4834;fill-rule:nonzero;fill-opacity:0.337255}
    .fil29 {fill:#DB4834;fill-rule:nonzero;fill-opacity:0.360784}
    .fil36 {fill:#DB4834;fill-rule:nonzero;fill-opacity:0.384314}
    .fil40 {fill:#DB4834;fill-rule:nonzero;fill-opacity:0.639216}
    .fil39 {fill:#DB4834;fill-rule:nonzero;fill-opacity:0.800000}
    .fil24 {fill:white;fill-rule:nonzero;fill-opacity:0.901961}
    .fil9 {fill:url(#id6);fill-rule:nonzero}
    .fil44 {fill:url(#id7);fill-rule:nonzero}
    .fil33 {fill:url(#id8);fill-rule:nonzero}
    .fil34 {fill:url(#id9);fill-rule:nonzero}
    .fil25 {fill:url(#id10);fill-rule:nonzero}
    .fil43 {fill:url(#id11);fill-rule:nonzero}
    .fil2 {fill:url(#id12);fill-rule:nonzero}
    .fil10 {fill:url(#id13);fill-rule:nonzero;fill-opacity:0.027451}
    .fil11 {fill:url(#id14);fill-rule:nonzero;fill-opacity:0.054902}
    .fil12 {fill:url(#id15);fill-rule:nonzero;fill-opacity:0.082353}
    .fil13 {fill:url(#id16);fill-rule:nonzero;fill-opacity:0.109804}
    .fil14 {fill:url(#id17);fill-rule:nonzero;fill-opacity:0.137255}
    .fil15 {fill:url(#id18);fill-rule:nonzero;fill-opacity:0.164706}
    .fil16 {fill:url(#id19);fill-rule:nonzero;fill-opacity:0.192157}
    .fil17 {fill:url(#id20);fill-rule:nonzero;fill-opacity:0.219608}
    .fil18 {fill:url(#id21);fill-rule:nonzero;fill-opacity:0.247059}
    .fil26 {fill:url(#id22);fill-rule:nonzero;fill-opacity:0.250980}
    .fil19 {fill:url(#id23);fill-rule:nonzero;fill-opacity:0.274510}
    .fil20 {fill:url(#id24);fill-rule:nonzero;fill-opacity:0.301961}
    .fil6 {fill:url(#id25);fill-rule:nonzero;fill-opacity:0.400000}
    .fil4 {fill:url(#id26);fill-rule:nonzero;fill-opacity:0.400000}
    .fil28 {fill:url(#id27);fill-rule:nonzero;fill-opacity:0.501961}
    .fil3 {fill:url(#id28);fill-rule:nonzero;fill-opacity:0.800000}
    .fil21 {fill:url(#id29);fill-rule:nonzero;fill-opacity:0.800000}
    .fil5 {fill:url(#id30);fill-rule:nonzero;fill-opacity:0.800000}
   ]]>
  </style>
    <mask id="id0">
  <radialGradient id="id1" gradientUnits="userSpaceOnUse" cx="5047.04" cy="1888.99" r="0" fx="5047.04" fy="1888.99">
   <stop offset="0" style="stop-opacity:0.501961; stop-color:white"/>
   <stop offset="1" style="stop-opacity:1; stop-color:white"/>
  </radialGradient>
     <rect style="fill:url(#id1)" x="5046.79" y="1888.74" width="5698.99" height="5698.97"/>
    </mask>
     <mask id="id2">
  <linearGradient id="id3" gradientUnits="userSpaceOnUse" x1="5525.84" y1="3520.42" x2="6663.55" y2="3705.63">
   <stop offset="0" style="stop-opacity:1; stop-color:white"/>
   <stop offset="0.168627" style="stop-opacity:0; stop-color:white"/>
   <stop offset="1" style="stop-opacity:1; stop-color:white"/>
  </linearGradient>
      <rect style="fill:url(#id3)" x="5682.22" y="3385.28" width="1000.22" height="1021.11"/>
     </mask>
      <mask id="id4">
  <linearGradient id="id5" gradientUnits="userSpaceOnUse" x1="1213.13" y1="7859.59" x2="2906.46" y2="9394.17">
   <stop offset="0" style="stop-opacity:0.380392; stop-color:white"/>
   <stop offset="1" style="stop-opacity:1; stop-color:white"/>
  </linearGradient>
       <rect style="fill:url(#id5)" x="895.37" y="7393.93" width="2096.9" height="1971.12"/>
      </mask>
  <linearGradient id="id6" gradientUnits="userSpaceOnUse" x1="10182.5" y1="5266.67" x2="10156.05" y2="7436.25">
   <stop offset="0" style="stop-opacity:1; stop-color:#575958"/>
   <stop offset="1" style="stop-opacity:1; stop-color:#1C1E1C"/>
  </linearGradient>
  <linearGradient id="id7" gradientUnits="userSpaceOnUse" x1="6637.09" y1="12383.95" x2="8700.84" y2="12807.29">
   <stop offset="0" style="stop-opacity:1; stop-color:white"/>
   <stop offset="0.168627" style="stop-opacity:0; stop-color:white"/>
   <stop offset="1" style="stop-opacity:1; stop-color:white"/>
  </linearGradient>
  <linearGradient id="id8" gradientUnits="userSpaceOnUse" x1="16558.95" y1="6827.71" x2="17855.41" y2="7489.17">
   <stop offset="0" style="stop-opacity:1; stop-color:white"/>
   <stop offset="1" style="stop-opacity:0; stop-color:white"/>
  </linearGradient>
  <linearGradient id="id9" gradientUnits="userSpaceOnUse" x1="5525.84" y1="3520.42" x2="6663.55" y2="3705.63">
   <stop offset="0" style="stop-opacity:1; stop-color:white"/>
   <stop offset="0.168627" style="stop-opacity:1; stop-color:white"/>
   <stop offset="1" style="stop-opacity:1; stop-color:white"/>
  </linearGradient>
  <linearGradient id="id10" gradientUnits="userSpaceOnUse" x1="10711.66" y1="12132.76" x2="15156.66" y2="14273.51">
   <stop offset="0" style="stop-opacity:1; stop-color:#5E5E5E"/>
   <stop offset="1" style="stop-opacity:1; stop-color:#1D1D1D"/>
  </linearGradient>
  <linearGradient id="id11" gradientUnits="userSpaceOnUse" x1="5552.3" y1="6253.59" x2="10526.45" y2="9789.17">
   <stop offset="0" style="stop-opacity:1; stop-color:#6C6C6C"/>
   <stop offset="1" style="stop-opacity:1; stop-color:#252625"/>
  </linearGradient>
  <radialGradient id="id12" gradientUnits="userSpaceOnUse" gradientTransform="matrix(2.64762E-14 0.999685 -0.999685 2.64762E-14 12633 -3156)" cx="7896.29" cy="4738.23" r="2849.25" fx="7896.29" fy="4738.23">
   <stop offset="0" style="stop-opacity:1; stop-color:#BD5A5A"/>
   <stop offset="1" style="stop-opacity:1; stop-color:#151515"/>
  </radialGradient>
  <linearGradient id="id13" gradientUnits="userSpaceOnUse" x1="10394.17" y1="6618.05" x2="14177.7" y2="13445.06">
   <stop offset="0" style="stop-opacity:1; stop-color:#ABABAB"/>
   <stop offset="0.0117647" style="stop-opacity:1; stop-color:#ABABAB"/>
   <stop offset="0.431373" style="stop-opacity:1; stop-color:#BDBDBD"/>
   <stop offset="0.901961" style="stop-opacity:1; stop-color:#5F5F5F"/>
   <stop offset="1" style="stop-opacity:1; stop-color:#5F5F5F"/>
  </linearGradient>
  <linearGradient id="id14" gradientUnits="userSpaceOnUse" xlink:href="#id13" x1="10394.17" y1="6695.87" x2="14124.79" y2="13419.34">
  </linearGradient>
  <linearGradient id="id15" gradientUnits="userSpaceOnUse" xlink:href="#id13" x1="10394.17" y1="6748.27" x2="14071.87" y2="13418.82">
  </linearGradient>
  <linearGradient id="id16" gradientUnits="userSpaceOnUse" xlink:href="#id13" x1="10394.17" y1="6826.16" x2="14018.95" y2="13393.05">
  </linearGradient>
  <linearGradient id="id17" gradientUnits="userSpaceOnUse" xlink:href="#id13" x1="10367.71" y1="6878.54" x2="13966.04" y2="13367.44">
  </linearGradient>
  <linearGradient id="id18" gradientUnits="userSpaceOnUse" xlink:href="#id13" x1="10367.71" y1="6956.49" x2="13913.12" y2="13341.69">
  </linearGradient>
  <linearGradient id="id19" gradientUnits="userSpaceOnUse" xlink:href="#id13" x1="10367.71" y1="7009.27" x2="13860.2" y2="13316.16">
  </linearGradient>
  <linearGradient id="id20" gradientUnits="userSpaceOnUse" xlink:href="#id13" x1="10367.71" y1="7086.78" x2="13807.29" y2="13315.43">
  </linearGradient>
  <linearGradient id="id21" gradientUnits="userSpaceOnUse" xlink:href="#id13" x1="10367.71" y1="7139.82" x2="13754.37" y2="13289.66">
  </linearGradient>
  <linearGradient id="id22" gradientUnits="userSpaceOnUse" x1="3382.71" y1="10320.2" x2="4414.59" y2="11219.79">
   <stop offset="0" style="stop-opacity:1; stop-color:#1C1E1C"/>
   <stop offset="1" style="stop-opacity:1; stop-color:#575958"/>
  </linearGradient>
  <linearGradient id="id23" gradientUnits="userSpaceOnUse" xlink:href="#id13" x1="10367.71" y1="7217.15" x2="13727.91" y2="13264.02">
  </linearGradient>
  <linearGradient id="id24" gradientUnits="userSpaceOnUse" xlink:href="#id13" x1="10341.25" y1="7270.28" x2="13675" y2="13238.27">
  </linearGradient>
  <linearGradient id="id25" gradientUnits="userSpaceOnUse" xlink:href="#id6" x1="10129.59" y1="8463.51" x2="10103.13" y2="10510.55">
  </linearGradient>
  <linearGradient id="id26" gradientUnits="userSpaceOnUse" xlink:href="#id6" x1="8489.17" y1="5187.3" x2="8436.25" y2="8018.34">
  </linearGradient>
  <linearGradient id="id27" gradientUnits="userSpaceOnUse" xlink:href="#id6" x1="16215" y1="9976.25" x2="17458.54" y2="11193.33">
  </linearGradient>
  <linearGradient id="id28" gradientUnits="userSpaceOnUse" xlink:href="#id6" x1="11743.54" y1="7039.38" x2="11690.62" y2="9896.87">
  </linearGradient>
  <linearGradient id="id29" gradientUnits="userSpaceOnUse" x1="10023.75" y1="10032.36" x2="16770.62" y2="12374.57">
   <stop offset="0" style="stop-opacity:1; stop-color:#777777"/>
   <stop offset="1" style="stop-opacity:1; stop-color:#1D1E1D"/>
  </linearGradient>
  <linearGradient id="id30" gradientUnits="userSpaceOnUse" x1="9150.63" y1="4270.58" x2="11214.37" y2="5593.66">
   <stop offset="0" style="stop-opacity:1; stop-color:#313131"/>
   <stop offset="1" style="stop-opacity:1; stop-color:#575958"/>
  </linearGradient>
 </defs>
 <g id="Слой_x0020_1">
  <metadata id="CorelCorpID_0Corel-Layer"/>
  <g id="_2723920968176">
   <g>
    <path class="fil0" d="M14042.69 8427.25c-19.07,-34.74 -28.84,-73.87 -28.84,-117.4l0 -284.69c0,-43.52 9.77,-71.41 28.84,-83.64 19.08,-12.72 46.97,-8.3 83.66,12.73 36.2,21.01 64.08,48.9 83.64,83.64 19.07,34.71 28.86,73.84 28.86,117.39l0 284.67c0,43.55 -9.79,71.43 -28.86,83.66 -19.08,12.7 -46.97,8.31 -83.64,-12.73 -36.19,-21.03 -64.08,-48.92 -83.66,-83.63zm121.82 -24.48l0 -295.43c0,-35.72 -12.73,-60.64 -38.66,-75.33 -25.43,-14.68 -38.63,-4.39 -38.63,31.3l0 295.44c0,35.72 12.7,60.67 38.63,75.35 25.45,14.66 38.66,4.39 38.66,-31.33z"/>
    <path class="fil1" d="M14122.91 8826.9l-77.28 -44.5 0 -60.17c21.03,12.22 38.15,20.06 50.85,22.99 12.73,3.42 22.99,2.44 30.83,-2.93 7.83,-4.9 14.18,-15.16 20.05,-29.85l49.9 28.87 0 541.47 -74.35 -42.55 0 -412.83 0 -0.5z"/>
    <path class="fil0" d="M14042.69 9904.47c-19.07,-34.74 -28.84,-73.87 -28.84,-117.4l0 -284.69c0,-43.52 9.77,-71.41 28.84,-83.63 19.08,-12.73 46.97,-8.31 83.66,12.72 36.2,21.04 64.08,48.9 83.64,83.64 19.07,34.71 28.86,73.84 28.86,117.39l0 284.67c0,43.55 -9.79,71.44 -28.86,83.66 -19.08,12.7 -46.97,8.31 -83.64,-12.73 -36.19,-21.03 -64.08,-48.92 -83.66,-83.63zm121.82 -24.48l0 -295.43c0,-35.69 -12.73,-60.64 -38.66,-75.33 -25.43,-14.68 -38.63,-4.39 -38.63,31.3l0 295.46c0,35.7 12.7,60.65 38.63,75.33 25.45,14.66 38.66,4.39 38.66,-31.33z"/>
    <path class="fil0" d="M14042.69 10643.03c-19.07,-34.74 -28.84,-73.88 -28.84,-117.4l0 -284.69c0,-43.52 9.77,-71.41 28.84,-83.64 19.08,-12.72 46.97,-8.3 83.66,12.73 36.2,21.04 64.08,48.9 83.64,83.64 19.07,34.74 28.86,73.87 28.86,117.39l0 284.67c0,43.55 -9.79,71.43 -28.86,83.66 -19.08,12.7 -46.97,8.31 -83.64,-12.73 -36.19,-21.03 -64.08,-48.92 -83.66,-83.63zm121.82 -24.48l0 -295.43c0,-35.69 -12.73,-60.64 -38.66,-75.33 -25.43,-14.66 -38.63,-4.39 -38.63,31.3l0 295.46c0,35.69 12.7,60.64 38.63,75.33 25.45,14.66 38.66,4.39 38.66,-31.33z"/>
    <path class="fil0" d="M14122.91 11042.68l-77.28 -44.5 0 -60.17c21.03,12.22 38.15,20.06 50.85,22.99 12.73,3.44 22.99,2.46 30.83,-2.93 7.83,-4.9 14.18,-15.16 20.05,-29.85l49.9 28.87 0 541.49 -74.35 -42.57 0 -412.83 0 -0.5z"/>
    <path class="fil1" d="M14042.69 12120.14c-19.07,-34.74 -28.84,-73.87 -28.84,-117.39l0 -284.69c0,-43.53 9.77,-71.42 28.84,-83.64 19.08,-12.73 46.97,-8.31 83.66,12.73 36.2,21.03 64.08,48.89 83.64,83.63 19.07,34.74 28.86,73.87 28.86,117.4l0 284.69c0,43.52 -9.79,71.41 -28.86,83.63 -19.08,12.73 -46.97,8.31 -83.64,-12.72 -36.19,-21.04 -64.08,-48.9 -83.66,-83.64zm121.82 -24.45l0 -295.46c0,-35.69 -12.73,-60.64 -38.66,-75.32 -25.43,-14.66 -38.63,-4.39 -38.63,31.3l0 295.46c0,35.69 12.7,60.64 38.63,75.33 25.45,14.65 38.66,4.39 38.66,-31.31z"/>
    <path class="fil0" d="M14122.91 12519.93l-77.28 -44.53 0 -60.17c21.03,12.23 38.15,20.06 50.85,22.99 12.73,3.44 22.99,2.47 30.83,-2.93 7.83,-4.9 14.18,-15.16 20.05,-29.85l49.9 28.87 0 541.49 -74.35 -42.57 0 -412.83 0 -0.47z"/>
   </g>
   <g>
    <path class="fil1" d="M14463.83 8285.35l-77.29 -44.53 0 -60.16c21.04,12.25 38.16,20.05 50.86,22.99 12.72,3.44 22.99,2.46 30.82,-2.94 7.83,-4.89 14.18,-15.16 20.06,-29.82l49.9 28.84 0 541.5 -74.35 -42.57 0 -412.83 0 -0.48z"/>
    <path class="fil0" d="M14383.61 9362.47c-19.08,-34.71 -28.87,-73.85 -28.87,-117.4l0 -284.66c0,-43.55 9.79,-71.41 28.87,-83.64 19.07,-12.72 46.96,-8.33 83.63,12.7 36.7,21.04 64.08,48.93 83.66,83.67 19.08,34.71 28.84,73.84 28.84,117.36l0 284.7c0,43.52 -9.76,71.41 -28.84,83.63 -19.07,12.73 -46.96,8.34 -83.66,-12.7 -36.67,-21.03 -64.05,-48.92 -83.63,-83.66zm121.78 -24.45l0 -295.43c0,-35.72 -12.7,-60.67 -38.62,-75.33 -25.43,-14.68 -38.66,-4.42 -38.66,31.3l0 295.44c0,35.71 12.73,60.66 38.66,75.32 25.42,14.69 38.62,4.42 38.62,-31.3z"/>
    <path class="fil1" d="M14463.83 9762.57l-77.29 -44.53 0 -60.16c21.04,12.25 38.16,20.05 50.86,22.99 12.72,3.44 22.99,2.46 30.82,-2.94 7.83,-4.87 14.18,-15.16 20.06,-29.82l49.9 28.84 0 541.5 -74.35 -42.57 0 -412.83 0 -0.48z"/>
    <path class="fil0" d="M14383.61 10839.61c-19.08,-34.74 -28.87,-73.87 -28.87,-117.39l0 -284.7c0,-43.52 9.79,-71.41 28.87,-83.63 19.07,-12.73 46.96,-8.33 83.63,12.7 36.7,21.03 64.08,48.92 83.66,83.66 19.08,34.71 28.84,73.85 28.84,117.4l0 284.66c0,43.55 -9.76,71.41 -28.84,83.64 -19.07,12.72 -46.96,8.33 -83.66,-12.7 -36.19,-21.04 -64.05,-48.92 -83.63,-83.64zm121.78 -24.47l0 -295.44c0,-35.71 -12.7,-60.66 -38.62,-75.32 -25.43,-14.69 -38.66,-4.42 -38.66,31.3l0 295.43c0,35.72 12.73,60.67 38.66,75.33 25.42,14.68 38.62,4.42 38.62,-31.3z"/>
    <path class="fil0" d="M14383.61 11578.17c-19.08,-34.74 -28.87,-73.87 -28.87,-117.4l0 -284.69c0,-43.52 9.79,-71.41 28.87,-83.63 19.07,-12.73 46.96,-8.34 83.63,12.7 36.22,21.03 64.08,48.92 83.66,83.66 19.08,34.71 28.84,73.84 28.84,117.39l0 284.67c0,43.55 -9.76,71.41 -28.84,83.66 -19.07,12.7 -46.96,8.31 -83.66,-12.73 -36.67,-21.03 -64.05,-48.92 -83.63,-83.63zm121.78 -24.47l0 -295.44c0,-35.72 -12.7,-60.67 -38.62,-75.32 -25.43,-14.69 -38.66,-4.42 -38.66,31.3l0 295.43c0,35.72 12.73,60.67 38.66,75.33 25.42,14.68 38.62,4.41 38.62,-31.3z"/>
    <path class="fil0" d="M14463.83 11978.25l-77.29 -44.51 0 -60.16c21.04,12.22 38.16,20.05 50.86,22.99 12.72,3.41 22.99,2.43 30.82,-2.94 7.83,-4.89 14.18,-15.18 20.06,-29.84l49.9 28.86 0 541.47 -74.35 -42.54 0 -412.86 0 -0.47z"/>
    <path class="fil0" d="M14383.61 13055.39c-19.08,-34.74 -28.87,-73.87 -28.87,-117.39l0 -284.7c0,-43.52 9.79,-71.41 28.87,-83.63 19.07,-12.73 46.96,-8.33 83.63,12.7 36.7,21.03 64.08,48.92 83.66,83.66 19.08,34.71 28.84,73.85 28.84,117.4l0 284.66c0,43.55 -9.76,71.41 -28.84,83.66 -19.07,12.7 -46.96,8.31 -83.66,-12.72 -36.67,-21.04 -64.05,-48.93 -83.63,-83.64zm121.78 -24.47l0 -295.44c0,-35.71 -12.7,-60.64 -38.62,-75.32 -25.43,-14.69 -38.66,-4.4 -38.66,31.3l0 295.43c0,35.72 12.73,60.67 38.66,75.33 25.42,14.68 38.62,4.42 38.62,-31.3z"/>
   </g>
   <g>
    <path class="fil0" d="M14724.97 8821.03c-19.07,-34.74 -28.84,-73.88 -28.84,-117.4l0 -284.69c0,-43.53 9.77,-71.41 28.84,-83.64 19.08,-12.72 46.97,-8.33 83.66,12.7 36.2,21.04 64.09,48.93 83.64,83.67 19.08,34.71 28.86,73.84 28.86,117.39l0 284.67c0,43.55 -9.78,71.41 -28.86,83.66 -19.08,12.7 -46.96,8.31 -83.64,-12.73 -36.19,-21.03 -64.08,-48.92 -83.66,-83.63zm121.82 -24.48l0 -295.43c0,-35.72 -12.73,-60.67 -38.66,-75.33 -25.43,-14.68 -38.63,-4.42 -38.63,31.3l0 295.44c0,35.71 12.7,60.66 38.63,75.32 25.45,14.69 38.66,4.42 38.66,-31.3z"/>
    <path class="fil0" d="M14724.97 9559.77c-19.07,-34.71 -28.84,-73.85 -28.84,-117.4l0 -284.66c0,-43.53 9.77,-71.41 28.84,-83.64 19.08,-12.72 46.97,-8.33 83.66,12.7 36.2,21.04 64.09,48.93 83.64,83.66 19.08,34.72 28.86,73.85 28.86,117.37l0 284.7c0,43.52 -9.78,71.41 -28.86,83.63 -19.08,12.73 -46.96,8.34 -83.64,-12.7 -36.19,-21.03 -64.08,-48.92 -83.66,-83.66zm121.82 -24.45l0 -295.43c0,-35.72 -12.73,-60.67 -38.66,-75.33 -25.43,-14.68 -38.63,-4.42 -38.63,31.3l0 295.44c0,35.71 12.7,60.66 38.63,75.32 25.45,14.69 38.66,4.42 38.66,-31.3z"/>
    <path class="fil1" d="M14724.97 10298.25c-19.07,-34.74 -28.84,-73.87 -28.84,-117.4l0 -284.69c0,-43.52 9.77,-71.41 28.84,-83.63 19.08,-12.73 46.97,-8.34 83.66,12.7 36.2,21.03 64.09,48.92 83.64,83.66 19.08,34.71 28.86,73.84 28.86,117.39l0 284.67c0,43.55 -9.78,71.41 -28.86,83.66 -19.08,12.7 -46.96,8.31 -83.64,-12.73 -36.19,-21.03 -64.08,-48.92 -83.66,-83.63zm121.82 -24.48l0 -295.43c0,-35.72 -12.73,-60.67 -38.66,-75.33 -25.43,-14.68 -38.63,-4.42 -38.63,31.3l0 295.44c0,35.72 12.7,60.67 38.63,75.32 25.45,14.69 38.66,4.42 38.66,-31.3z"/>
    <path class="fil0" d="M14804.67 10697.8l-77.29 -44.51 0 -60.16c21.03,12.22 38.15,20.05 50.88,22.99 12.73,3.41 22.99,2.43 30.82,-2.94 7.84,-4.89 14.19,-15.16 20.06,-29.84l49.87 28.86 0 541.47 -74.34 -42.54 0 -412.83 0 -0.5z"/>
    <path class="fil0" d="M14804.67 11436.46l-77.29 -44.5 0 -60.17c21.03,12.22 38.15,20.06 50.88,22.99 12.73,3.42 22.99,2.44 30.82,-2.93 7.84,-4.9 14.19,-15.17 20.06,-29.85l49.87 28.87 0 541.47 -74.34 -42.55 0 -412.83 0 -0.5z"/>
    <path class="fil0" d="M14804.67 12175.02l-77.29 -44.51 0 -60.16c21.03,12.22 38.15,20.05 50.88,22.99 12.73,3.41 22.99,2.43 30.82,-2.94 7.84,-4.89 14.19,-15.16 20.06,-29.84l49.87 28.86 0 541.47 -74.34 -42.54 0 -412.83 0 -0.5z"/>
    <path class="fil0" d="M14724.97 13252.69c-19.07,-34.74 -28.84,-73.87 -28.84,-117.39l0 -284.7c0,-43.52 9.77,-71.41 28.84,-83.63 19.08,-12.73 46.97,-8.34 83.66,12.7 36.2,21.03 64.09,48.92 83.64,83.66 19.08,34.71 28.86,73.85 28.86,117.4l0 284.66c0,43.55 -9.78,71.41 -28.86,83.66 -19.08,12.7 -46.96,8.31 -83.64,-12.72 -36.19,-21.04 -64.08,-48.93 -83.66,-83.64zm121.82 -24.47l0 -295.44c0,-35.72 -12.73,-60.64 -38.66,-75.32 -25.43,-14.69 -38.63,-4.4 -38.63,31.3l0 295.43c0,35.72 12.7,60.67 38.63,75.33 25.45,14.68 38.66,4.42 38.66,-31.3z"/>
   </g>
   <g>
    <path class="fil1" d="M15146.22 8679.21l-77.29 -44.5 0 -60.17c21.04,12.22 38.15,20.06 50.85,22.99 12.73,3.42 23,2.44 30.83,-2.93 7.83,-4.9 14.18,-15.16 20.05,-29.85l49.9 28.87 0 541.47 -74.34 -42.55 0 -412.83 0 -0.5z"/>
    <path class="fil1" d="M15146.22 9417.98l-77.29 -44.5 0 -60.17c21.04,12.22 38.15,20.06 50.85,22.99 12.73,3.42 23,2.44 30.83,-2.93 7.83,-4.9 14.18,-15.17 20.05,-29.85l49.9 28.87 0 541.47 -74.34 -42.55 0 -412.83 0 -0.5z"/>
    <path class="fil1" d="M15146.22 10156.43l-77.29 -44.5 0 -60.17c21.04,12.23 38.15,20.06 50.85,22.99 12.73,3.42 23,2.44 30.83,-2.93 7.83,-4.9 14.18,-15.16 20.05,-29.85l49.9 28.87 0 541.47 -74.34 -42.55 0 -412.83 0 -0.5z"/>
    <path class="fil0" d="M15065.99 11233.89c-19.07,-34.74 -28.86,-73.87 -28.86,-117.39l0 -284.69c0,-43.53 9.79,-71.41 28.86,-83.64 19.08,-12.72 46.97,-8.31 83.67,12.73 36.19,21.03 64.05,48.89 83.63,83.63 19.08,34.74 28.87,73.87 28.87,117.4l0 284.66c0,43.55 -9.79,71.44 -28.87,83.67 -19.08,12.7 -46.96,8.3 -83.63,-12.73 -36.2,-21.04 -64.09,-48.92 -83.67,-83.64zm121.82 -24.47l0 -295.43c0,-35.7 -12.73,-60.65 -38.66,-75.33 -25.42,-14.66 -38.63,-4.39 -38.63,31.3l0 295.46c0,35.69 12.7,60.64 38.63,75.33 25.43,14.65 38.66,4.39 38.66,-31.33z"/>
    <path class="fil1" d="M15065.99 11972.03c-19.07,-34.71 -28.86,-73.85 -28.86,-117.4l0 -284.66c0,-43.55 9.79,-71.41 28.86,-83.66 19.08,-12.7 46.97,-8.31 83.67,12.72 36.19,21.04 64.05,48.92 83.63,83.64 19.08,34.74 28.87,73.87 28.87,117.39l0 284.7c0,43.52 -9.79,71.41 -28.87,83.63 -19.08,12.73 -46.96,8.33 -83.63,-12.7 -36.2,-21.03 -64.09,-48.92 -83.67,-83.66zm121.82 -24.45l0 -295.43c0,-35.72 -12.73,-60.67 -38.66,-75.33 -25.42,-14.68 -38.63,-4.42 -38.63,31.3l0 295.43c0,35.72 12.7,60.65 38.63,75.33 25.43,14.69 38.66,4.39 38.66,-31.3z"/>
    <path class="fil0" d="M15065.99 12710.69c-19.07,-34.71 -28.86,-73.84 -28.86,-117.39l0 -284.67c0,-43.55 9.79,-71.41 28.86,-83.66 19.08,-12.7 46.97,-8.31 83.67,12.73 36.19,21.03 64.05,48.92 83.63,83.63 19.08,34.74 28.87,73.87 28.87,117.4l0 284.69c0,43.52 -9.79,71.41 -28.87,83.63 -19.08,12.73 -46.96,8.34 -83.63,-12.7 -36.2,-21.03 -64.09,-48.92 -83.67,-83.66zm121.82 -24.45l0 -295.43c0,-35.72 -12.73,-60.67 -38.66,-75.33 -25.42,-14.68 -38.63,-4.41 -38.63,31.3l0 295.44c0,35.72 12.7,60.64 38.63,75.33 25.43,14.68 38.66,4.39 38.66,-31.31z"/>
    <path class="fil1" d="M15146.22 13110.87l-77.29 -44.5 0 -60.16c21.04,12.22 38.15,20.05 50.85,22.99 12.73,3.41 23,2.46 30.83,-2.94 7.83,-4.89 14.18,-15.16 20.05,-29.84l49.9 28.86 0 541.5 -74.34 -42.57 0 -412.83 0 -0.51z"/>
   </g>
   <g>
    <path class="fil0" d="M11667.39 6704.04l-77.28 -44.5 0 -60.17c21.03,12.23 38.15,20.06 50.88,23 12.7,3.41 22.99,2.43 30.82,-2.94 7.81,-4.9 14.18,-15.16 20.03,-29.85l49.9 28.87 0 541.47 -74.35 -42.55 0 -412.85 0 -0.48z"/>
    <path class="fil0" d="M11587.2 7781.19c-19.08,-34.74 -28.87,-73.87 -28.87,-117.4l0 -284.69c0,-43.52 9.79,-71.41 28.87,-83.63 19.08,-12.73 46.96,-8.31 83.63,12.72 36.2,21.04 64.09,48.9 83.64,83.64 19.08,34.71 28.87,73.84 28.87,117.39l0 284.67c0,43.55 -9.79,71.43 -28.87,83.66 -19.08,12.7 -46.94,8.31 -83.64,-12.73 -36.19,-21.03 -64.08,-48.92 -83.63,-83.63zm121.79 -24.48l0 -295.43c0,-35.69 -12.73,-60.64 -38.63,-75.33 -25.45,-14.68 -38.66,-4.39 -38.66,31.3l0 295.46c0,35.7 12.73,60.65 38.66,75.33 25.42,14.66 38.63,4.39 38.63,-31.33z"/>
    <path class="fil0" d="M11667.39 8180.84l-77.28 -44.5 0 -60.17c21.03,12.23 38.15,20.06 50.88,22.99 12.7,3.42 22.99,2.44 30.82,-2.93 7.81,-4.9 14.18,-15.16 20.03,-29.85l49.9 28.87 0 541.49 -74.35 -42.57 0 -412.83 0 -0.5z"/>
    <path class="fil0" d="M11587.2 9258.3c-19.08,-34.74 -28.87,-73.87 -28.87,-117.39l0 -284.69c0,-43.53 9.79,-71.42 28.87,-83.64 19.08,-12.73 46.96,-8.31 83.63,12.73 36.2,21.03 64.09,48.89 83.64,83.63 19.08,34.74 28.87,73.87 28.87,117.4l0 284.69c0,43.52 -9.79,71.41 -28.87,83.63 -19.08,12.73 -46.94,8.31 -83.64,-12.72 -36.19,-21.04 -64.08,-48.92 -83.63,-83.64zm121.79 -24.44l0 -295.46c0,-35.7 -12.73,-60.65 -38.63,-75.33 -25.45,-14.66 -38.66,-4.39 -38.66,31.3l0 295.46c0,35.69 12.73,60.64 38.66,75.33 25.42,14.65 38.63,4.39 38.63,-31.3z"/>
    <path class="fil0" d="M11587.2 9996.86c-19.08,-34.74 -28.87,-73.87 -28.87,-117.39l0 -284.7c0,-43.52 9.79,-71.41 28.87,-83.63 19.08,-12.73 46.96,-8.31 83.63,12.73 36.2,21.03 64.09,48.89 83.64,83.63 19.08,34.74 28.87,73.87 28.87,117.4l0 284.69c0,43.52 -9.79,71.41 -28.87,83.63 -19.08,12.73 -46.94,8.31 -83.64,-12.72 -36.19,-21.04 -64.08,-48.9 -83.63,-83.64zm121.79 -24.45l0 -295.46c0,-35.69 -12.73,-60.64 -38.63,-75.32 -25.45,-14.66 -38.66,-4.4 -38.66,31.3l0 295.46c0,35.69 12.73,60.64 38.66,75.32 25.42,14.66 38.63,4.4 38.63,-31.3z"/>
    <path class="fil0" d="M11667.39 10396.54l-77.28 -44.53 0 -60.16c21.03,12.25 38.15,20.05 50.88,22.99 12.7,3.44 22.99,2.46 30.82,-2.94 7.81,-4.89 14.18,-15.16 20.03,-29.82l49.9 28.84 0 541.5 -74.35 -42.57 0 -412.83 0 -0.48z"/>
    <path class="fil0" d="M11587.2 11474.08c-19.08,-34.74 -28.87,-73.87 -28.87,-117.39l0 -284.69c0,-43.53 9.79,-71.42 28.87,-83.64 19.08,-12.73 46.96,-8.31 83.63,12.73 36.2,21.03 64.09,48.92 83.64,83.63 19.08,34.74 28.87,73.87 28.87,117.4l0 284.69c0,43.52 -9.79,71.41 -28.87,83.63 -19.08,12.73 -46.94,8.31 -83.64,-12.72 -36.19,-21.04 -64.08,-48.9 -83.63,-83.64zm121.79 -24.44l0 -295.46c0,-35.7 -12.73,-60.65 -38.63,-75.33 -25.45,-14.66 -38.66,-4.39 -38.66,31.3l0 295.46c0,35.69 12.73,60.64 38.66,75.33 25.42,14.65 38.63,4.39 38.63,-31.3z"/>
   </g>
   <g>
    <path class="fil1" d="M11928.62 7239.51c-19.08,-34.74 -28.87,-73.85 -28.87,-117.4l0 -284.67c0,-43.55 9.79,-71.43 28.87,-83.66 19.07,-12.7 46.96,-8.3 83.63,12.73 36.2,21.03 64.08,48.92 83.66,83.64 19.08,34.73 28.84,73.87 28.84,117.39l0 284.69c0,43.53 -9.76,71.41 -28.84,83.64 -19.07,12.72 -46.96,8.3 -83.66,-12.73 -36.67,-21.03 -64.05,-48.89 -83.63,-83.63zm121.79 -24.45l0 -295.46c0,-35.69 -12.7,-60.64 -38.63,-75.33 -25.43,-14.66 -38.66,-4.39 -38.66,31.33l0 295.43c0,35.69 12.73,60.64 38.66,75.33 25.42,14.68 38.63,4.39 38.63,-31.3z"/>
    <path class="fil0" d="M11928.62 7978.28c-19.08,-34.74 -28.87,-73.88 -28.87,-117.4l0 -284.69c0,-43.53 9.79,-71.41 28.87,-83.64 19.07,-12.72 46.96,-8.3 83.63,12.73 36.7,21.03 64.08,48.92 83.66,83.63 19.08,34.74 28.84,73.88 28.84,117.4l0 284.69c0,43.53 -9.76,71.41 -28.84,83.64 -19.07,12.72 -46.96,8.3 -83.66,-12.73 -36.19,-21.03 -64.05,-48.89 -83.63,-83.63zm121.79 -24.45l0 -295.46c0,-35.69 -12.7,-60.64 -38.63,-75.33 -25.43,-14.66 -38.66,-4.39 -38.66,31.3l0 295.46c0,35.69 12.73,60.64 38.66,75.33 25.42,14.66 38.63,4.39 38.63,-31.3z"/>
    <path class="fil0" d="M11928.62 8716.73c-19.08,-34.72 -28.87,-73.85 -28.87,-117.4l0 -284.66c0,-43.55 9.79,-71.44 28.87,-83.66 19.07,-12.7 46.96,-8.31 83.63,12.72 36.7,21.04 64.08,48.92 83.66,83.64 19.08,34.74 28.84,73.87 28.84,117.39l0 284.69c0,43.53 -9.76,71.42 -28.84,83.64 -19.07,12.73 -46.96,8.31 -83.66,-12.73 -36.67,-21.03 -64.05,-48.89 -83.63,-83.63zm121.79 -24.45l0 -295.46c0,-35.69 -12.7,-60.64 -38.63,-75.33 -25.43,-14.66 -38.66,-4.39 -38.66,31.33l0 295.43c0,35.7 12.73,60.65 38.66,75.33 25.42,14.68 38.63,4.39 38.63,-31.3z"/>
    <path class="fil1" d="M12008.81 9116.3l-77.28 -44.5 0 -60.17c21.03,12.23 38.15,20.06 50.88,22.99 12.72,3.42 22.99,2.44 30.82,-2.93 7.83,-4.9 14.18,-15.19 20.06,-29.85l49.9 28.87 0 541.47 -74.38 -42.55 0 -412.85 0 -0.48z"/>
    <path class="fil0" d="M12008.81 9854.97l-77.28 -44.51 0 -60.16c21.03,12.22 38.15,20.05 50.88,22.96 12.72,3.44 22.99,2.46 30.82,-2.91 7.83,-4.89 14.18,-15.19 20.06,-29.84l49.9 28.86 0 541.47 -74.38 -42.54 0 -412.86 0 -0.47z"/>
    <path class="fil0" d="M12008.81 10593.52l-77.28 -44.5 0 -60.17c21.03,12.23 38.15,20.06 50.88,23 12.72,3.41 22.99,2.43 30.82,-2.94 7.83,-4.9 14.18,-15.16 20.06,-29.85l49.9 28.87 0 541.47 -74.38 -42.54 0 -412.86 0 -0.48z"/>
    <path class="fil0" d="M11928.62 11670.77c-19.08,-34.74 -28.87,-73.87 -28.87,-117.39l0 -284.69c0,-43.53 9.79,-71.41 28.87,-83.64 19.07,-12.72 46.96,-8.33 83.63,12.7 36.7,21.04 64.08,48.92 83.66,83.66 19.08,34.72 28.84,73.85 28.84,117.4l0 284.66c0,43.55 -9.76,71.42 -28.84,83.67 -19.07,12.7 -46.96,8.3 -83.66,-12.73 -36.19,-21.04 -64.05,-48.92 -83.63,-83.64zm121.79 -24.47l0 -295.43c0,-35.72 -12.7,-60.67 -38.63,-75.33 -25.43,-14.68 -38.66,-4.42 -38.66,31.3l0 295.43c0,35.72 12.73,60.67 38.66,75.33 25.42,14.68 38.63,4.42 38.63,-31.3z"/>
   </g>
   <g>
    <path class="fil0" d="M12349.73 7097.93l-77.29 -44.53 0 -60.17c21.04,12.25 38.16,20.06 50.88,22.99 12.73,3.44 23,2.46 30.83,-2.93 7.8,-4.87 14.18,-15.16 20.05,-29.82l49.88 28.84 0 541.49 -74.35 -42.57 0 -412.83 0 -0.47z"/>
    <path class="fil1" d="M12349.73 7836.7l-77.29 -44.53 0 -60.17c21.04,12.25 38.16,20.06 50.88,22.99 12.73,3.44 23,2.46 30.83,-2.93 7.8,-4.9 14.18,-15.16 20.05,-29.82l49.88 28.84 0 541.49 -74.35 -42.57 0 -412.83 0 -0.47z"/>
    <path class="fil1" d="M12349.73 8575.15l-77.29 -44.53 0 -60.17c21.04,12.25 38.16,20.06 50.88,23 12.73,3.44 23,2.46 30.83,-2.94 7.8,-4.87 14.18,-15.16 20.05,-29.82l49.88 28.84 0 541.5 -74.35 -42.58 0 -412.82 0 -0.48z"/>
    <path class="fil1" d="M12269.53 9652.19c-19.07,-34.74 -28.86,-73.87 -28.86,-117.4l0 -284.69c0,-43.52 9.79,-71.41 28.86,-83.63 19.08,-12.73 46.97,-8.34 83.64,12.7 36.7,21.03 64.08,48.92 83.63,83.66 19.08,34.71 28.87,73.84 28.87,117.39l0 284.67c0,43.55 -9.79,71.41 -28.87,83.66 -19.07,12.7 -46.93,8.31 -83.63,-12.73 -36.2,-21.03 -64.08,-48.92 -83.64,-83.63zm121.79 -24.48l0 -295.43c0,-35.72 -12.73,-60.64 -38.63,-75.33 -25.45,-14.68 -38.65,-4.39 -38.65,31.3l0 295.44c0,35.72 12.72,60.67 38.65,75.32 25.43,14.69 38.63,4.42 38.63,-31.3z"/>
    <path class="fil0" d="M12269.53 10390.75c-19.07,-34.74 -28.86,-73.88 -28.86,-117.4l0 -284.69c0,-43.52 9.79,-71.41 28.86,-83.64 19.08,-12.72 46.97,-8.3 83.64,12.7 36.19,21.04 64.08,48.93 83.63,83.67 19.08,34.71 28.87,73.84 28.87,117.39l0 284.67c0,43.55 -9.79,71.41 -28.87,83.66 -19.07,12.7 -46.93,8.31 -83.63,-12.73 -36.67,-21.03 -64.08,-48.92 -83.64,-83.63zm121.79 -24.48l0 -295.43c0,-35.72 -12.73,-60.64 -38.63,-75.33 -25.45,-14.68 -38.65,-4.39 -38.65,31.3l0 295.44c0,35.71 12.72,60.66 38.65,75.32 25.9,14.69 38.63,4.42 38.63,-31.3z"/>
    <path class="fil0" d="M12269.53 11129.41c-19.07,-34.74 -28.86,-73.87 -28.86,-117.4l0 -284.69c0,-43.52 9.79,-71.41 28.86,-83.63 19.08,-12.73 46.97,-8.31 83.64,12.7 36.7,21.03 64.08,48.92 83.63,83.66 19.08,34.71 28.87,73.84 28.87,117.39l0 284.67c0,43.55 -9.79,71.41 -28.87,83.66 -19.07,12.7 -46.93,8.31 -83.63,-12.73 -36.2,-21.03 -64.08,-48.92 -83.64,-83.63zm121.79 -24.47l0 -295.44c0,-35.72 -12.73,-60.64 -38.63,-75.32 -25.45,-14.69 -38.65,-4.4 -38.65,31.3l0 295.43c0,35.72 12.72,60.67 38.65,75.33 25.43,14.68 38.63,4.41 38.63,-31.3z"/>
    <path class="fil1" d="M12349.73 11529.17l-77.29 -44.5 0 -60.17c21.04,12.22 38.16,20.06 50.88,22.99 12.73,3.42 23,2.44 30.83,-2.93 7.8,-4.9 14.18,-15.17 20.05,-29.85l49.88 28.87 0 541.47 -74.35 -42.55 0 -412.83 0 -0.5z"/>
   </g>
   <g>
    <path class="fil0" d="M12632.97 7648.15c-19.08,-34.71 -28.87,-73.84 -28.87,-117.39l0 -284.67c0,-43.52 9.79,-71.41 28.87,-83.63 19.07,-12.73 46.96,-8.34 83.63,12.7 36.22,21.03 64.08,48.92 83.66,83.66 19.08,34.71 28.87,73.85 28.87,117.37l0 284.69c0,43.53 -9.79,71.41 -28.87,83.64 -19.08,12.72 -46.96,8.33 -83.66,-12.7 -36.2,-21.04 -64.06,-48.93 -83.63,-83.67zm121.78 -24.44l0 -295.44c0,-35.72 -12.7,-60.67 -38.63,-75.32 -25.42,-14.69 -38.65,-4.42 -38.65,31.3l0 295.43c0,35.72 12.72,60.67 38.65,75.33 25.43,14.68 38.63,4.42 38.63,-31.3z"/>
    <path class="fil0" d="M12713.19 8047.83l-77.29 -44.5 0 -60.16c21.04,12.22 38.15,20.05 50.85,22.99 12.73,3.41 23,2.43 30.83,-2.94 7.83,-4.89 14.18,-15.16 20.05,-29.84l49.9 28.86 0 541.47 -74.34 -42.54 0 -412.83 0 -0.51z"/>
    <path class="fil1" d="M12632.97 9125.38c-19.08,-34.72 -28.87,-73.85 -28.87,-117.4l0 -284.66c0,-43.53 9.79,-71.42 28.87,-83.64 19.07,-12.73 46.96,-8.33 83.63,12.7 36.22,21.04 64.08,48.92 83.66,83.66 19.08,34.72 28.87,73.85 28.87,117.4l0 284.66c0,43.53 -9.79,71.41 -28.87,83.64 -19.08,12.72 -46.96,8.33 -83.66,-12.7 -36.2,-21.04 -64.06,-48.92 -83.63,-83.66zm121.78 -24.45l0 -295.43c0,-35.72 -12.7,-60.67 -38.63,-75.33 -25.42,-14.69 -38.65,-4.42 -38.65,31.3l0 295.43c0,35.72 12.72,60.67 38.65,75.33 25.43,14.68 38.63,4.42 38.63,-31.3z"/>
    <path class="fil1" d="M12632.97 9863.93c-19.08,-34.71 -28.87,-73.84 -28.87,-117.36l0 -284.7c0,-43.52 9.79,-71.41 28.87,-83.63 19.07,-12.73 46.96,-8.34 83.63,12.7 36.22,21.03 64.08,48.92 83.66,83.66 19.08,34.71 28.87,73.85 28.87,117.4l0 284.66c0,43.55 -9.79,71.41 -28.87,83.64 -19.08,12.72 -46.96,8.33 -83.66,-12.7 -36.2,-21.04 -64.06,-48.93 -83.63,-83.67zm121.78 -24.44l0 -295.44c0,-35.72 -12.7,-60.67 -38.63,-75.32 -25.42,-14.69 -38.65,-4.42 -38.65,31.3l0 295.43c0,35.72 12.72,60.67 38.65,75.33 25.43,14.68 38.63,4.42 38.63,-31.3z"/>
    <path class="fil0" d="M12713.19 10263.61l-77.29 -44.5 0 -60.17c21.04,12.23 38.15,20.06 50.85,23 12.73,3.41 23,2.43 30.83,-2.94 7.83,-4.89 14.18,-15.16 20.05,-29.84l49.9 28.86 0 541.47 -74.34 -42.54 0 -412.83 0 -0.51z"/>
    <path class="fil0" d="M12632.97 11341.08c-19.08,-34.74 -28.87,-73.87 -28.87,-117.4l0 -284.69c0,-43.52 9.79,-71.41 28.87,-83.64 19.07,-12.72 46.96,-8.33 83.63,12.7 36.22,21.04 64.08,48.93 83.66,83.67 19.08,34.71 28.87,73.84 28.87,117.39l0 284.67c0,43.55 -9.79,71.41 -28.87,83.66 -19.08,12.7 -46.96,8.31 -83.66,-12.73 -36.2,-21.03 -64.06,-48.92 -83.63,-83.63zm121.78 -24.48l0 -295.43c0,-35.72 -12.7,-60.64 -38.63,-75.33 -25.42,-14.68 -38.65,-4.39 -38.65,31.3l0 295.44c0,35.71 12.72,60.67 38.65,75.32 25.43,14.69 38.63,4.42 38.63,-31.3z"/>
    <path class="fil1" d="M12713.19 11740.84l-77.29 -44.51 0 -60.16c21.04,12.22 38.15,20.05 50.85,22.99 12.73,3.41 23,2.43 30.83,-2.94 7.83,-4.89 14.18,-15.16 20.05,-29.84l49.9 28.86 0 541.47 -74.34 -42.54 0 -412.83 0 -0.5z"/>
   </g>
   <g>
    <path class="fil1" d="M13054.61 7506.15l-77.29 -44.5 0 -60.17c21.03,12.23 38.15,20.06 50.85,23 12.73,3.41 23,2.43 30.83,-2.94 7.83,-4.9 14.18,-15.16 20.05,-29.85l49.9 28.87 0 541.5 -74.34 -42.57 0 -412.83 0 -0.51z"/>
    <path class="fil1" d="M12974.38 8583.3c-19.07,-34.72 -28.84,-73.85 -28.84,-117.4l0 -284.66c0,-43.55 9.77,-71.44 28.84,-83.66 19.08,-12.7 46.97,-8.31 83.66,12.72 36.68,21.04 64.09,48.92 83.64,83.64 19.08,34.74 28.87,73.87 28.87,117.39l0 284.69c0,43.53 -9.79,71.42 -28.87,83.64 -19.08,12.73 -46.96,8.31 -83.64,-12.73 -36.19,-21 -64.08,-48.89 -83.66,-83.63zm121.82 -24.45l0 -295.46c0,-35.69 -12.73,-60.64 -38.66,-75.33 -25.42,-14.65 -38.63,-4.39 -38.63,31.33l0 295.43c0,35.72 12.7,60.65 38.63,75.33 25.45,14.69 38.66,4.39 38.66,-31.3z"/>
    <path class="fil1" d="M13054.61 8983.37l-77.29 -44.5 0 -60.16c21.03,12.22 38.15,20.05 50.85,22.99 12.73,3.41 23,2.46 30.83,-2.94 7.83,-4.89 14.18,-15.16 20.05,-29.84l49.9 28.86 0 541.5 -74.34 -42.57 0 -412.83 0 -0.51z"/>
    <path class="fil0" d="M12974.38 10060.41c-19.07,-34.71 -28.84,-73.84 -28.84,-117.39l0 -284.67c0,-43.55 9.77,-71.41 28.84,-83.66 19.08,-12.7 46.97,-8.31 83.66,12.73 36.2,21.03 64.09,48.92 83.64,83.63 19.08,34.74 28.87,73.87 28.87,117.4l0 284.69c0,43.52 -9.79,71.41 -28.87,83.64 -19.08,12.72 -46.96,8.33 -83.64,-12.7 -36.69,-21.04 -64.08,-48.93 -83.66,-83.67zm121.82 -24.44l0 -295.44c0,-35.72 -12.73,-60.67 -38.66,-75.32 -25.42,-14.69 -38.63,-4.42 -38.63,31.3l0 295.43c0,35.72 12.7,60.64 38.63,75.33 25.45,14.68 38.66,4.39 38.66,-31.3z"/>
    <path class="fil1" d="M12974.38 10798.97c-19.07,-34.71 -28.84,-73.84 -28.84,-117.39l0 -284.67c0,-43.55 9.77,-71.41 28.84,-83.63 19.08,-12.73 46.97,-8.34 83.66,12.7 36.68,21.03 64.09,48.92 83.64,83.63 19.08,34.74 28.87,73.87 28.87,117.4l0 284.69c0,43.52 -9.79,71.41 -28.87,83.63 -19.08,12.73 -46.96,8.34 -83.64,-12.7 -36.19,-21.03 -64.08,-48.92 -83.66,-83.66zm121.82 -24.45l0 -295.43c0,-35.72 -12.73,-60.67 -38.66,-75.33 -25.42,-14.68 -38.63,-4.41 -38.63,31.3l0 295.44c0,35.72 12.7,60.67 38.63,75.32 25.45,14.69 38.66,4.42 38.66,-31.3z"/>
    <path class="fil0" d="M13054.61 11199.07l-77.29 -44.52 0 -60.17c21.03,12.25 38.15,20.05 50.85,22.99 12.73,3.44 23,2.46 30.83,-2.94 7.83,-4.89 14.18,-15.16 20.05,-29.81l49.9 28.84 0 541.49 -74.34 -42.57 0 -412.83 0 -0.48z"/>
    <path class="fil0" d="M12974.38 12276.19c-19.07,-34.71 -28.84,-73.84 -28.84,-117.39l0 -284.67c0,-43.55 9.77,-71.41 28.84,-83.63 19.08,-12.73 46.97,-8.34 83.66,12.7 36.2,21.03 64.09,48.92 83.64,83.66 19.08,34.71 28.87,73.84 28.87,117.37l0 284.69c0,43.52 -9.79,71.41 -28.87,83.63 -19.08,12.73 -46.96,8.34 -83.64,-12.7 -36.69,-21.03 -64.08,-48.92 -83.66,-83.66zm121.82 -24.44l0 -295.44c0,-35.72 -12.73,-60.67 -38.66,-75.32 -25.42,-14.69 -38.63,-4.42 -38.63,31.3l0 295.43c0,35.72 12.7,60.67 38.63,75.33 25.45,14.68 38.66,4.41 38.66,-31.3z"/>
   </g>
   <g>
    <path class="fil1" d="M13315.35 8041.83c-19.07,-34.71 -28.86,-73.85 -28.86,-117.4l0 -284.66c0,-43.55 9.79,-71.41 28.86,-83.66 19.08,-12.7 46.97,-8.31 83.64,12.72 36.69,21.04 64.08,48.92 83.66,83.64 19.07,34.74 28.84,73.87 28.84,117.39l0 284.69c0,43.53 -9.77,71.42 -28.84,83.64 -19.08,12.73 -46.97,8.33 -83.66,-12.7 -36.2,-21.03 -64.06,-48.92 -83.64,-83.66zm121.82 -24.45l0 -295.43c0,-35.72 -12.73,-60.67 -38.66,-75.33 -25.43,-14.68 -38.66,-4.42 -38.66,31.3l0 295.43c0,35.72 12.73,60.65 38.66,75.33 25.43,14.69 38.66,4.39 38.66,-31.3z"/>
    <path class="fil1" d="M13315.35 8780.6c-19.07,-34.72 -28.86,-73.85 -28.86,-117.4l0 -284.66c0,-43.55 9.79,-71.41 28.86,-83.66 19.08,-12.7 46.97,-8.31 83.64,12.72 36.69,21.04 64.08,48.92 83.66,83.64 19.07,34.74 28.84,73.87 28.84,117.39l0 284.69c0,43.53 -9.77,71.42 -28.84,83.64 -19.08,12.73 -46.97,8.31 -83.66,-12.73 -36.67,-21.01 -64.06,-48.89 -83.64,-83.63zm121.82 -24.45l0 -295.43c0,-35.72 -12.73,-60.67 -38.66,-75.36 -25.43,-14.65 -38.66,-4.39 -38.66,31.33l0 295.43c0,35.72 12.73,60.65 38.66,75.33 25.43,14.69 38.66,4.39 38.66,-31.3z"/>
    <path class="fil0" d="M13315.35 9519.05c-19.07,-34.71 -28.86,-73.85 -28.86,-117.4l0 -284.66c0,-43.55 9.79,-71.41 28.86,-83.64 19.08,-12.72 46.97,-8.33 83.64,12.7 36.22,21.04 64.08,48.93 83.66,83.64 19.07,34.74 28.84,73.87 28.84,117.39l0 284.7c0,43.52 -9.77,71.41 -28.84,83.63 -19.08,12.73 -46.97,8.34 -83.66,-12.7 -36.67,-21.03 -64.06,-48.92 -83.64,-83.66zm121.82 -24.45l0 -295.43c0,-35.72 -12.73,-60.67 -38.66,-75.33 -25.43,-14.68 -38.66,-4.42 -38.66,31.3l0 295.44c0,35.71 12.73,60.66 38.66,75.32 25.43,14.69 38.66,4.42 38.66,-31.3z"/>
    <path class="fil0" d="M13395.55 9918.62l-77.26 -44.5 0 -60.17c21.03,12.23 38.15,20.06 50.85,23 12.73,3.41 22.99,2.43 30.83,-2.94 7.83,-4.89 14.18,-15.16 20.05,-29.84l49.9 28.86 0 541.47 -74.37 -42.54 0 -412.83 0 -0.51z"/>
    <path class="fil0" d="M13395.55 10657.29l-77.26 -44.51 0 -60.16c21.03,12.22 38.15,20.05 50.85,22.99 12.73,3.41 22.99,2.43 30.83,-2.94 7.83,-4.89 14.18,-15.16 20.05,-29.84l49.9 28.86 0 541.47 -74.37 -42.54 0 -412.83 0 -0.5z"/>
    <path class="fil0" d="M13395.55 11395.85l-77.26 -44.51 0 -60.16c21.03,12.22 38.15,20.05 50.85,22.99 12.73,3.41 22.99,2.43 30.83,-2.94 7.83,-4.89 14.18,-15.16 20.05,-29.84l49.9 28.86 0 541.47 -74.37 -42.54 0 -412.83 0 -0.5z"/>
    <path class="fil0" d="M13315.35 12473.49c-19.07,-34.71 -28.86,-73.84 -28.86,-117.39l0 -284.67c0,-43.52 9.79,-71.41 28.86,-83.63 19.08,-12.73 46.97,-8.34 83.64,12.7 36.69,21.03 64.08,48.92 83.66,83.66 19.07,34.71 28.84,73.84 28.84,117.37l0 284.69c0,43.52 -9.77,71.41 -28.84,83.63 -19.08,12.73 -46.97,8.34 -83.66,-12.7 -36.2,-21.03 -64.06,-48.92 -83.64,-83.66zm121.82 -24.44l0 -295.44c0,-35.72 -12.73,-60.67 -38.66,-75.32 -25.43,-14.69 -38.66,-4.42 -38.66,31.3l0 295.43c0,35.72 12.73,60.67 38.66,75.33 25.43,14.68 38.66,4.41 38.66,-31.3z"/>
   </g>
   <g>
    <path class="fil0" d="M13736.99 7899.83l-77.28 -44.51 0 -60.16c21.03,12.22 38.15,20.05 50.88,22.99 12.7,3.41 22.96,2.43 30.79,-2.94 7.84,-4.89 14.19,-15.16 20.06,-29.84l49.9 28.86 0 541.47 -74.35 -42.54 0 -412.83 0 -0.5z"/>
    <path class="fil1" d="M13736.99 8638.6l-77.28 -44.51 0 -60.16c21.03,12.22 38.15,20.05 50.88,22.99 12.7,3.41 22.96,2.43 30.79,-2.94 7.84,-4.89 14.19,-15.16 20.06,-29.84l49.9 28.86 0 541.47 -74.35 -42.54 0 -412.83 0 -0.5z"/>
    <path class="fil0" d="M13736.99 9377.05l-77.28 -44.5 0 -60.17c21.03,12.22 38.15,20.05 50.88,22.99 12.7,3.41 22.96,2.44 30.79,-2.94 7.84,-4.89 14.19,-15.16 20.06,-29.84l49.9 28.87 0 541.47 -74.35 -42.55 0 -412.83 0 -0.5z"/>
    <path class="fil0" d="M13656.74 10454.51c-19.07,-34.74 -28.86,-73.87 -28.86,-117.39l0 -284.7c0,-43.52 9.79,-71.41 28.86,-83.63 19.08,-12.73 46.94,-8.31 83.64,12.73 36.19,21.03 64.08,48.89 83.63,83.63 19.08,34.74 28.87,73.87 28.87,117.4l0 284.66c0,43.55 -9.79,71.44 -28.87,83.66 -19.07,12.7 -46.96,8.31 -83.63,-12.72 -36.2,-21.04 -64.08,-48.93 -83.64,-83.64zm121.79 -24.47l0 -295.44c0,-35.69 -12.72,-60.64 -38.65,-75.32 -25.43,-14.69 -38.63,-4.4 -38.63,31.3l0 295.46c0,35.69 12.72,60.64 38.63,75.32 25.45,14.66 38.65,4.4 38.65,-31.32z"/>
    <path class="fil0" d="M13656.74 11193.17c-19.07,-34.74 -28.86,-73.87 -28.86,-117.39l0 -284.69c0,-43.53 9.79,-71.41 28.86,-83.64 19.08,-12.72 46.94,-8.31 83.64,12.73 36.19,21.03 64.08,48.89 83.63,83.63 19.08,34.74 28.87,73.88 28.87,117.4l0 284.66c0,43.56 -9.79,71.44 -28.87,83.67 -19.07,12.7 -46.96,8.3 -83.63,-12.73 -36.2,-21.03 -64.08,-48.92 -83.64,-83.64zm121.79 -24.47l0 -295.43c0,-35.7 -12.72,-60.65 -38.65,-75.33 -25.43,-14.68 -38.63,-4.39 -38.63,31.3l0 295.46c0,35.69 12.72,60.64 38.63,75.33 25.45,14.66 38.65,4.39 38.65,-31.33z"/>
    <path class="fil1" d="M13656.74 11931.31c-19.07,-34.71 -28.86,-73.85 -28.86,-117.4l0 -284.66c0,-43.55 9.79,-71.41 28.86,-83.66 19.08,-12.7 46.94,-8.31 83.64,12.72 36.19,21.04 64.08,48.93 83.63,83.64 19.08,34.74 28.87,73.87 28.87,117.39l0 284.7c0,43.52 -9.79,71.41 -28.87,83.63 -19.07,12.73 -46.96,8.31 -83.63,-12.7 -36.2,-21.03 -64.08,-48.92 -83.64,-83.66zm121.79 -24.45l0 -295.43c0,-35.72 -12.72,-60.67 -38.65,-75.33 -25.43,-14.68 -38.63,-4.42 -38.63,31.3l0 295.44c0,35.71 12.72,60.64 38.63,75.32 25.45,14.69 38.65,4.39 38.65,-31.3z"/>
    <path class="fil0" d="M13736.99 12331.49l-77.28 -44.5 0 -60.17c21.03,12.23 38.15,20.06 50.88,22.99 12.7,3.42 22.96,2.44 30.79,-2.93 7.84,-4.9 14.19,-15.16 20.06,-29.85l49.9 28.87 0 541.5 -74.35 -42.58 0 -412.83 0 -0.5z"/>
   </g>
  </g>
  <g id="_2723960372352">
   <path class="fil2" style="mask:url(#id0)" d="M7896.29 7587.46c1573.58,0 2849.24,-1275.64 2849.24,-2849.25 0,-1573.58 -1275.66,-2849.22 -2849.24,-2849.22 -1573.58,0 -2849.25,1275.64 -2849.25,2849.22 0,1573.61 1275.67,2849.25 2849.25,2849.25z"/>
  </g>
  <polygon class="fil3" points="12672.07,9831.68 10798.9,8750.44 10798.9,7757.16 12672.07,8838.41 "/>
  <polygon class="fil4" points="9407.38,7960.87 7534.71,6879.62 7534.71,5885.84 9407.38,6967.12 "/>
  <path class="fil5" d="M10971.33 5631.29l-1543.1 -890.85c-131.74,-76.04 -238.13,-279.88 -238.13,-455.35 0,-175.5 106.89,-256.04 238.13,-179.97l1543.1 890.85c131.73,76.07 238.12,279.88 238.12,455.38 0,175.47 -106.89,256.01 -238.12,179.94z"/>
  <path class="fil6" d="M10890.76 10475.36l-1543.1 -890.88c-131.74,-76.04 -238.12,-279.87 -238.12,-455.35 0,-175.49 106.89,-256.03 238.12,-179.97l1543.1 890.86c131.74,76.06 238.13,279.87 238.13,455.37 0,175.47 -106.89,256.01 -238.13,179.97z"/>
  <polygon class="fil7" points="11840.86,8058.18 11840.86,7537.19 11084.73,7112.66 11059.86,7155.9 11791.14,7566.03 11791.14,8029.84 11683.77,7967.72 11804.55,8278.42 11925.36,8107.42 "/>
  <polygon class="fil8" points="10171.07,5787.74 10291.85,5616.23 10197.42,5561.54 10197.42,5270.74 10147.71,5255.82 10147.71,5532.71 10050.26,5477.04 "/>
  <polygon class="fil7" points="8584.65,6442 8705.46,6270.97 8618.94,6220.78 8618.94,5745.51 9176.74,6068.65 9201.58,6025.89 8569.23,5659.52 8569.23,6192.44 8463.85,6131.3 "/>
  <polygon class="fil7" points="11666.87,9586.28 8485.25,7754.36 8485.25,7455.09 8435.54,7440.17 8435.54,7783.2 10147.63,8771.97 10147.63,9143.34 10050.21,9087.17 10170.99,9397.87 10291.8,9226.87 10197.34,9172.18 10197.34,8800.31 11679.3,9650.92 11716.58,9672.3 11716.58,9306.91 11666.87,9291.98 "/>
  <polygon class="fil9" points="10165.01,7380.77 9217.49,6051.45 10165.01,5816.29 11112.54,7145.63 "/>
  <g id="_2723960358672">
   <path class="fil10" d="M11139.13 9536.41c-428.84,-247.28 -776.4,-49.19 -776.4,442.46l0 726.7c0,492.13 347.56,1091.33 776.4,1338.61l4445.08 2575.93c428.83,247.25 933.1,24.32 933.1,-467.31l0 -726.73c0,-492.1 -504.27,-1066.48 -933.1,-1313.76l-4445.08 -2575.9z"/>
   <path class="fil11" d="M11115.74 9570.86c-426.38,-246.31 -772.48,-49.19 -772.48,440.5l0 672.23c0,489.66 345.6,1085.95 772.48,1332.25l4419.28 2561.3c426.4,246.3 913.66,26.78 913.66,-462.89l0 -672.22c0,-489.67 -487.26,-1063.57 -913.66,-1309.88l-4419.28 -2561.29z"/>
   <path class="fil12" d="M11092.8 9605.83c-424.47,-244.84 -768.62,-48.68 -768.62,438.07l0 617.22c0,487.26 344.15,1080.62 768.62,1325.46l4393.46 2546.22c424.47,244.84 894.18,29.21 894.18,-458.05l0 -617.19c0,-487.26 -469.71,-1060.66 -894.18,-1305.99l-4393.46 -2546.21 0 0.47z"/>
   <path class="fil13" d="M11069.52 9640.6c-422.52,-243.87 -764.7,-48.68 -764.7,436.14l0 562.19c0,484.82 342.18,1075.26 764.7,1319.13l4368.16 2531.61c422.51,243.87 874.71,31.17 874.71,-453.15l0 -562.21c0,-484.83 -452.2,-1057.73 -874.71,-1301.59l-4368.16 -2531.64 0 -0.48z"/>
   <path class="fil14" d="M11046.55 9674.86c-420.08,-242.41 -760.81,-48.2 -760.81,433.71l0 507.68c0,482.39 340.73,1069.9 760.81,1312.31l4342.37 2517.01c420.08,242.41 855.24,33.6 855.24,-448.79l0 -507.68c0,-482.39 -434.69,-1054.82 -855.24,-1297.71l-4342.37 -2517.03 0 0.5z"/>
   <path class="fil15" d="M11023.29 9710.24c-418.12,-241.43 -757.39,-48.18 -757.39,431.75l0 452.7c0,479.92 338.8,1064.52 757.39,1305.95l4316.57 2501.96c418.15,241.43 835.77,35.53 835.77,-443.92l0 -452.7c0,-479.93 -417.62,-1052.38 -835.77,-1293.82l-4316.57 -2501.92z"/>
   <path class="fil16" d="M11000.38 9744.61c-416.16,-240.46 -753.48,-47.71 -753.48,429.34l0 398.14c0,477.52 337.32,1059.21 753.48,1299.66l4291.28 2487.32c416.16,239.98 816.29,37.97 816.29,-439.52l0 -398.17c0,-477.52 -400.13,-1049.45 -816.29,-1289.42l-4291.28 -2487.35z"/>
   <path class="fil17" d="M10977.07 9779.77c-413.76,-239 -749.62,-47.7 -749.62,427.38l0 343.17c0,475.08 335.39,1053.83 749.62,1292.83l4265.45 2472.74c413.76,239 796.82,40.4 796.82,-434.68l0 -343.17c0,-475.08 -382.58,-1046.53 -796.82,-1285.53l-4265.45 -2472.74z"/>
   <path class="fil18" d="M10954.16 9814.46c-411.8,-238.02 -745.73,-47.23 -745.73,425.42l0 288.66c0,472.63 333.93,1048.47 745.73,1286.48l4240.16 2457.67c411.79,238.02 777.34,42.33 777.34,-430.32l0 -288.64c0,-472.65 -365.07,-1043.62 -777.34,-1281.13l-4240.16 -2457.67 0 -0.47z"/>
   <path class="fil19" d="M10930.77 9848.69c-409.84,-236.56 -741.81,-47.2 -741.81,422.99l0 233.66c0,470.21 331.97,1043.12 741.81,1279.68l4214.36 2443.06c409.84,236.56 757.4,44.77 757.4,-425.43l0 -233.65c0,-470.22 -348.04,-1040.68 -757.4,-1277.25l-4214.36 -2443.06z"/>
   <path class="fil20" d="M10907.41 9883.78c-407.44,-235.59 -737.93,-46.73 -737.93,421.06l0 178.64c0,467.76 330.49,1037.78 737.93,1273.36l4188.56 2427.95c407.41,235.59 737.92,46.73 737.92,-421.06l0 -178.62c0,-467.78 -330.51,-1037.77 -737.92,-1273.36l-4188.56 -2427.97z"/>
  </g>
  <path class="fil21" d="M15590.98 14629.08l-4900.19 -2838.29c-352.42,-203.47 -640.58,-754.49 -640.58,-1224.2l0 -333.43c0,-469.71 288.16,-687.78 640.58,-484.32l4900.19 2838.29c352.43,203.47 640.58,754.46 640.58,1224.2l0 333.43c0,469.72 -288.15,687.78 -640.58,484.32z"/>
  <path class="fil22" d="M12034.93 12123.95c248.1,-145.04 245.53,-611.05 -5.74,-1040.87 -251.25,-429.81 -656.06,-660.66 -904.16,-515.64 -248.1,145.04 -245.54,611.05 5.74,1040.87 251.25,429.81 656.06,660.66 904.16,515.64z"/>
  <path class="fil22" d="M13532.47 13015.36c248.1,-145.02 245.53,-611.03 -5.74,-1040.84 -251.28,-429.82 -656.09,-660.7 -904.19,-515.65 -248.07,145.02 -245.51,611.03 5.74,1040.84 251.28,429.82 656.09,660.69 904.19,515.65z"/>
  <path class="fil22" d="M15041.41 13875.26c248.1,-145.02 245.54,-611.03 -5.74,-1040.85 -251.25,-429.81 -656.06,-660.69 -904.16,-515.64 -248.1,145.01 -245.53,611.02 5.74,1040.84 251.25,429.82 656.06,660.69 904.16,515.65z"/>
  <path class="fil22" d="M15469.8 13264.89l0 656.14 354.38 -123.61 -354.38 -532.53zm-4771.2 -2122.75l0 -656.14 -354.36 123.61 354.36 532.53z"/>
  <path class="fil23" d="M11229.62 11524.06c-29.69,-54.03 -44.3,-114.38 -44.3,-181.55l0 -461.94c0,-67.18 14.61,-110.49 44.3,-130.44 29.71,-19.95 72.54,-13.15 129.01,18.97 56.46,32.62 99.29,75.94 128.98,129.96 29.69,54.03 44.29,114.41 44.29,181.56l0 91.04 -111.47 -64.26 0 -99.3c0,-53.05 -19.47,-91.02 -58.89,-113.9 -39.43,-22.86 -58.9,-7.31 -58.9,45.77l0 480.43c0,52.57 19.47,90.04 58.9,112.42 39.42,22.89 58.89,7.81 58.89,-44.77l0 -131.42 111.47 64.25 0 121.68c0,67.17 -14.6,110.51 -44.29,130.46 -29.69,19.95 -72.52,13.15 -128.98,-18.99 -56.47,-32.6 -99.3,-75.94 -129.01,-129.97z"/>
  <path class="fil23" d="M11628.26 11551.21l-52.57 -30.16 8.76 -91.02 52.57 30.16 20.45 -213.2 -53.55 -30.66 8.76 -91.02 53.55 31.14 18.02 -187.4 92.97 53.55 -18.01 187.4 75.93 43.82 18.02 -187.41 92.97 53.55 -18.01 187.38 54.5 31.65 -8.76 91.04 -54.5 -31.64 -20.45 213.2 54.53 31.61 -8.79 91.05 -54.5 -31.65 -22.39 232.68 -92.97 -53.55 22.38 -232.68 -75.93 -43.79 -22.39 232.65 -92.97 -53.52 22.38 -232.68 0 -0.5zm177.67 6.83l20.45 -213.21 -75.93 -43.81 -20.45 213.2 75.93 43.82z"/>
  <path class="fil23" d="M12792.56 12511.78l0 -122.66c11.22,9.73 24.34,18.97 38.47,27.25 23.36,13.63 40.88,17.04 52.57,10.21 11.2,-6.8 17.04,-24.31 17.04,-52.07l0 -659.55 117.8 68.13 0 656.17c0,70.56 -14.13,114.88 -42.36,132.87 -28.23,18.02 -71.07,10.72 -128.99,-22.86 -21.43,-12.17 -39.42,-24.34 -54.53,-36.51l0 -0.98z"/>
  <path class="fil23" d="M13127.07 12661.14c-29.21,-54.03 -43.81,-115.87 -43.81,-185.45l0 -49.19 111.47 64.27 0 58.9c0,55.48 20.42,95.41 60.83,118.77 19.97,11.67 35.05,13.62 45.27,5.85 10.24,-7.31 15.58,-26.3 15.58,-56.97 0,-36.01 -7.3,-72.05 -21.4,-107.58 -14.13,-35.53 -40.91,-83.71 -79.35,-144.57 -48.69,-77.39 -82.26,-141.15 -101.74,-191.77 -19.47,-50.61 -28.73,-101.25 -28.73,-151.39 0,-68.13 15.11,-111.95 44.79,-131.9 30.19,-19.97 73.51,-13.62 130.44,19.48 56.47,32.59 98.83,75.93 128.04,129.96 28.7,54.03 43.31,115.83 43.31,185.45l0 35.53 -111.47 -64.24 0 -44.32c0,-29.68 -4.87,-54.03 -15.08,-73 -10.21,-19.47 -24.82,-34.55 -43.82,-45.74 -39.42,-22.89 -58.89,-6.35 -58.89,48.18 0,31.14 7.3,64.24 21.9,99.77 14.61,35.54 41.39,83.74 79.83,144.57 49.16,77.39 83.24,141.66 101.73,192.75 18.5,50.64 27.76,103.21 27.76,157.24 0,70.57 -15.11,115.84 -45.27,135.81 -30.19,19.95 -74.48,13.63 -132.4,-19.97 -56.97,-33.1 -100.28,-76.42 -129.49,-130.95l0.5 0.51z"/>
  <g id="_2723960419248">
   <path class="fil24" d="M14411.07 12546.73l182.54 105.15c63.29,36.51 109.53,80.32 138.72,130.94 29.21,50.61 43.81,110.99 43.81,181.08l0 55.01c0,93.45 -26.77,136.76 -80.8,130.91l0 2.44c29.69,27.27 51.12,60.85 63.29,99.29 12.17,38.95 18.49,84.72 18.49,137.77l0 158.2c0,25.79 0.48,46.72 2.44,63.76 1.45,16.54 5.34,34.56 11.19,53.55l-125.57 -72.55c-4.4,-17.01 -7.31,-32.59 -8.79,-46.22 -1.45,-13.62 -2.43,-37.49 -2.43,-70.59l0 -164.52c0,-40.88 -5.82,-73.02 -17.52,-95.88 -11.67,-22.89 -31.64,-42.84 -59.87,-58.9l-42.34 -24.34 0 385.5 -123.16 -71.07 0 -899.03 0 -0.5zm167.93 482.39c24.85,14.1 43.34,17.51 55.51,10.21 12.15,-7.3 18.5,-28.23 18.5,-62.78l0 -69.62c0,-32.59 -4.87,-58.89 -15.11,-79.32 -10.21,-20.45 -25.8,-37.01 -47.71,-49.18l-55.96 -32.12 0 257.01 44.77 25.8z"/>
  </g>
  <path class="fil25" d="M15448.24 16868.49l-4773.96 -2765.19c-343.32,-198.23 -624.07,-735.04 -624.07,-1192.66l0 -324.83c0,-457.62 280.75,-670.06 624.07,-471.86l4773.96 2765.19c343.32,198.22 624.07,735.04 624.07,1192.66l0 324.83c0,457.62 -280.75,670.06 -624.07,471.86z"/>
  <path class="fil22" d="M13442.51 15296.62c241.72,-141.31 239.21,-595.31 -5.58,-1014.04 -244.79,-418.75 -639.18,-643.68 -880.88,-502.36 -241.7,141.29 -239.21,595.28 5.58,1014.04 244.8,418.73 639.18,643.65 880.88,502.36z"/>
  <path class="fil23" d="M13215.79 14909.54c-3.84,-2.2 -7.67,-6.03 -10.95,-10.98 -3.29,-4.92 -4.4,-9.84 -4.4,-15.32l0 -68.5c0,-7.12 1.67,-12.07 4.4,-14.26 3.28,-2.73 7.67,-4.92 14.79,-6.01l185.2 -35.61 -185.2 -249.32c-6.57,-9.31 -11.51,-16.98 -14.79,-23.02 -3.29,-6.03 -4.4,-13.15 -4.4,-20.82l0 -67.39c0,-6.03 1.67,-9.31 4.4,-10.95 2.75,-1.67 6.58,-1.11 10.95,1.64 4.39,2.72 9.87,8.2 15.35,16.98l259.71 352.88c8.23,10.95 13.71,20.79 16.99,28.47 3.3,7.67 4.94,15.9 4.94,24.13l0 20.82c0,8.2 -1.64,14.23 -5.47,18.07 -3.84,3.84 -9.32,6.59 -16.99,7.67l-259.74 53.69c-4.92,1.67 -10.4,1.11 -15.32,-1.64l0.53 -0.53z"/>
  <path class="fil23" d="M12838.18 14767.38c-4.93,-2.75 -10.4,-8.23 -15.35,-15.9l-259.71 -353.41c-7.68,-10.42 -13.15,-19.18 -16.99,-27.41 -3.84,-8.23 -5.48,-15.87 -5.48,-24.1l0 -20.82c0,-8.23 1.64,-14.27 4.92,-18.08 3.31,-3.83 9.32,-6.58 16.99,-8.22l259.74 -53.16c5.48,-2.19 10.95,-1.64 15.32,1.09 3.84,2.19 7.67,6.03 10.98,10.98 3.28,4.92 4.37,10.39 4.37,16.43l0 67.39c0,7.67 -1.64,12.62 -4.37,15.34 -3.31,2.75 -7.67,4.92 -14.82,6.03l-185.18 35.62 185.18 249.31c6.59,9.32 11.51,16.43 14.82,23.02 3.28,6.01 4.37,12.6 4.37,19.71l0 68.51c0,5.47 -1.64,8.75 -4.37,9.86 -3.31,1.64 -6.59,1.09 -10.98,-1.11l0.56 -1.08z"/>
  <g id="_2723960418432">
   <path class="fil26" d="M4127.46 11260.75c-17.91,-30.82 -23.87,-64.14 -16.91,-91.47 4.97,-17.91 15.9,-32.81 30.82,-41.27l155.61 -88.48c9.44,-5.48 19.87,-7.96 31.3,-7.96 12.93,0 26.35,3.49 39.29,10.95 -55.7,-148.17 -34.32,-285.35 55.67,-336.58 4.47,-2.48 9.44,-4.97 14.41,-6.95l-1242.32 -654.21 0 720.33 934.59 500.11 -2.46 -3.97 0 -0.5z"/>
  </g>
  <path class="fil27" d="M4257.24 11328.27l155.6 -88.5c16.4,-9.45 18.89,-36.28 7.93,-64.61l45.75 -25.85c90.46,130.73 219.23,197.35 301.26,150.12 89.98,-51.2 89.98,-218.73 0,-373.83 -89.99,-155.12 -235.64,-239.13 -325.63,-187.93 -82.52,46.72 -88.98,190.89 -20.87,334.09l-45.75 25.85c-18.89,-23.87 -43.73,-35.3 -60.14,-25.85l-155.6 88.47c-19.39,10.93 -19.39,47.23 0,81.05l26.85 46.22c19.37,33.81 51.2,51.7 70.6,40.77zm240.1 -248.58c-59.16,-102.39 -59.16,-212.27 0,-246.06 59.17,-33.81 155.1,21.86 214.26,123.77 59.17,102.42 59.17,212.28 0,246.09 -59.16,33.79 -155.09,-21.88 -214.26,-123.8z"/>
  <g id="_2723960415360">
   <path class="fil28" d="M16248.02 9636.31l1.48 33.82 -6.45 76.57c-18.9,228.68 -99.94,367.85 -273.93,460.32l1658.91 876.43 0 -709.88 -1380.51 -737.26 0.5 0z"/>
  </g>
  <g id="_2723960415744">
   <path class="fil29" d="M16189.2 9663.27c-116.81,-66.11 -230.66,-172.5 -326.1,-304.24l-1.5 -0.98c-95.44,21.38 -209.79,-3.99 -326.13,-72.1l-4.47 -2.49 6.48 84.04c22.36,295.3 137.19,537.39 322.63,824.23l4.48 2.48c185.42,-72.57 300.75,-181.95 322.63,-451.88l6.45 -76.57 -4.47 -2.49zm-160.57 88.51c-11.43,138.19 -70.09,193.86 -165.53,231.16l-2.48 -1.5c-94.96,-147.14 -154.12,-270.94 -165.55,-422.07l-2.99 -43.23 2.48 1.48c59.67,35.3 118.33,48.23 167.04,36.78l0.5 0c48.71,68.13 107.37,122.32 167.03,156.1l2.49 1.51 -2.99 39.26 0 0.51z"/>
  </g>
  <g id="_2723960412576">
   <polygon class="fil8" points="5485.09,4767.85 5389.63,4856.85 5389.63,4859.34 5541.26,4923.95 5541.26,5002 5389.63,4894.13 5389.63,4896.62 5486.07,5090 5422.94,5094.98 5362.77,4899.11 5360.79,4898.1 5295.67,5022.88 5238.5,4948.32 5333.96,4862.81 5333.96,4860.32 5185.79,4796.69 5185.79,4718.64 5332.95,4825.53 5332.95,4823.04 5238.5,4628.17 5299.64,4623.2 5361.79,4819.07 5363.78,4820.05 5424.92,4694.29 5485.09,4768.35 "/>
   <polygon class="fil30" points="5901.17,5008.57 5805.71,5097.55 5805.71,5100.03 5957.34,5164.67 5957.34,5242.72 5805.71,5134.82 5805.71,5137.31 5902.18,5330.7 5839.02,5335.67 5778.88,5139.8 5776.9,5138.82 5711.76,5263.6 5654.61,5189.01 5750.04,5103.52 5750.04,5101.04 5601.9,5037.41 5601.9,4959.35 5749.06,5066.24 5749.06,5063.76 5654.61,4868.87 5715.75,4863.89 5777.88,5059.76 5779.86,5060.77 5841.03,4934.98 5901.17,5009.07 "/>
   <polygon class="fil8" points="6317.28,5248.75 6221.82,5337.73 6221.82,5340.22 6373.45,5404.86 6373.45,5482.91 6221.82,5375.04 6221.82,5377.5 6318.26,5570.88 6255.13,5575.86 6194.96,5379.99 6192.98,5379.01 6127.87,5503.79 6070.69,5429.23 6166.15,5343.71 6166.15,5341.23 6018.01,5277.59 6018.01,5199.54 6165.15,5306.43 6165.15,5303.95 6070.69,5109.05 6131.83,5104.08 6193.99,5299.95 6195.97,5300.96 6257.12,5175.17 6317.28,5249.26 "/>
   <polygon class="fil8" points="6732.86,5488.73 6637.4,5577.74 6637.4,5580.22 6789.03,5644.84 6789.03,5722.89 6637.4,5615.02 6637.4,5617.5 6733.84,5810.89 6670.71,5815.86 6610.57,5619.99 6608.56,5618.99 6543.45,5743.76 6486.27,5669.2 6581.73,5583.69 6581.73,5581.2 6433.59,5517.57 6433.59,5439.52 6580.73,5546.41 6580.73,5543.92 6486.27,5349.06 6547.42,5344.08 6609.57,5539.95 6611.55,5540.93 6672.7,5415.18 6732.86,5489.23 "/>
   <polygon class="fil8" points="7148.95,5728.73 7053.51,5817.71 7053.51,5820.2 7205.12,5884.84 7205.12,5962.86 7053.51,5854.99 7053.51,5857.48 7149.95,6050.87 7086.82,6055.84 7026.66,5859.97 7024.67,5858.96 6959.56,5983.77 6902.38,5909.18 6997.82,5823.67 6997.82,5821.18 6849.68,5757.55 6849.68,5679.52 6996.84,5786.39 6996.84,5783.9 6902.38,5589.03 6963.53,5584.06 7025.68,5779.93 7027.66,5780.94 7088.81,5655.15 7148.95,5729.24 "/>
  </g>
  <g id="_2723960412960">
   <path class="fil31" d="M7314.13 4773.56c-3.97,-2.48 -7.47,-5.95 -10.46,-10.92 -2.96,-4.98 -4.47,-9.95 -4.47,-14.93l0 -67.1c0,-6.95 1.51,-11.43 4.47,-13.91 2.99,-2.49 7.97,-4.47 14.42,-5.98l180.98 -34.29 -180.98 -243.6c-6.45,-8.95 -11.43,-16.41 -14.42,-22.36 -2.96,-5.98 -4.47,-12.94 -4.47,-20.4l0 -66.12c0,-5.45 1.51,-9.45 4,-10.93 2.96,-1.51 6.45,-1 10.93,1.48 4.47,2.49 9.44,7.97 14.92,16.41l253.52 344.51c7.97,10.93 13.44,19.9 16.91,27.84 3.49,7.46 4.97,15.42 4.97,23.36l0 20.4c0,7.94 -1.98,13.92 -5.47,17.38 -3.47,3.49 -8.95,6.48 -16.41,7.46l-253.52 52.71c-4.98,1.48 -9.95,0.98 -14.92,-1.99l0 0.98z"/>
   <path class="fil31" d="M7198.71 4826.35l-48.71 -27.84c-6.45,-3.99 -11.43,-8.46 -15.39,-14.42 -4,-5.98 -6.49,-11.43 -7.97,-16.9l-255.53 -848.6c-0.98,-3.49 -1.48,-6.96 -1.48,-10.45 0,-4.98 1.48,-8.44 4.47,-10.43 2.99,-1.51 6.45,-1.51 11.43,1.48l48.73 27.84c5.96,3.49 10.93,7.96 14.9,14.42 3.99,5.98 6.96,11.93 8.97,17.41l254.03 847.59c0.97,3.49 1.48,6.96 1.48,10.45 0,4.98 -1.48,8.44 -4.47,10.43 -2.99,1.5 -6.46,1.5 -10.46,-0.98z"/>
   <path class="fil32" d="M6770.2 4460.19c-4.95,-2.96 -9.93,-7.94 -14.9,-15.4l-253.55 -345.52c-7.46,-9.92 -12.91,-18.89 -16.41,-26.83 -3.46,-7.96 -5.45,-15.42 -5.45,-23.86l0 -20.38c0,-7.96 1.49,-13.94 4.95,-17.91 3.49,-3.97 8.97,-6.45 16.91,-8.44l253.55 -51.7c5.45,-1.98 10.42,-1.51 14.9,0.98 3.99,2.49 7.46,5.98 10.45,10.96 2.99,4.97 4.47,9.92 4.47,15.9l0 66.12c0,7.46 -1.48,12.43 -4.47,14.92 -2.99,2.46 -7.97,4.47 -14.42,5.95l-180.95 34.29 180.95 243.6c6.45,8.95 11.43,16.41 14.42,22.39 2.99,5.95 4.47,12.41 4.47,19.37l0 67.12c0,4.97 -1.48,8.44 -4.47,9.95 -2.99,1.48 -6.46,0.98 -10.45,-1.51z"/>
  </g>
  <g id="_2723960414832">
   <path class="fil33" d="M16289.22 8450l1111.56 647.75 0 -102.39 -1111.56 -647.75 0 102.39zm0 -236.62l1111.56 647.76 0 -102.42 -1111.56 -647.76 0 102.42zm0 656.2l1111.56 647.75 0 -102.39 -1111.56 -647.76 0 102.4zm0 209.79l1111.56 647.75 0 -102.4 -1111.56 -647.75 0 102.4zm0 -1339.27l1111.56 647.78 0 -102.42 -1111.56 -647.76 0 102.4zm0 -575.66l0 102.4 1111.56 647.75 0 -102.39 -1111.56 -647.76zm0 811.8l1111.56 647.75 0 -102.39 -1111.56 -647.76 0 102.4zm0 -472.76l1111.56 647.75 0 -102.42 -1111.56 -647.75 0 102.42z"/>
  </g>
  <g id="_2723960414304">
   <g>
    <path class="fil34" style="mask:url(#id2)" d="M6422.19 4062.12c-7.46,-9.92 -12.91,-18.89 -16.41,-26.82 -3.46,-7.97 -5.47,-15.43 -5.47,-23.87l0 -20.4c0,-7.94 1.51,-13.92 4.97,-17.88 3.49,-3.97 8.97,-6.46 16.91,-8.45l253.55 -51.69c0,0 4.47,-1.01 6.45,-1.01l-999.72 -526.47 0 489.19 992.77 531.42 -253.05 -344.49 0 0.47z"/>
   </g>
  </g>
  <g id="_2723960407824">
   <path class="fil35" d="M17387.85 8708.87c-21.89,-12.91 -42.76,-19.39 -61.65,-20.37 0,-1.49 0,-2.49 0,-3.97 0,-186.93 -132.24,-415.11 -295.28,-509.56 -131.26,-75.57 -242.12,-41.78 -280.88,72.07 -9.95,-7.46 -20.4,-14.92 -30.82,-20.88 -107.4,-62.15 -194.9,-12.43 -194.9,110.86 0,123.3 87,273.93 194.9,336.05 53.68,30.83 604.99,348.99 668.63,385.79 84,48.71 152.61,9.95 152.61,-86.99 0,-96.95 -68.11,-214.26 -152.61,-263z"/>
  </g>
  <g id="_2723960406432">
   <path class="fil36" d="M12722.29 5115.99l176.98 102.39c59.66,34.32 104.4,79.06 134.72,132.74 29.82,54.19 44.75,116.82 44.75,187.91l0 86.52c0,71.06 -14.93,116.31 -44.75,136.2 -29.81,19.4 -74.56,11.94 -134.72,-22.38l-56.68 -32.81 0 357.45 -120.3 -69.61 0 -878.41zm176.98 497.62c19.89,11.43 34.29,13.42 44.24,6.96 9.94,-6.96 14.92,-25.37 14.92,-55.69l0 -103.9c0,-30.32 -4.98,-54.19 -14.92,-72.58 -9.95,-18.39 -24.35,-32.81 -44.24,-44.24l-56.68 -32.81 0 269.93 56.68 32.81 0 -0.48z"/>
   <polygon class="fil36" points="13144.38,5359.48 13264.68,5429.07 13264.68,5786.52 13393.93,5861.08 13393.93,5503.65 13514.24,5573.24 13514.24,6451.68 13393.93,6382.07 13393.93,5986.86 13264.68,5912.28 13264.68,6307.51 13144.38,6237.9 "/>
   <path class="fil36" d="M13603.69 5624.89l176.98 102.42c59.64,34.29 104.38,79.03 134.7,132.71 29.85,54.19 44.75,116.84 44.75,187.93l0 86.5c0,71.09 -14.9,116.33 -44.75,136.2 -29.81,19.4 -74.56,11.94 -134.7,-22.35l-56.67 -32.81 0 357.42 -120.31 -69.61 0 -878.41zm176.98 497.62c19.87,11.43 34.29,13.42 44.24,6.96 9.95,-6.96 14.93,-25.34 14.93,-55.67l0 -103.9c0,-30.32 -4.98,-54.18 -14.93,-72.57 -9.95,-18.42 -24.37,-32.84 -44.24,-44.27l-56.67 -32.81 0 269.96 56.67 32.81 0 -0.51z"/>
   <path class="fil37" d="M16163.27 12191.18c-36.27,-65.03 -54.1,-137.66 -54.1,-218.49l0 -555.92c0,-80.85 17.83,-132.98 54.1,-157 36.28,-24.02 88.59,-15.82 157.56,22.83 68.98,39.27 121.29,91.39 157.56,156.43 36.28,65.03 54.11,137.66 54.11,218.49l0 109.54 -136.15 -77.32 0 -119.51c0,-63.84 -23.79,-109.54 -71.94,-137.05 -48.16,-27.54 -71.94,-8.81 -71.94,55.06l0 578.17c0,63.26 23.78,108.37 71.94,135.33 48.15,27.52 71.94,9.37 71.94,-53.9l0 -158.16 136.15 77.31 0 146.44c0,80.86 -17.83,132.98 -54.11,157.01 -36.27,24.02 -88.58,15.82 -157.56,-22.84 -68.97,-39.26 -121.28,-91.38 -157.56,-156.42z"/>
   <path class="fil37" d="M16638.33 12458.17c-35.27,-63.58 -52.91,-136.34 -52.91,-218.28l0 -57.86 134.64 75.62 0 69.34c0,65.3 24.69,112.29 73.5,139.78 24.11,13.76 42.34,16.06 54.67,6.88 12.35,-8.6 18.81,-30.93 18.81,-67.02 0,-42.41 -8.81,-84.8 -25.85,-126.63 -17.07,-41.83 -49.4,-98.55 -95.86,-170.18 -58.79,-91.09 -99.35,-166.13 -122.87,-225.74 -23.52,-59.58 -34.69,-119.17 -34.69,-178.17 0,-80.22 18.23,-131.79 54.08,-155.28 36.46,-23.47 88.8,-16.04 157.59,22.94 68.21,38.36 119.35,89.37 154.62,152.95 34.69,63.61 52.34,136.37 52.34,218.31l0 41.83 -134.65 -75.64 0 -52.13c0,-34.95 -5.87,-63.6 -18.23,-85.96 -12.33,-22.91 -29.98,-40.67 -52.92,-53.84 -47.62,-26.94 -71.14,-7.46 -71.14,56.72 0,36.67 8.83,75.62 26.45,117.45 17.65,41.83 49.98,98.56 96.44,170.16 59.38,91.09 100.55,166.74 122.88,226.9 22.35,59.59 33.52,121.45 33.52,185.05 0,83.08 -18.23,136.37 -54.69,159.86 -36.46,23.5 -89.96,16.04 -159.91,-23.49 -68.8,-38.97 -121.13,-89.96 -156.4,-154.12l0.58 0.55z"/>
   <path class="fil37" d="M17114.58 12744.69c-35.27,-65.11 -52.91,-139.59 -52.91,-223.49l0 -59.24 134.64 77.44 0 70.96c0,66.89 24.69,114.99 73.5,143.14 24.11,14.08 42.34,16.43 54.67,7.04 12.35,-9.39 18.81,-31.67 18.81,-68.63 0,-43.42 -8.81,-86.81 -25.85,-129.65 -17.07,-42.81 -49.4,-100.88 -95.86,-174.2 -58.79,-93.27 -99.35,-170.13 -122.87,-231.11 -23.52,-61.02 -34.69,-122.03 -34.69,-182.43 0,-82.13 18.23,-134.94 54.08,-158.99 36.46,-24.05 88.8,-16.41 157.59,23.47 68.21,39.31 119.35,91.52 154.62,156.63 34.69,65.11 52.34,139.59 52.34,223.49l0 42.81 -134.65 -77.41 0 -53.4c0,-35.77 -5.87,-65.11 -18.23,-88 -12.33,-23.44 -29.98,-41.64 -52.92,-55.14 -47.62,-27.57 -71.14,-7.62 -71.14,58.08 0,37.54 8.83,77.44 26.45,120.25 17.65,42.84 49.98,100.91 96.44,174.23 59.38,93.27 100.55,170.68 122.88,232.28 22.35,61.01 33.52,124.35 33.52,189.47 0,85.06 -18.23,139.62 -54.69,163.67 -36.46,24.05 -89.96,16.43 -159.91,-24.05 -68.8,-39.9 -121.13,-92.1 -156.4,-157.8l0.58 0.58z"/>
   <g>
    <polygon class="fil38" points="3044.23,9021.45 2911.99,8515.88 3038.75,8588.96 3119.79,8919.05 3121.78,8920.54 3204.8,8684.9 3318.65,8750.51 3186.41,9103.47 3325.11,9632.93 3198.35,9559.85 3110.85,9203.4 3108.86,9201.92 3019.38,9456.45 2905.53,9390.83 3044.23,9021.95 "/>
   </g>
   <g>
    <polygon class="fil38" points="3382.28,8787.24 3553.81,8886.17 3630.36,9558.79 3632.34,9560.27 3708.91,8975.65 3880.42,9074.58 3880.42,9952.99 3766.57,9887.38 3766.57,9222.24 3764.58,9220.73 3677.08,9835.17 3576.67,9777.02 3489.18,9061.66 3487.19,9060.16 3487.19,9725.32 3382.28,9664.68 3382.28,8786.23 "/>
   </g>
   <g>
    <polygon class="fil38" points="3970.37,9126.88 4090.68,9196.47 4090.68,9949.13 4288.54,10063.46 4288.54,10188.74 3970.37,10004.8 3970.37,9126.38 "/>
   </g>
   <g>
    <path class="fil39" d="M13958.18 5835.31c0,0 0,0 0,0.5 33.79,61.15 51.2,132.74 51.2,211.77l0 86.5c0,89.98 -21.88,147.66 -67.12,177.48 -18.9,12.43 -41.25,18.89 -65.62,18.89 -30.82,0 -64.64,-9.95 -103.4,-29.82l0 310.2 1863.72 1036.03 0 -869 -1679.28 -942.55 0.5 0z"/>
   </g>
   <g>
    <path class="fil40" d="M17486.01 11961.21c0,0 3.44,4.65 4.6,7.59 38.47,72.87 58.02,156.82 58.02,249.53l0 143.43 -195.92 -114.86c10.93,18.66 22.96,39.06 36.78,60.65 60.88,97.36 101.67,176.66 125.25,241.96 24.13,67.04 36.19,137 36.19,208.73 0,106.12 -25.87,175.5 -79.29,211.06 -4.02,2.32 -8.04,3.49 -12.07,5.82l925.01 520.09 0 -1019.18 -898.57 -515.4 0 0.58z"/>
   </g>
   <g>
    <g>
     <polygon class="fil41" style="mask:url(#id4)" points="2853.81,8490.35 895.62,7394.18 895.62,8272.12 2861.77,9364.8 2992.02,9018.3 "/>
    </g>
   </g>
  </g>
  <path class="fil42" d="M10426.47 6981.72c-3.46,-2.01 -6.96,-5.47 -9.92,-9.95 -2.99,-4.47 -3.99,-8.94 -3.99,-13.91l0 -62.15c0,-6.46 1.5,-10.93 3.99,-12.92 2.96,-2.48 6.96,-4.49 13.41,-5.47l168.04 -32.31 -168.04 -226.22c-5.97,-8.44 -10.45,-15.4 -13.41,-20.87 -2.99,-5.45 -3.99,-11.94 -3.99,-18.89l0 -61.15c0,-5.45 1.5,-8.44 3.99,-9.92 2.49,-1.51 5.95,-1.01 9.92,1.48 4,2.49 8.97,7.46 13.92,15.4l235.66 320.17c7.44,9.92 12.41,18.89 15.4,25.85 2.99,6.96 4.47,14.4 4.47,21.86l0 18.89c0,7.46 -1.48,12.94 -4.97,16.4 -3.47,3.49 -8.44,5.98 -15.4,6.96l-235.64 48.74c-4.47,1.48 -9.44,0.98 -13.91,-1.51l0.47 -0.48z"/>
  <path class="fil42" d="M10319.63 7030.78l-45.21 -25.85c-5.98,-3.5 -10.96,-7.97 -14.42,-13.42 -3.5,-5.48 -5.98,-10.95 -7.46,-15.93l-237.63 -788.43c-1,-2.99 -1.51,-6.48 -1.51,-9.44 0,-4.98 1.51,-7.97 4,-9.45 2.96,-1.51 6.46,-1 10.42,0.98l45.25 25.85c5.48,2.99 10.45,7.46 13.92,13.44 3.49,5.45 6.45,10.93 8.46,16.4l236.12 787.46c1,2.96 1.5,6.45 1.5,9.44 0,4.98 -1.5,7.94 -3.99,9.45 -2.96,1.48 -5.95,1.48 -9.92,-1.01l0.47 0.51z"/>
  <path class="fil42" d="M9921.41 6690.26c-4.47,-2.46 -9.45,-7.44 -13.92,-14.4l-235.64 -320.64c-6.95,-9.45 -11.93,-17.41 -15.39,-24.88 -3.5,-7.46 -4.98,-14.42 -4.98,-21.88l0 -18.89c0,-7.43 1.48,-12.91 4.47,-16.4 2.99,-3.47 8.44,-5.96 15.4,-7.44l235.64 -48.23c4.97,-1.98 9.95,-1.48 13.92,1.01 3.49,1.98 6.95,5.45 9.94,9.92 2.99,4.47 4,9.44 4,14.92l0 61.14c0,6.96 -1.51,11.43 -4,13.92 -2.99,2.49 -6.95,4.47 -13.41,5.48l-168.04 32.3 168.04 226.2c5.95,8.46 10.42,14.92 13.41,20.87 2.99,5.48 4,11.46 4,17.91l0 62.13c0,4.97 -1.51,7.96 -4,8.97 -2.99,1.48 -5.95,0.98 -9.94,-1.01l0.5 -1z"/>
  <path class="fil43" d="M5720.3 6354.24c-345.65,-199.29 -626.11,-39.98 -626.11,356.71l0 5466.55c0,396.72 280.46,880.14 626.11,1079.42l3302.82 1916.49c345.65,199.28 626.11,39.98 626.11,-356.74l0 -5466.53c0,-396.72 -280.46,-880.14 -626.11,-1079.42l-3302.82 -1916.48z"/>
  <g id="_2723960407872">
   <path class="fil44" d="M8646.59 14061.1c-18.62,-31.8 -35.4,-64.11 -49.63,-97.5l-134.78 -48.42 -11.7 -35.11c-21.8,-64.61 -37.41,-130.09 -47.01,-192.83l-12.33 -81.33 128 -9.21 0.19 -3.7c0.71,-13.5 1.48,-27.62 4.1,-42.28l-112.74 -161.82 11.78 -36.33c16.95,-52.68 41.59,-98.79 72.62,-137.79l52.07 -64.38 134.86 127.9 -14.07 -106.07 -1731.31 -1032.48 -50.27 946.44 1737.65 1051.93 22.6 -77.63 -0.03 0.61z"/>
  </g>
  <path class="fil22" d="M9339.09 14080.31c1.21,-22.73 0.63,-46.78 -1.19,-70.28l118.08 -8.51c-8.52,-59.59 -23.79,-120.15 -43.42,-179.68l-131.13 -47.63c-20.69,-50.98 -45.74,-100.99 -75.3,-147.5l39.08 -132.82c-36.69,-51.23 -77.28,-98.96 -120.59,-141.29l-76.79 88.92c-18.25,-15.76 -37.2,-30.32 -56.88,-42.43 -19.69,-12.15 -38.23,-22.36 -57.47,-31.38l-62.52 -179.5c-44.79,-14.68 -87.55,-21.27 -127.05,-19.68l22.83 173.06c-32.41,6.91 -60.88,21.41 -85.43,42.89l-127.24 -120.7c-25.03,30.69 -44.9,68.45 -59,113.27l109.35 156.07c-4.15,20.11 -7.12,41.52 -8.34,64.24 -1.21,22.73 -0.63,46.78 1.2,70.28l-118.09 8.52c8.52,59.58 23.79,120.12 43.42,179.68l131.13 47.62c20.69,50.99 45.74,100.97 75.3,147.51l-39.08 132.82c36.7,51.22 77.28,98.95 120.6,141.28l76.78 -88.92c18.25,15.74 37.2,30.29 56.88,42.44 19.64,12.75 38.24,22.35 57.47,31.38l62.52 179.46c44.8,14.71 87.55,21.3 127.05,19.71l-22.83 -173.06c32.41,-6.9 60.88,-21.4 85.44,-42.89l127.23 120.7c25.03,-30.69 44.9,-68.44 59.01,-113.26l-109.36 -156.11c4.16,-20.11 7.12,-41.48 8.34,-64.21zm-380.87 -65.2c-82.15,-53.65 -145.23,-176.47 -140.04,-274.13 5.21,-97.66 76.06,-133.32 158.83,-79.64 82.76,53.66 145.23,176.48 140.04,274.14 -5.19,97.65 -76.07,133.29 -158.83,79.63z"/>
  <g id="_2723960384352">
   <path class="fil45" d="M5520.75 7682.42l-77.49 -44.9 0 -60.27c20.9,12.3 38.12,19.68 51.03,23.39 12.92,3.06 22.76,2.46 30.78,-3.1 7.99,-4.92 14.12,-14.76 20.29,-29.53l49.82 28.92 0 541.23 -74.43 -43.04 0 -412.7z"/>
   <path class="fil45" d="M5730.44 8187.93c-19.05,-35.06 -28.9,-73.82 -28.9,-117.47l0 -284.77c0,-43.05 9.85,-71.34 28.9,-83.64 19.07,-12.3 47.36,-8.62 83.66,12.91 36.27,20.9 63.95,48.58 83.63,83.64 19.08,35.05 28.92,73.82 28.92,117.47l0 284.77c0,43.05 -9.84,71.36 -28.92,83.66 -19.07,12.92 -47.36,8.6 -83.63,-12.93 -36.3,-20.91 -63.98,-49.19 -83.66,-83.64zm121.78 -24.6l0 -295.23c0,-35.66 -12.91,-60.88 -38.12,-75.64 -25.22,-14.77 -38.16,-4.31 -38.16,31.35l0 295.22c0,35.7 12.94,60.91 38.16,75.67 25.82,14.77 38.12,4.29 38.12,-31.37z"/>
   <path class="fil45" d="M6020.18 8355.41c-19.05,-35.05 -28.89,-73.82 -28.89,-117.47l0 -284.77c0,-43.05 9.84,-71.36 28.89,-83.66 19.08,-12.28 47.36,-8 83.66,12.93 36.28,20.91 63.95,49.19 83.64,83.64 19.07,35.06 28.92,73.82 28.92,117.47l0 284.77c0,43.05 -9.85,71.34 -28.92,83.64 -19.05,12.3 -47.36,8.62 -83.64,-12.91 -36.3,-20.9 -63.97,-49.19 -83.66,-83.64zm121.79 -24.6l0 -295.23c0,-35.66 -12.91,-60.88 -38.13,-75.64 -25.82,-14.76 -38.12,-4.31 -38.12,31.35l0 295.23c0,35.66 12.91,60.9 38.12,75.64 25.83,14.76 38.13,4.31 38.13,-31.35z"/>
   <path class="fil45" d="M6309.85 8522.68c-19.08,-35.06 -28.92,-73.79 -28.92,-117.47l0 -284.77c0,-43.05 9.84,-71.34 28.92,-83.64 19.05,-12.3 47.33,-8.6 83.63,12.91 36.28,20.9 63.98,48.61 83.66,83.66 19.05,35.06 28.9,73.8 28.9,117.48l0 284.74c0,43.08 -9.85,71.36 -28.9,83.66 -19.07,12.31 -47.38,8.6 -83.66,-12.91 -36.3,-20.93 -63.97,-49.21 -83.63,-83.66zm121.76 -24.6l0 -295.23c0,-35.66 -12.91,-60.88 -38.74,-75.64 -25.85,-14.76 -38.15,-4.31 -38.15,31.38l0 295.22c0,35.67 12.94,60.88 38.15,75.65 25.83,14.76 38.74,4.31 38.74,-31.38z"/>
   <path class="fil45" d="M6679.5 8350.91l-77.5 -44.9 0 -60.27c20.9,12.31 38.13,19.69 51.04,23.37 12.91,3.06 22.75,2.46 30.77,-3.07 7.38,-4.93 14.13,-14.77 20.29,-29.53l49.82 28.92 0 541.23 -74.42 -43.05 0 -412.7z"/>
   <path class="fil45" d="M6889.23 8857.14c-19.08,-35.06 -28.89,-73.82 -28.89,-117.47l0 -284.77c0,-43.05 9.81,-71.34 28.89,-83.64 19.08,-12.3 47.36,-8.62 83.66,12.91 36.28,20.9 63.95,49.19 83.64,83.64 19.07,35.05 28.89,73.82 28.89,117.47l0 284.77c0,43.05 -9.82,71.36 -28.89,83.64 -19.08,12.3 -47.36,8.62 -83.64,-12.91 -36.3,-20.91 -63.97,-48.58 -83.66,-83.64zm121.79 -24.6l0 -295.23c0,-35.66 -12.91,-60.88 -38.76,-75.64 -25.83,-14.76 -38.13,-4.31 -38.13,31.35l0 295.22c0,35.7 12.91,60.91 38.13,75.68 25.85,14.73 38.76,4.28 38.76,-31.38z"/>
   <path class="fil45" d="M7258.83 8685.45l-77.5 -44.9 0 -60.27c20.93,12.31 38.15,19.69 51.07,23.39 12.91,3.07 22.75,2.46 30.74,-3.09 7.38,-4.93 14.16,-14.74 20.29,-29.51l49.82 28.9 0 541.25 -74.42 -43.07 0 -412.7z"/>
   <path class="fil45" d="M7468.59 9191.95c-19.08,-35.06 -28.92,-73.82 -28.92,-117.48l0 -284.77c0,-43.05 9.84,-71.33 28.92,-83.64 19.05,-12.3 47.36,-8.01 83.63,12.92 36.3,20.9 63.98,49.21 83.64,83.63 19.08,35.06 28.92,73.82 28.92,117.48l0 284.77c0,43.04 -9.84,71.36 -28.92,83.66 -19.05,12.28 -47.34,8.6 -83.64,-12.94 -36.27,-20.9 -63.97,-48.58 -83.63,-83.63zm121.76 -24.61l0 -295.22c0,-35.67 -12.91,-60.88 -38.13,-75.65 -25.82,-14.76 -38.12,-4.31 -38.12,31.36l0 295.22c0,35.69 12.91,60.91 38.12,75.67 25.83,14.76 38.13,4.29 38.13,-31.38z"/>
   <path class="fil45" d="M7838.29 9020.13l-77.49 -44.9 0 -60.28c20.9,12.31 38.12,19.69 51.03,23.37 12.91,3.07 22.76,2.46 30.75,-3.07 7.38,-4.92 14.15,-14.77 20.29,-29.53l49.82 28.92 0 541.23 -74.4 -43.05 0 -412.69z"/>
   <path class="fil45" d="M8128.04 9187.45l-77.5 -44.9 0 -60.27c20.9,12.3 38.13,19.68 51.04,23.36 12.91,3.09 22.75,2.46 30.77,-3.07 7.38,-4.92 14.13,-14.76 20.29,-29.53l49.82 28.92 0 541.23 -74.42 -43.05 0 -412.69z"/>
   <path class="fil45" d="M8417.62 9354.88l-77.49 -44.9 0 -60.28c20.93,12.31 38.12,19.69 51.06,23.37 12.91,3.09 22.76,2.46 30.75,-3.07 7.38,-4.92 14.12,-14.77 20.29,-29.53l49.82 28.92 0 541.23 -74.43 -43.05 0 -412.69z"/>
   <path class="fil45" d="M8627.31 9860.89c-19.05,-35.06 -28.9,-73.79 -28.9,-117.47l0 -284.75c0,-43.07 9.85,-71.36 28.9,-83.66 19.07,-12.3 47.36,-8.6 83.66,12.91 36.27,20.93 63.95,48.61 83.63,83.66 19.08,35.06 28.92,73.8 28.92,117.48l0 284.77c0,43.05 -9.84,71.33 -28.92,83.63 -19.05,12.92 -47.36,8.6 -83.63,-12.91 -36.3,-20.93 -63.98,-49.21 -83.66,-83.66zm121.78 -24.58l0 -295.25c0,-35.66 -12.91,-60.88 -38.73,-75.64 -25.85,-14.76 -38.15,-4.29 -38.15,31.38l0 295.22c0,35.67 12.93,60.88 38.15,75.65 25.82,14.76 38.73,4.31 38.73,-31.36z"/>
   <path class="fil45" d="M8917.08 10028.16c-19.08,-35.06 -28.92,-73.79 -28.92,-117.47l0 -284.75c0,-43.07 9.84,-71.36 28.92,-83.66 19.05,-12.3 47.36,-7.99 83.63,12.91 36.3,20.93 63.98,49.21 83.66,83.66 19.05,35.06 28.9,73.8 28.9,117.48l0 284.77c0,43.05 -9.85,71.33 -28.9,83.63 -19.07,12.31 -47.36,8.6 -83.66,-12.91 -36.27,-20.93 -64.58,-48.6 -83.63,-83.66zm121.76 -24.58l0 -295.22c0,-35.69 -12.91,-60.91 -38.13,-75.67 -25.82,-14.77 -38.12,-4.29 -38.12,31.38l0 295.22c0,35.67 12.91,60.88 38.12,75.64 25.83,14.77 38.13,4.32 38.13,-31.35z"/>
   <path class="fil45" d="M5520.75 8334.48l-77.49 -44.9 0 -60.27c20.9,12.31 38.12,19.69 51.03,23.36 12.92,3.07 22.76,2.47 30.78,-3.06 7.99,-4.93 14.12,-14.77 20.29,-29.53l49.82 28.92 0 541.23 -74.43 -43.05 0 -412.7z"/>
   <path class="fil45" d="M5810.45 8501.81l-77.5 -44.9 0 -60.28c20.9,12.31 38.13,19.69 51.06,23.37 12.92,3.07 22.76,2.46 30.75,-3.07 7.38,-4.92 14.15,-14.77 20.29,-29.53l49.82 28.92 0 541.23 -74.42 -43.05 0 -412.69z"/>
   <path class="fil45" d="M6020.18 9007.61c-19.05,-35.06 -28.89,-73.79 -28.89,-117.47l0 -284.75c0,-43.07 9.84,-71.36 28.89,-83.66 19.08,-12.3 47.36,-8.6 83.66,12.91 36.28,20.93 63.95,49.21 83.64,83.66 19.07,35.06 28.92,73.79 28.92,117.48l0 284.77c0,43.05 -9.85,71.33 -28.92,83.63 -19.05,12.92 -47.36,8.6 -83.64,-12.91 -36.3,-20.93 -63.97,-49.21 -83.66,-83.66zm121.79 -24.58l0 -295.22c0,-35.69 -12.91,-60.91 -38.13,-75.67 -25.82,-14.77 -38.12,-4.29 -38.12,31.38l0 295.22c0,35.67 12.91,60.88 38.12,75.64 25.83,14.77 38.13,4.32 38.13,-31.35z"/>
   <path class="fil45" d="M6389.86 8836.56l-77.5 -44.9 0 -60.27c20.9,12.3 38.13,19.68 51.04,23.38 12.91,3.07 22.75,2.47 30.74,-3.09 7.38,-4.92 14.16,-14.76 20.3,-29.5l49.82 28.89 0 541.26 -73.79 -43.08 0 -412.69 -0.61 0z"/>
   <path class="fil45" d="M6599.54 9342.39c-19.08,-35.06 -28.92,-73.82 -28.92,-117.48l0 -284.77c0,-43.05 9.84,-71.36 28.92,-83.66 19.08,-12.28 47.36,-8.6 83.63,12.94 36.3,20.9 63.98,49.18 83.66,83.63 19.05,35.06 28.9,73.82 28.9,117.48l0 284.77c0,43.05 -9.85,71.33 -28.9,83.63 -19.07,12.92 -47.36,8.63 -83.66,-12.91 -36.27,-20.9 -63.95,-49.21 -83.63,-83.63zm121.79 -24.61l0 -295.22c0,-35.67 -12.94,-60.91 -38.16,-75.64 -25.82,-14.77 -38.12,-4.32 -38.12,31.35l0 295.22c0,35.67 12.91,60.91 38.12,75.64 25.85,14.77 38.16,4.32 38.16,-31.35z"/>
   <path class="fil45" d="M6969.24 9170.59l-77.5 -44.9 0 -60.27c20.91,12.31 38.13,19.69 51.04,23.39 12.91,3.07 22.76,2.46 30.77,-3.09 7.39,-4.93 14.13,-14.77 20.3,-29.51l49.82 28.9 0 541.26 -74.43 -43.08 0 -412.7z"/>
   <path class="fil45" d="M7178.87 9677.03c-19.05,-35.05 -28.89,-73.79 -28.89,-117.47l0 -284.77c0,-43.05 9.84,-71.34 28.89,-83.64 19.08,-12.3 47.36,-8.62 83.66,12.91 36.28,20.91 63.95,49.22 83.64,83.66 19.07,35.06 28.92,73.8 28.92,117.45l0 284.77c0,43.08 -9.85,71.36 -28.92,83.67 -19.08,12.3 -47.36,8.59 -83.64,-12.92 -36.3,-20.92 -64.58,-49.21 -83.66,-83.66zm121.79 -24.6l0 -295.23c0,-35.66 -12.91,-60.88 -38.13,-75.64 -25.85,-14.76 -38.15,-4.31 -38.15,31.38l0 295.22c0,35.67 12.94,60.88 38.15,75.65 25.83,14.76 38.13,4.31 38.13,-31.38z"/>
   <path class="fil45" d="M7548.55 9505.37l-77.5 -44.9 0 -60.27c20.9,12.3 38.13,19.66 51.04,23.36 12.91,3.07 22.75,2.46 30.74,-3.07 7.38,-4.92 14.16,-14.76 20.3,-29.52l49.82 28.89 0 541.26 -73.8 -43.05 0 -412.7 -0.6 0z"/>
   <path class="fil45" d="M7838.29 9672.59l-77.49 -44.9 0 -60.27c20.9,12.3 38.12,19.68 51.03,23.36 12.91,3.07 22.76,2.46 30.75,-3.07 7.38,-4.92 14.15,-14.76 20.29,-29.53l49.82 28.92 0 541.23 -74.4 -43.05 0 -412.69z"/>
   <path class="fil45" d="M8128.04 9840.02l-77.5 -44.9 0 -60.28c20.9,12.31 38.13,19.69 51.04,23.37 12.91,3.09 22.75,2.46 30.77,-3.07 7.38,-4.92 14.13,-14.77 20.29,-29.53l49.82 28.92 0 541.23 -74.42 -43.05 0 -412.69z"/>
   <path class="fil45" d="M8337.61 10345.53c-19.05,-35.06 -28.89,-73.82 -28.89,-117.48l0 -284.77c0,-43.04 9.84,-71.36 28.89,-83.63 19.08,-12.3 47.36,-8.63 83.66,12.91 36.28,20.9 63.95,49.19 83.64,83.63 19.08,35.06 28.92,73.82 28.92,117.48l0 284.77c0,43.05 -9.84,71.36 -28.92,83.64 -19.05,12.3 -47.36,8.62 -83.64,-12.92 -36.3,-20.9 -63.97,-48.57 -83.66,-83.63zm121.79 -24.61l0 -295.22c0,-35.67 -12.91,-60.88 -38.13,-75.64 -25.85,-14.77 -38.15,-4.32 -38.15,31.35l0 295.22c0,35.69 12.94,60.91 38.15,75.65 25.83,14.76 38.13,4.31 38.13,-31.36z"/>
   <path class="fil45" d="M8627.31 10512.85c-19.05,-35.06 -28.9,-73.82 -28.9,-117.47l0 -284.77c0,-43.05 9.85,-71.34 28.9,-83.64 19.07,-12.3 47.36,-8.62 83.66,12.91 36.27,20.9 63.95,49.21 83.63,83.64 19.08,35.05 28.92,73.82 28.92,117.47l0 284.77c0,43.05 -9.84,71.36 -28.92,83.66 -19.05,12.31 -47.36,8.6 -83.63,-12.93 -36.3,-20.91 -63.98,-49.19 -83.66,-83.64zm121.78 -24.6l0 -295.23c0,-35.66 -12.91,-60.88 -38.73,-75.64 -25.85,-14.76 -38.15,-4.31 -38.15,31.35l0 295.22c0,35.7 12.93,60.91 38.15,75.67 25.82,14.77 38.73,4.29 38.73,-31.37z"/>
   <path class="fil45" d="M8997.03 10341.9l-77.49 -44.9 0 -60.27c20.9,12.31 38.12,19.69 51.04,23.37 12.91,3.06 22.75,2.46 30.74,-3.07 7.38,-4.93 14.16,-14.77 20.32,-29.53l49.8 28.92 0 541.23 -74.41 -43.05 0 -412.7z"/>
   <path class="fil45" d="M5440.8 9325.96c-19.08,-35.06 -28.92,-73.82 -28.92,-117.48l0 -284.77c0,-43.05 9.84,-71.36 28.92,-83.66 19.05,-12.3 47.36,-8.6 83.63,12.94 36.3,20.9 63.98,49.18 83.66,83.63 19.05,35.06 28.89,73.79 28.89,117.48l0 284.77c0,43.05 -9.84,71.33 -28.89,83.63 -19.07,12.92 -47.36,8.63 -83.66,-12.91 -36.27,-20.9 -64.58,-49.21 -83.63,-83.63zm121.78 -24.61l0 -295.22c0,-35.69 -12.93,-60.91 -38.15,-75.65 -25.82,-14.76 -38.13,-4.31 -38.13,31.36l0 295.22c0,35.67 12.92,60.88 38.13,75.64 25.85,14.77 38.15,4.32 38.15,-31.35z"/>
   <path class="fil45" d="M5730.44 9492.49c-19.05,-35.06 -28.9,-73.8 -28.9,-117.48l0 -284.77c0,-43.05 9.85,-71.33 28.9,-83.64 19.07,-12.3 47.36,-7.99 83.66,12.92 36.27,20.93 63.95,49.21 83.63,83.66 19.08,35.06 28.92,73.79 28.92,117.47l0 284.75c0,43.07 -9.84,71.36 -28.92,83.66 -19.07,12.3 -47.36,8.6 -83.63,-12.91 -36.3,-20.93 -63.98,-48.61 -83.66,-83.66zm121.78 -24.61l0 -295.22c0,-35.67 -12.91,-60.88 -38.12,-75.65 -25.85,-14.76 -38.16,-4.31 -38.16,31.38l0 295.22c0,35.67 12.94,60.89 38.16,75.65 25.82,14.76 38.12,4.31 38.12,-31.38z"/>
   <path class="fil45" d="M6100.08 9321.49l-77.49 -44.9 0 -60.28c20.93,12.31 38.15,19.69 51.06,23.39 12.91,3.07 22.76,2.46 30.75,-3.09 7.38,-4.9 14.15,-14.74 20.29,-29.5l49.82 28.89 0 541.26 -74.43 -43.08 0 -412.69z"/>
   <path class="fil45" d="M6309.85 9827c-19.08,-35.06 -28.92,-73.79 -28.92,-117.48l0 -284.77c0,-43.05 9.84,-71.33 28.92,-83.63 19.05,-12.31 47.33,-8.63 83.63,12.91 36.28,20.9 63.98,49.21 83.66,83.63 19.05,35.06 28.9,73.82 28.9,117.48l0 284.77c0,43.07 -9.85,71.36 -28.9,83.66 -19.07,12.91 -47.38,8.6 -83.66,-12.91 -36.3,-20.93 -63.97,-49.21 -83.63,-83.66zm121.76 -24.61l0 -295.22c0,-35.67 -12.91,-60.88 -38.74,-75.64 -25.85,-14.77 -38.15,-4.32 -38.15,31.38l0 295.22c0,35.66 12.94,60.88 38.15,75.64 25.83,14.77 38.74,4.31 38.74,-31.38z"/>
   <path class="fil45" d="M6679.5 9656.05l-77.5 -44.9 0 -60.27c20.9,12.3 38.13,19.68 51.04,23.36 12.91,3.07 22.75,2.46 30.77,-3.07 7.38,-4.92 14.13,-14.76 20.29,-29.52l49.82 28.91 0 541.24 -74.42 -43.05 0 -412.7z"/>
   <path class="fil45" d="M6969.19 9823.59l-77.5 -44.9 0 -60.28c20.9,12.31 38.13,19.69 51.04,23.37 12.94,3.09 22.75,2.46 30.77,-3.07 7.38,-4.92 14.13,-14.77 20.29,-29.53l49.83 28.92 0 541.23 -74.43 -43.05 0 -412.69z"/>
   <path class="fil45" d="M7258.83 9989.98l-77.5 -44.9 0 -60.27c20.93,12.3 38.15,19.69 51.07,23.36 12.91,3.1 22.75,2.46 30.74,-3.07 7.38,-4.92 14.16,-14.76 20.29,-29.52l49.82 28.92 0 541.23 -74.42 -43.05 0 -412.7z"/>
   <path class="fil45" d="M7468.59 10496.32c-19.08,-35.06 -28.92,-73.8 -28.92,-117.48l0 -284.77c0,-43.05 9.84,-71.33 28.92,-83.64 19.05,-12.3 47.36,-8.62 83.63,12.92 36.3,20.9 63.98,49.21 83.64,83.63 19.08,35.06 28.92,73.82 28.92,117.48l0 284.77c0,43.04 -9.84,71.35 -28.92,83.66 -19.05,12.3 -47.34,8.6 -83.64,-12.94 -36.27,-20.9 -63.97,-49.19 -83.63,-83.63zm121.76 -24.61l0 -295.22c0,-35.67 -12.91,-60.88 -38.13,-75.65 -25.82,-14.76 -38.12,-4.31 -38.12,31.36l0 295.22c0,35.69 12.91,60.9 38.12,75.67 25.83,14.76 38.13,4.28 38.13,-31.38z"/>
   <path class="fil45" d="M7758.23 10663.53c-19.08,-35.06 -28.92,-73.79 -28.92,-117.47l0 -284.77c0,-43.05 9.84,-71.34 28.92,-83.64 19.05,-12.3 47.36,-8.6 83.63,12.91 36.3,20.93 63.98,49.22 83.66,83.66 19.69,34.43 28.9,73.8 28.9,117.48l0 284.77c0,43.05 -9.85,71.33 -28.9,83.63 -19.07,12.92 -47.36,8.6 -83.66,-12.91 -36.27,-20.93 -63.95,-49.21 -83.63,-83.66zm121.79 -24.6l0 -295.23c0,-35.66 -12.94,-60.88 -38.16,-75.64 -25.82,-14.76 -38.12,-4.31 -38.12,31.38l0 295.22c0,35.67 12.91,60.88 38.12,75.65 25.85,14.76 38.16,4.31 38.16,-31.38z"/>
   <path class="fil45" d="M8128.04 10491.87l-77.5 -44.9 0 -60.27c20.9,12.3 38.13,19.68 51.04,23.36 12.91,3.07 22.75,2.46 30.77,-3.07 7.38,-4.92 14.13,-14.76 20.29,-29.53l49.82 28.92 0 541.23 -74.42 -43.04 0 -412.7z"/>
   <path class="fil45" d="M8337.61 10998.31c-19.05,-35.06 -28.89,-73.82 -28.89,-117.48l0 -284.77c0,-43.04 9.84,-71.36 28.89,-83.66 19.08,-12.3 47.36,-8.6 83.66,12.94 36.28,20.9 63.95,49.19 83.64,83.63 19.08,35.06 28.92,73.82 28.92,117.48l0 284.77c0,43.05 -9.84,71.33 -28.92,83.64 -19.05,12.91 -47.36,8.62 -83.64,-12.92 -36.3,-20.9 -63.97,-49.21 -83.66,-83.63zm121.79 -24.61l0 -295.22c0,-35.67 -12.91,-60.91 -38.13,-75.64 -25.85,-14.77 -38.15,-4.32 -38.15,31.35l0 295.22c0,35.67 12.94,60.88 38.15,75.65 25.83,14.76 38.13,4.31 38.13,-31.36z"/>
   <path class="fil45" d="M8707.26 10826.62l-77.49 -44.9 0 -60.27c20.92,12.3 38.15,19.68 51.06,23.36 12.91,3.1 22.75,2.46 30.75,-3.07 7.38,-4.92 14.15,-14.76 20.29,-29.52l49.82 28.91 0 541.24 -74.43 -43.05 0 -412.7z"/>
   <path class="fil45" d="M8917.08 11332.74c-19.08,-35.05 -28.92,-73.79 -28.92,-117.47l0 -284.77c0,-43.05 9.84,-71.34 28.92,-83.64 19.05,-12.3 47.36,-8.6 83.63,12.91 36.3,20.93 63.98,49.22 83.66,83.66 19.66,34.43 28.9,73.8 28.9,117.48l0 284.74c0,43.08 -9.85,71.36 -28.9,83.67 -19.07,12.3 -47.36,8.59 -83.66,-12.92 -36.27,-20.92 -64.58,-49.21 -83.63,-83.66zm121.76 -24.6l0 -295.23c0,-35.66 -12.91,-60.88 -38.13,-75.64 -25.82,-14.76 -38.12,-4.31 -38.12,31.38l0 295.22c0,35.67 12.91,60.88 38.12,75.65 25.83,14.76 38.13,4.31 38.13,-31.38z"/>
   <path class="fil45" d="M5520.75 9638.69l-77.49 -44.9 0 -60.27c20.9,12.31 38.12,19.69 51.03,23.37 12.92,3.06 22.76,2.46 30.78,-3.07 7.99,-4.92 14.12,-14.77 20.29,-29.53l49.82 28.89 0 541.26 -74.43 -43.05 0 -412.7z"/>
   <path class="fil45" d="M5810.45 9806.23l-77.5 -44.9 0 -60.27c20.9,12.3 38.13,19.68 51.06,23.36 12.92,3.07 22.76,2.46 30.75,-3.07 7.38,-4.92 14.15,-14.76 20.29,-29.53l49.82 28.92 0 541.23 -74.42 -43.04 0 -412.7z"/>
   <path class="fil45" d="M6020.18 10312.35c-19.05,-35.06 -28.89,-73.82 -28.89,-117.47l0 -284.78c0,-43.04 9.84,-71.33 28.89,-83.63 19.08,-12.3 47.36,-8.63 83.66,12.91 36.28,20.9 63.95,48.58 83.64,83.64 19.07,35.05 28.92,73.81 28.92,117.47l0 284.77c0,43.05 -9.85,71.36 -28.92,83.66 -19.05,12.28 -47.36,8.6 -83.64,-12.93 -36.3,-20.91 -63.97,-49.19 -83.66,-83.64zm121.79 -24.61l0 -295.22c0,-35.66 -12.91,-60.88 -38.13,-75.64 -25.82,-14.77 -38.12,-4.32 -38.12,31.35l0 295.22c0,35.7 12.91,60.91 38.12,75.67 25.83,14.77 38.13,4.29 38.13,-31.38z"/>
   <path class="fil45" d="M6309.85 10479.73c-19.08,-35.06 -28.92,-73.82 -28.92,-117.48l0 -284.77c0,-43.05 9.84,-71.36 28.92,-83.64 19.05,-12.3 47.33,-8.01 83.63,12.92 36.28,20.9 63.98,49.18 83.66,83.63 19.05,35.06 28.9,73.82 28.9,117.48l0 284.77c0,43.05 -9.85,71.36 -28.9,83.63 -19.07,12.31 -47.38,8.63 -83.66,-12.91 -36.3,-20.9 -63.97,-49.19 -83.63,-83.63zm121.76 -24.61l0 -295.22c0,-35.67 -12.91,-60.88 -38.74,-75.65 -25.85,-14.76 -38.15,-4.31 -38.15,31.36l0 295.22c0,35.69 12.94,60.91 38.15,75.67 25.83,14.74 38.74,4.29 38.74,-31.38z"/>
   <path class="fil45" d="M6599.54 10646.89c-19.08,-35.06 -28.92,-73.79 -28.92,-117.48l0 -284.74c0,-43.07 9.84,-71.36 28.92,-83.66 19.08,-12.3 47.36,-8.6 83.63,12.91 36.3,20.93 63.98,49.21 83.66,83.66 19.05,35.06 28.9,73.79 28.9,117.48l0 284.77c0,43.05 -9.85,71.33 -28.9,83.63 -19.07,12.31 -47.36,8.6 -83.66,-12.91 -36.27,-20.93 -63.95,-48.6 -83.63,-83.66zm121.79 -24.58l0 -295.22c0,-35.69 -12.94,-60.91 -38.16,-75.67 -25.82,-14.77 -38.12,-4.29 -38.12,31.38l0 295.22c0,35.66 12.91,60.88 38.12,75.64 25.85,14.77 38.16,4.32 38.16,-31.35z"/>
   <path class="fil45" d="M6889.23 10814.24c-19.08,-35.06 -28.89,-73.82 -28.89,-117.48l0 -284.77c0,-43.05 9.81,-71.36 28.89,-83.66 19.08,-12.3 47.36,-8.6 83.66,12.94 36.28,20.9 63.95,49.19 83.64,83.63 19.07,35.06 28.89,73.8 28.89,117.48l0 284.77c0,43.05 -9.82,71.33 -28.89,83.63 -19.08,12.92 -47.36,8.63 -83.64,-12.91 -36.3,-20.9 -63.97,-49.21 -83.66,-83.63zm121.79 -24.61l0 -295.22c0,-35.69 -12.91,-60.91 -38.76,-75.64 -25.83,-14.77 -38.13,-4.32 -38.13,31.35l0 295.22c0,35.67 12.91,60.88 38.13,75.65 25.85,14.76 38.76,4.31 38.76,-31.36z"/>
   <path class="fil45" d="M7258.83 10642.44l-77.5 -44.9 0 -60.27c20.93,12.31 38.15,19.69 51.07,23.39 12.91,3.07 22.75,2.44 30.74,-3.09 7.38,-4.93 14.16,-14.77 20.29,-29.53l49.82 28.92 0 541.23 -74.42 -43.05 0 -412.7z"/>
   <path class="fil45" d="M7468.59 11148.88c-19.08,-35.05 -28.92,-73.79 -28.92,-117.47l0 -284.77c0,-43.05 9.84,-71.33 28.92,-83.64 19.05,-12.3 47.36,-8.62 83.63,12.91 36.3,20.91 63.98,48.58 83.64,83.64 19.08,35.06 28.92,73.82 28.92,117.47l0 284.78c0,43.04 -9.84,71.35 -28.92,83.66 -19.05,12.91 -47.34,8.6 -83.64,-12.92 -36.27,-20.92 -63.97,-49.21 -83.63,-83.66zm121.76 -24.6l0 -295.22c0,-35.67 -12.91,-60.89 -38.13,-75.65 -25.82,-14.76 -38.12,-4.31 -38.12,31.35l0 295.25c0,35.67 12.91,60.88 38.12,75.65 25.83,14.76 38.13,4.31 38.13,-31.38z"/>
   <path class="fil45" d="M7838.29 10977.22l-77.49 -44.9 0 -60.3c20.9,12.31 38.12,19.69 51.03,23.39 12.91,3.07 22.76,2.46 30.75,-3.07 7.38,-4.92 14.15,-14.76 20.29,-29.52l49.82 28.89 0 541.26 -74.4 -43.05 0 -412.7z"/>
   <path class="fil45" d="M8047.97 11483.24c-19.07,-35.06 -28.92,-73.82 -28.92,-117.48l0 -284.77c0,-43.05 9.85,-71.36 28.92,-83.63 19.08,-12.31 47.36,-8.63 83.64,12.91 36.3,20.9 64.58,49.18 83.66,83.63 19.08,35.06 28.92,73.82 28.92,117.48l0 284.77c0,43.05 -9.84,71.36 -28.92,83.63 -19.08,12.31 -47.36,8.63 -83.66,-12.91 -36.28,-20.9 -63.95,-48.58 -83.64,-83.63zm121.79 -24.61l0 -295.22c0,-35.67 -12.91,-60.88 -38.76,-75.65 -25.82,-14.76 -38.13,-4.31 -38.13,31.36l0 295.22c0,35.69 12.92,60.91 38.13,75.64 25.85,14.77 38.76,4.32 38.76,-31.35z"/>
   <path class="fil45" d="M8417.62 11311.87l-77.49 -44.9 0 -60.28c20.93,12.31 38.12,19.69 51.06,23.37 12.91,3.09 22.76,2.46 30.75,-3.07 7.38,-4.92 14.12,-14.77 20.29,-29.53l49.82 28.92 0 541.23 -74.43 -43.05 0 -412.69z"/>
   <path class="fil45" d="M8707.26 11479.3l-77.49 -44.9 0 -60.28c20.92,12.31 38.15,19.69 51.06,23.37 12.91,3.09 22.75,2.46 30.75,-3.07 7.38,-4.92 14.15,-14.77 20.29,-29.53l49.82 28.92 0 541.23 -74.43 -43.05 0 -412.69z"/>
   <path class="fil45" d="M8917.08 11985.2c-19.08,-35.05 -28.92,-73.79 -28.92,-117.47l0 -284.74c0,-43.08 9.84,-71.36 28.92,-83.67 19.05,-12.3 47.36,-8.59 83.63,12.92 36.3,20.92 63.98,48.6 83.66,83.66 19.05,35.05 28.9,73.79 28.9,117.47l0 284.77c0,43.05 -9.85,71.33 -28.9,83.64 -19.07,12.91 -47.36,8.62 -83.66,-12.91 -36.27,-20.91 -64.58,-49.22 -83.63,-83.67zm121.76 -24.57l0 -295.23c0,-35.69 -12.91,-60.9 -38.13,-75.67 -25.82,-14.76 -38.12,-4.28 -38.12,31.38l0 295.22c0,35.67 12.91,60.88 38.12,75.65 25.83,14.76 38.13,4.31 38.13,-31.35z"/>
   <path class="fil45" d="M5520.75 10291.55l-77.49 -44.87 0 -60.3c20.9,12.31 38.12,19.69 51.03,23.39 12.92,3.07 22.76,2.46 30.78,-3.07 7.99,-4.92 14.12,-14.76 20.29,-29.53l49.82 28.9 0 541.26 -74.43 -43.05 0 -412.73z"/>
   <path class="fil45" d="M5730.44 10796.86c-19.05,-35.06 -28.9,-73.8 -28.9,-117.48l0 -284.74c0,-43.08 9.85,-71.36 28.9,-83.67 19.07,-12.3 47.36,-8.59 83.66,12.92 36.27,20.92 63.95,49.21 83.63,83.66 19.08,35.05 28.92,73.79 28.92,117.47l0 284.77c0,43.05 -9.84,71.34 -28.92,83.64 -19.07,12.3 -47.36,8.6 -83.63,-12.91 -36.3,-20.93 -63.98,-49.22 -83.66,-83.66zm121.78 -24.58l0 -295.25c0,-35.67 -12.91,-60.88 -38.12,-75.65 -25.85,-14.76 -38.16,-4.28 -38.16,31.38l0 295.22c0,35.67 12.94,60.88 38.16,75.65 25.21,14.76 38.12,4.31 38.12,-31.35z"/>
   <path class="fil45" d="M6020.18 10964.71c-19.05,-35.06 -28.89,-73.8 -28.89,-117.48l0 -284.77c0,-43.05 9.84,-71.33 28.89,-83.63 19.08,-12.31 47.36,-8.63 83.66,12.91 36.28,20.9 63.95,49.21 83.64,83.63 19.07,35.06 28.92,73.82 28.92,117.48l0 284.77c0,43.07 -9.85,71.36 -28.92,83.66 -19.05,12.91 -47.36,8.6 -83.64,-12.91 -36.3,-20.93 -63.97,-49.21 -83.66,-83.66zm121.79 -24.61l0 -295.22c0,-35.67 -12.91,-60.88 -38.13,-75.65 -25.82,-14.76 -38.12,-4.31 -38.12,31.38l0 295.23c0,35.66 12.91,60.88 38.12,75.64 25.83,14.76 38.13,4.31 38.13,-31.38z"/>
   <path class="fil45" d="M6309.85 11131.42c-19.08,-35.06 -28.92,-73.82 -28.92,-117.47l0 -284.78c0,-43.04 9.84,-71.33 28.92,-83.63 19.05,-12.3 47.33,-8.63 83.63,12.91 36.28,20.9 63.98,48.58 83.66,83.64 19.05,35.05 28.9,73.82 28.9,117.47l0 284.77c0,43.05 -9.85,71.36 -28.9,83.66 -19.07,12.28 -47.38,8.6 -83.66,-12.93 -36.3,-20.91 -63.97,-49.19 -83.63,-83.64zm121.76 -24.61l0 -295.22c0,-35.66 -12.91,-60.88 -38.74,-75.64 -25.85,-14.77 -38.15,-4.31 -38.15,31.35l0 295.22c0,35.7 12.94,60.91 38.15,75.67 25.83,14.77 38.74,4.29 38.74,-31.38z"/>
   <path class="fil45" d="M6679.5 10960.58l-77.5 -44.9 0 -60.27c20.9,12.3 38.13,19.66 51.04,23.36 12.91,3.07 22.75,2.46 30.77,-3.07 7.38,-4.92 14.13,-14.76 20.29,-29.53l49.82 28.9 0 541.25 -74.42 -43.04 0 -412.7z"/>
   <path class="fil45" d="M6889.23 11466.38c-19.08,-35.05 -28.89,-73.79 -28.89,-117.47l0 -284.77c0,-43.05 9.81,-71.33 28.89,-83.64 19.08,-12.3 47.36,-8.62 83.66,12.91 36.28,20.91 63.95,49.22 83.64,83.64 19.07,35.06 28.89,73.82 28.89,117.47l0 284.78c0,43.04 -9.82,71.35 -28.89,83.66 -19.08,12.3 -47.36,8.6 -83.64,-12.92 -36.3,-20.92 -63.97,-48.6 -83.66,-83.66zm121.79 -24.6l0 -295.22c0,-35.67 -12.91,-60.89 -38.76,-75.65 -25.83,-14.76 -38.13,-4.31 -38.13,31.35l0 295.25c0,35.67 12.91,60.88 38.13,75.65 25.85,14.76 38.76,4.31 38.76,-31.38z"/>
   <path class="fil45" d="M7258.83 11295.12l-77.5 -44.9 0 -60.27c20.93,12.3 38.15,19.68 51.07,23.36 12.91,3.1 22.75,2.46 30.74,-3.07 7.38,-4.92 14.16,-14.76 20.29,-29.53l49.82 28.92 0 541.23 -74.42 -43.04 0 -412.7z"/>
   <path class="fil45" d="M7468.59 11800.74c-19.08,-35.06 -28.92,-73.82 -28.92,-117.48l0 -284.77c0,-43.05 9.84,-71.36 28.92,-83.63 19.05,-12.31 47.36,-8.63 83.63,12.91 36.3,20.9 63.98,49.18 83.64,83.63 19.08,35.06 28.92,73.82 28.92,117.48l0 284.77c0,43.05 -9.84,71.33 -28.92,83.63 -19.05,12.31 -47.34,8.63 -83.64,-12.91 -36.27,-20.9 -63.97,-49.18 -83.63,-83.63zm121.76 -24.61l0 -295.22c0,-35.67 -12.91,-60.88 -38.13,-75.65 -25.82,-14.76 -38.12,-4.31 -38.12,31.36l0 295.22c0,35.69 12.91,60.91 38.12,75.67 25.83,14.74 38.13,4.29 38.13,-31.38z"/>
   <path class="fil45" d="M7838.29 11629.9l-77.49 -44.9 0 -60.3c20.9,12.3 38.12,19.68 51.03,23.39 12.91,3.07 22.76,2.46 30.75,-3.07 7.38,-4.92 14.15,-14.77 20.29,-29.53l49.82 28.89 0 541.26 -74.4 -43.05 0 -412.69z"/>
   <path class="fil45" d="M8128.04 11796.58l-77.5 -44.9 0 -60.27c20.9,12.3 38.13,19.69 51.04,23.39 12.91,3.07 22.75,2.46 30.77,-3.09 7.38,-4.93 14.13,-14.77 20.29,-29.51l49.82 28.9 0 541.25 -74.42 -43.07 0 -412.7z"/>
   <path class="fil45" d="M8417.62 11964.44l-77.49 -44.9 0 -60.28c20.93,12.31 38.12,19.69 51.06,23.37 12.91,3.09 22.76,2.46 30.75,-3.07 7.38,-4.92 14.12,-14.77 20.29,-29.53l49.82 28.92 0 541.23 -74.43 -43.05 0 -412.69z"/>
   <path class="fil45" d="M8627.31 12470.05c-19.05,-35.05 -28.9,-73.81 -28.9,-117.47l0 -284.77c0,-43.05 9.85,-71.36 28.9,-83.66 19.07,-12.31 47.36,-8.6 83.66,12.93 36.27,20.91 63.95,49.19 83.63,83.64 19.08,35.06 28.92,73.79 28.92,117.47l0 284.78c0,43.04 -9.84,71.33 -28.92,83.63 -19.05,12.3 -47.36,8.63 -83.63,-12.91 -36.3,-20.9 -63.98,-49.21 -83.66,-83.64zm121.78 -24.6l0 -295.22c0,-35.67 -12.91,-60.91 -38.73,-75.65 -25.85,-14.76 -38.15,-4.31 -38.15,31.35l0 295.23c0,35.66 12.93,60.88 38.15,75.64 25.82,14.76 38.73,4.31 38.73,-31.35z"/>
   <path class="fil45" d="M8917.08 12637.16c-19.08,-35.05 -28.92,-73.79 -28.92,-117.47l0 -284.77c0,-43.05 9.84,-71.33 28.92,-83.64 19.05,-12.3 47.36,-8.62 83.63,12.92 36.3,20.9 63.98,49.21 83.66,83.63 19.05,35.06 28.9,73.82 28.9,117.48l0 284.77c0,43.04 -9.85,71.35 -28.9,83.66 -19.07,12.3 -47.36,8.6 -83.66,-12.91 -36.27,-20.93 -64.58,-49.22 -83.63,-83.67zm121.76 -24.6l0 -295.22c0,-35.67 -12.91,-60.88 -38.13,-75.65 -25.82,-14.76 -38.12,-4.31 -38.12,31.36l0 295.24c0,35.67 12.91,60.88 38.12,75.65 25.83,14.76 38.13,4.31 38.13,-31.38z"/>
  </g>
  <polygon class="fil22" points="5717.29,7219 5717.29,7351.85 6617.11,7864.19 6617.11,7731.95 "/>
  <polygon class="fil22" points="5717.29,11295.65 5717.29,11427.89 6617.11,11940.83 6617.11,11807.99 "/>
  <path class="fil46" d="M4288.67 8514.14c-79.96,-71.97 -137.16,-146.37 -170.98,-222.04 -33.84,-76.26 -50.45,-154.36 -50.45,-234.95l0 -143.3c0,-46.75 -8.6,-87.95 -26.43,-124.25 -17.84,-36.27 -45.51,-65.19 -82.42,-86.09l0 -142.09c36.91,21.54 63.95,24.61 82.42,9.24 17.83,-15.37 26.43,-46.75 26.43,-94.72l0 -143.3c0,-80.59 17.22,-139.01 50.45,-175.92 33.82,-36.91 91.02,-44.9 170.98,-24.61l34.45 130.41c-35.06,-5.55 -59.67,6.14 -73.82,35.67 -14.13,28.89 -21.51,71.33 -21.51,127.32l0 143.3c0,49.21 -9.24,87.34 -27.68,114.4 -18.47,27.07 -46.14,41.2 -83.05,40.59 36.91,43.66 64.58,89.19 83.05,137.77 18.44,48.6 27.68,96.57 27.68,144.54l0 143.3c0,55.35 7.38,105.8 21.51,151.92 14.15,45.51 38.76,86.1 73.82,120.55l-34.45 91.65 0 0.61z"/>
  <path class="fil22" d="M5175.52 8757.84c35.06,5.53 59.67,-6.13 73.8,-35.66 14.15,-28.92 21.53,-71.36 21.53,-127.32l0 -143.3c0,-49.21 9.24,-86.73 28.29,-113.8 19.07,-26.45 47.36,-39.37 86.12,-38.73 -38.76,-43.68 -67.05,-89.8 -86.12,-138.4 -19.05,-48.58 -28.29,-97.79 -28.29,-147.61l0 -143.3c0,-55.35 -7.38,-106.42 -21.53,-151.93 -14.13,-45.51 -38.74,-86.09 -73.8,-120.54l34.45 -91.02c79.33,71.94 136.53,145.76 170.37,221.41 33.81,75.64 51.04,154.38 51.04,234.34l0 143.3c0,47.36 8.62,89.19 26.46,125.46 17.83,36.3 45.5,64.59 83.02,86.12l0 142.08c-37.52,-21.53 -65.19,-24.6 -83.02,-9.23 -17.84,15.37 -26.46,46.73 -26.46,93.48l0 143.3c0,80.59 -17.23,139.01 -51.04,175.92 -33.84,36.91 -91.04,45.51 -170.37,25.21l-34.45 -131.63 0 1.85z"/>
 </g>
</svg>
