<?xml version="1.0" encoding="UTF-8"?>
<!DOCTYPE svg PUBLIC "-//W3C//DTD SVG 1.1//EN" "http://www.w3.org/Graphics/SVG/1.1/DTD/svg11.dtd">
<!-- Creator: CorelDRAW -->
<svg xmlns="http://www.w3.org/2000/svg" xml:space="preserve" width="210mm" height="180mm" version="1.1" style="shape-rendering:geometricPrecision; text-rendering:geometricPrecision; image-rendering:optimizeQuality; fill-rule:evenodd; clip-rule:evenodd"
viewBox="0 0 21000 18000"
 xmlns:xlink="http://www.w3.org/1999/xlink"
 xmlns:xodm="http://www.corel.com/coreldraw/odm/2003">
 <defs>
  <style type="text/css">
   <![CDATA[
    .str0 {stroke:#B45A5A;stroke-width:43.52;stroke-linecap:round;stroke-linejoin:round;stroke-miterlimit:22.9256;stroke-dasharray:170.650000 170.650000}
    .str1 {stroke:#BD5A5A;stroke-width:43.52;stroke-linecap:round;stroke-linejoin:round;stroke-miterlimit:22.9256;stroke-dasharray:174.090000 174.090000}
    .fil4 {fill:none;fill-rule:nonzero}
    .fil3 {fill:#717271;fill-rule:nonzero}
    .fil19 {fill:#B45A5A;fill-rule:nonzero}
    .fil12 {fill:#BD5A5A;fill-rule:nonzero}
    .fil6 {fill:white;fill-rule:nonzero;fill-opacity:0.031373}
    .fil10 {fill:white;fill-rule:nonzero;fill-opacity:0.039216}
    .fil2 {fill:white;fill-rule:nonzero;fill-opacity:0.101961}
    .fil14 {fill:white;fill-rule:nonzero;fill-opacity:0.200000}
    .fil7 {fill:white;fill-rule:nonzero;fill-opacity:0.301961}
    .fil15 {fill:white;fill-rule:nonzero;fill-opacity:0.501961}
    .fil16 {fill:url(#id6);fill-rule:nonzero}
    .fil5 {fill:url(#id7);fill-rule:nonzero}
    .fil11 {fill:url(#id8);fill-rule:nonzero}
    .fil8 {fill:url(#id9);fill-rule:nonzero}
    .fil18 {fill:url(#id10);fill-rule:nonzero}
    .fil9 {fill:url(#id11);fill-rule:nonzero}
    .fil17 {fill:url(#id12);fill-rule:nonzero}
    .fil0 {fill:url(#id13);fill-rule:nonzero}
    .fil21 {fill:url(#id14);fill-rule:nonzero}
    .fil1 {fill:url(#id15);fill-rule:nonzero}
    .fil22 {fill:url(#id16);fill-rule:nonzero}
    .fil20 {fill:url(#id17);fill-rule:nonzero}
    .fil13 {fill:url(#id18);fill-rule:nonzero}
    .fil23 {fill:url(#id19);fill-rule:nonzero}
   ]]>
  </style>
    <clipPath id="id0" style="clip-rule:nonzero">
     <path d="M12111.93 14234.81l5448.31 1983.02 0 -4781.44 -5448.31 -1983.02 0 4781.44z"/>
    </clipPath>
    <clipPath id="id1" style="clip-rule:nonzero">
     <path d="M1808.67 9688.21l5314.11 1934.18 0 -4877.25 -5314.11 -1934.18 0 4877.25z"/>
    </clipPath>
    <clipPath id="id2" style="clip-rule:nonzero">
     <path d="M3036.71 13421.82l7128.44 2594.54 0 -4603.35 -7128.44 -2594.54 0 4603.35z"/>
    </clipPath>
    <clipPath id="id3" style="clip-rule:nonzero">
     <path d="M9212.14 7817.6l4504.73 1639.59 0 -4793.83 -4504.73 -1639.59 0 4793.83z"/>
    </clipPath>
    <clipPath id="id4" style="clip-rule:nonzero">
     <path d="M11988.57 11168.13l4542.04 1653.17 0 -5366.73 -4542.04 -1653.17 0 5366.73z"/>
    </clipPath>
    <clipPath id="id5" style="clip-rule:nonzero">
     <path d="M5048.21 8423.8l5782.27 2104.57 0 -5366.73 -5782.27 -2104.57 0 5366.73z"/>
    </clipPath>
  <linearGradient id="id6" gradientUnits="userSpaceOnUse" x1="7932.87" y1="11838.25" x2="7956.11" y2="11838.25">
   <stop offset="0" style="stop-opacity:1; stop-color:#703EF9"/>
   <stop offset="0.0117647" style="stop-opacity:1; stop-color:#703EF9"/>
   <stop offset="0.988235" style="stop-opacity:1; stop-color:#B8AEFB"/>
   <stop offset="1" style="stop-opacity:1; stop-color:#B8AEFB"/>
  </linearGradient>
  <linearGradient id="id7" gradientUnits="userSpaceOnUse" x1="16768.58" y1="16248.69" x2="14757.75" y2="9460.77">
   <stop offset="0" style="stop-opacity:1; stop-color:#0F0F0F"/>
   <stop offset="0.0117647" style="stop-opacity:1; stop-color:#0F0F0F"/>
   <stop offset="1" style="stop-opacity:1; stop-color:#777777"/>
  </linearGradient>
  <linearGradient id="id8" gradientUnits="userSpaceOnUse" x1="2560.46" y1="2192.4" x2="46.92" y2="7182.11">
   <stop offset="0" style="stop-opacity:1; stop-color:#79D1FC"/>
   <stop offset="1" style="stop-opacity:1; stop-color:#4C84FA"/>
  </linearGradient>
  <linearGradient id="id9" gradientUnits="userSpaceOnUse" x1="14936.25" y1="14789.19" x2="14488.77" y2="10095.58">
   <stop offset="0" style="stop-opacity:1; stop-color:#5CA29D"/>
   <stop offset="1" style="stop-opacity:1; stop-color:#A5FF9C"/>
  </linearGradient>
  <linearGradient id="id10" gradientUnits="userSpaceOnUse" x1="13143.79" y1="10868.68" x2="13143.79" y2="3693.04">
   <stop offset="0" style="stop-opacity:1; stop-color:#5B5B5B"/>
   <stop offset="1" style="stop-opacity:1; stop-color:white"/>
  </linearGradient>
  <linearGradient id="id11" gradientUnits="userSpaceOnUse" x1="3089.63" y1="8774.22" x2="5550.26" y2="7108.09">
   <stop offset="0" style="stop-opacity:1; stop-color:#2E302E"/>
   <stop offset="0.501961" style="stop-opacity:1; stop-color:#555555"/>
   <stop offset="1" style="stop-opacity:1; stop-color:#757575"/>
  </linearGradient>
  <linearGradient id="id12" gradientUnits="userSpaceOnUse" xlink:href="#id6" x1="8010.88" y1="11808.26" x2="8037.34" y2="11808.26">
  </linearGradient>
  <linearGradient id="id13" gradientUnits="userSpaceOnUse" x1="13725.87" y1="13873.04" x2="9598.38" y2="3746.62">
   <stop offset="0" style="stop-opacity:1; stop-color:#141514"/>
   <stop offset="1" style="stop-opacity:1; stop-color:#414141"/>
  </linearGradient>
  <linearGradient id="id14" gradientUnits="userSpaceOnUse" x1="14810.66" y1="7998.27" x2="14255.04" y2="8553.89">
   <stop offset="0" style="stop-opacity:1; stop-color:#2A2B2A"/>
   <stop offset="0.0117647" style="stop-opacity:1; stop-color:#2A2B2A"/>
   <stop offset="0.988235" style="stop-opacity:1; stop-color:#4E4E4E"/>
   <stop offset="1" style="stop-opacity:1; stop-color:#4E4E4E"/>
  </linearGradient>
  <linearGradient id="id15" gradientUnits="userSpaceOnUse" x1="9836.51" y1="6834.1" x2="8063.8" y2="11649.51">
   <stop offset="0" style="stop-opacity:1; stop-color:#626262"/>
   <stop offset="1" style="stop-opacity:1; stop-color:#1A1E19"/>
  </linearGradient>
  <linearGradient id="id16" gradientUnits="userSpaceOnUse" x1="9519.01" y1="4699.49" x2="6555.67" y2="6677.88">
   <stop offset="0" style="stop-opacity:1; stop-color:#595B59"/>
   <stop offset="1" style="stop-opacity:1; stop-color:#363636"/>
  </linearGradient>
  <linearGradient id="id17" gradientUnits="userSpaceOnUse" x1="15075.25" y1="12144.66" x2="15339.83" y2="6337.19">
   <stop offset="0" style="stop-opacity:1; stop-color:#2F3131"/>
   <stop offset="0.0117647" style="stop-opacity:1; stop-color:#2F3131"/>
   <stop offset="0.988235" style="stop-opacity:1; stop-color:#595958"/>
   <stop offset="1" style="stop-opacity:1; stop-color:#595958"/>
  </linearGradient>
  <linearGradient id="id18" gradientUnits="userSpaceOnUse" x1="9862.9" y1="14653.32" x2="3989.23" y2="10067.95">
   <stop offset="0" style="stop-opacity:1; stop-color:#883434"/>
   <stop offset="1" style="stop-opacity:1; stop-color:#BD5A5A"/>
  </linearGradient>
  <linearGradient id="id19" gradientUnits="userSpaceOnUse" x1="9466.09" y1="6117.06" x2="6873.17" y2="2961.94">
   <stop offset="0" style="stop-opacity:1; stop-color:#242424"/>
   <stop offset="0.988235" style="stop-opacity:1; stop-color:#5B5B5B"/>
   <stop offset="1" style="stop-opacity:1; stop-color:#5B5B5B"/>
  </linearGradient>
 </defs>
 <g id="Слой_x0020_1">
  <metadata id="CorelCorpID_0Corel-Layer"/>
  <path class="fil0" d="M14000.83 8130.69l-8313.05 -3025.7c-104.88,-38.18 -189.92,21.36 -189.92,133.01l0 5527.3c0,111.63 85.04,233.1 189.92,271.28l8313.05 3025.7c104.91,38.18 189.95,-21.38 189.95,-133.01l0 -5527.33c0,-111.63 -85.04,-233.07 -189.95,-271.25z"/>
  <polygon class="fil1" points="13968.34,13813.89 13968.34,8355.77 5720.33,5353.73 5720.33,10811.85 "/>
  <path class="fil2" d="M7371.22 6894.19l4945.86 1800.14c39.58,14.39 77.52,44.93 105.51,84.91 28,39.95 43.71,86.07 43.71,128.19l0 4359.72 -5243.96 -1908.65 0 -4359.72c0,-42.05 15.69,-76.68 43.58,-96.29 27.91,-19.6 65.77,-22.59 105.3,-8.3z"/>
  <path class="fil3" d="M11059.72 9515.33l-2429.82 -884.37c-37.76,-13.75 -73.96,-42.89 -100.65,-81.01 -26.7,-38.13 -41.7,-82.13 -41.7,-122.32 -0.05,-19.95 3.6,-38.34 10.74,-54.18 7.12,-15.83 17.6,-28.77 30.83,-38.05 13.23,-9.29 28.94,-14.77 46.22,-16.12 17.3,-1.32 35.85,1.49 54.56,8.31l2429.82 884.37c37.84,13.79 74.14,43 100.92,81.2 26.74,38.24 41.8,82.34 41.8,122.61 -0.11,40.19 -15.19,73.24 -41.94,91.89 -26.75,18.68 -62.99,21.43 -100.78,7.67z"/>
  <path class="fil3" d="M11406.41 10303.37l-3124.2 -1137.13c-18.74,-6.77 -37.28,-17.41 -54.59,-31.3 -17.3,-13.89 -33.04,-30.77 -46.3,-49.66 -13.25,-18.89 -23.78,-39.45 -30.96,-60.46 -7.17,-21.03 -10.87,-42.09 -10.87,-62.02 -0.03,-19.97 3.63,-38.41 10.77,-54.26 7.17,-15.85 17.67,-28.76 30.93,-38.05 13.28,-9.29 29.02,-14.74 46.35,-16.06 17.33,-1.3 35.91,1.56 54.67,8.44l3124.2 1137.13c18.73,6.8 37.25,17.49 54.55,31.4 17.31,13.95 33,30.85 46.23,49.77 13.23,18.92 23.7,39.48 30.85,60.51 7.11,21.01 10.77,42.07 10.74,61.99 0,19.9 -3.7,38.26 -10.85,54.03 -7.14,15.77 -17.65,28.66 -30.85,37.92 -13.23,9.26 -28.92,14.71 -46.2,16.03 -17.27,1.32 -35.77,-1.48 -54.47,-8.28z"/>
  <path class="fil3" d="M11477.58 11051.43l-3267.26 -1189.17c-9.37,-3.42 -18.65,-8.79 -27.31,-15.75 -8.67,-6.98 -16.53,-15.48 -23.15,-24.95 -6.61,-9.47 -11.85,-19.79 -15.4,-30.29 -3.57,-10.53 -5.37,-21.09 -5.31,-31.04 0,-20.11 7.48,-36.64 20.85,-45.98 13.33,-9.34 31.45,-10.74 50.32,-3.87l3266.92 1189.04c18.86,6.88 36.96,21.46 50.32,40.51 13.36,19.08 20.85,41.06 20.85,61.17 0.05,9.95 -1.75,19.16 -5.29,27.09 -3.52,7.92 -8.73,14.4 -15.32,19.08 -6.56,4.66 -14.4,7.44 -23.02,8.15 -8.63,0.71 -17.86,-0.63 -27.2,-3.99z"/>
  <path class="fil3" d="M11477.55 11591.12l-3267.23 -1189.17c-18.92,-6.98 -37.02,-21.64 -50.35,-40.74 -13.34,-19.13 -20.82,-41.15 -20.82,-61.28 0,-20.08 7.48,-36.62 20.85,-45.99 13.33,-9.34 31.45,-10.74 50.32,-3.86l3266.92 1189.07c18.86,6.87 36.96,21.43 50.32,40.5 13.36,19.05 20.85,41.07 20.85,61.15 0,20.05 -7.44,36.62 -20.72,46.04 -13.25,9.42 -31.27,10.95 -50.14,4.28z"/>
  <path class="fil3" d="M11477.55 12130.42l-3267.23 -1189.17c-18.92,-6.98 -37.02,-21.64 -50.35,-40.74 -13.34,-19.13 -20.82,-41.17 -20.82,-61.28 0,-20.11 7.48,-36.65 20.85,-45.99 13.33,-9.33 31.45,-10.74 50.32,-3.86l3266.92 1189.07c18.86,6.85 36.96,21.43 50.32,40.5 13.36,19.05 20.85,41.07 20.85,61.15 0,20.05 -7.44,36.59 -20.72,46.04 -13.25,9.42 -31.27,10.95 -50.14,4.28z"/>
  <path class="fil4 str0" d="M2976.41 7201.05c-1036.61,-1749.19 89.67,-3484.72 2169.03,-2121.14"/>
  <path class="fil4 str1" d="M12101.39 4608.85c1822.34,-158.09 2945.68,1740.16 2711.87,2795.06"/>
  <g>
   <g style="clip-path:url(#id0)">
    <image x="12111.93" y="9453.37" width="5448.31" height="6764.46" xlink:href="img4-1_Images\img4-1_ImgID1.jpg"/>
   </g>
  </g>
  <path class="fil5" d="M16733.03 11652.08l0 2523.44c0,23.68 -4.37,45.51 -12.92,64.29 -8.52,18.76 -21,34.08 -36.75,45.09 -15.74,10.98 -34.42,17.43 -55,19 -20.56,1.53 -42.6,-1.86 -64.85,-10.01l-3455.01 -1257.51c-44.9,-16.35 -87.95,-50.98 -119.67,-96.31 -31.75,-45.32 -49.56,-97.6 -49.56,-145.38l0 -2523.44c0,-47.79 17.81,-87.13 49.53,-109.41 31.72,-22.27 74.77,-25.66 119.7,-9.39l3455.01 1257.51c44.95,16.38 88.08,51.07 119.88,96.47 31.78,45.4 49.64,97.79 49.64,145.65z"/>
  <path class="fil6" d="M16733.03 11770.17l0 769.59c-52.76,-5.08 -105.26,-6.93 -156.85,-8.44 -29.47,-0.08 -58.95,1.43 -90.51,1.56 -11.78,1.98 -26.83,1.53 -37.73,2.88 -61.7,7.68 -121.87,19.03 -180.42,34.11 -57.21,14.63 -112.93,32.94 -167.17,54l-38.04 15.32 -24.16 10.98 -23.89 11.69c-99.64,50.96 -194.29,109.7 -286.28,172.54 -383.28,263.02 -727.61,579.75 -1187.24,723.08l-1432.24 -521.31c-44.9,-16.32 -87.95,-50.96 -119.67,-96.31 -31.75,-45.32 -49.56,-97.6 -49.56,-145.36l0 -65.59c81.36,28.36 162.64,52.63 243.81,72.76 11.49,2.62 73.11,13.73 37.73,8.07l4.13 1.51c32.62,6.24 65.35,11.88 98.19,16.91 61.3,9.57 122.05,16.61 182.19,21.14 72.23,5.58 143.88,7.8 214.34,6.48 31.25,-0.56 62.49,-2.04 93.45,-3.63l10.9 -0.74 7.96 -0.87c125.36,-13.94 246.38,-39.32 362.06,-75.94 55.72,-17.67 109.38,-38.92 162.43,-61.33l31.56 -15.5c24.16,-12.54 48.34,-25.4 71.94,-38.76 388.57,-217.81 702.84,-546.13 1108.53,-737.63 241.3,-119.81 514.48,-182.14 807.51,-184.23 116.49,0.31 235.85,11.35 357.03,33.02z"/>
  <path class="fil7" d="M16536.6 13409.39l0 498.21c0,42.86 -16.01,78.13 -44.48,98.08 -28.47,19.93 -67.1,22.89 -107.37,8.23l-2116.82 -770.44 -54.53 -59.4 436.32 -305.83 906.31 -634.28c14.44,-10.16 31.64,-16.17 50.56,-17.65 18.92,-1.48 39.21,1.61 59.69,9.07 20.48,7.44 40.77,19.13 59.69,34.4 18.92,15.24 36.11,33.73 50.56,54.45l760.07 1085.16z"/>
  <path class="fil2" d="M15123.86 13554.83l-1836.77 -668.52c-40.24,-14.74 -78.82,-45.83 -107.26,-86.47 -28.47,-40.64 -44.48,-87.52 -44.56,-130.36l0 -61.19 779.52 -546.13c14.45,-10.19 31.64,-16.17 50.56,-17.65 18.92,-1.48 39.21,1.59 59.69,9.05 20.48,7.46 40.77,19.16 59.69,34.4 18.92,15.24 36.12,33.76 50.56,54.47l988.57 1412.4z"/>
  <path class="fil6" d="M14475.26 10649.79c-17.7,10.18 -35.67,18.39 -53.95,29l-8.84 3.99 -2.67 1.24c-2.89,1.75 -5.95,3.26 -9.13,4.5l-7.38 3.6 2.06 -1.43c-31.83,12.57 -63.37,24.93 -95.8,36.01 -58.98,19.34 -119.7,35.51 -181.61,48.1 -33.02,6.83 -66.33,12.57 -99.96,17.28l-45.09 5.87 -6.19 0.88c-135.1,6.93 -274.21,0.69 -416,-18.71 -36.57,-5.45 -73.43,-12.59 -109.96,-19 -3.31,-0.6 -6.57,-0.95 -9.74,-1.03l-19.47 -7.09c-73.98,-18.76 -147.4,-41.09 -223.18,-68.05 -75.75,-26.93 -140.92,-53.47 -211.38,-85.72 -7.09,-2.57 -15.63,-5.69 -24.47,-8.89l-11.8 -7.12 0 755.17c164.94,76.68 331.05,135.26 495.59,174.73 503.5,126.18 983.51,101.68 1390.39,-70.91 164.33,-71.67 312.87,-170.1 442.25,-293.02 51.88,-49.5 101.01,-101.81 147.4,-156.87l-941.07 -342.53z"/>
  <path class="fil8" d="M12780.76 9143.86l10.61 -5.24c16.43,-8.6 28.07,-18.92 -17.78,8.1l7.17 -2.86z"/>
  <g>
   <g style="clip-path:url(#id1)">
    <image x="1808.67" y="4810.96" width="5314.11" height="6811.43" xlink:href="img4-1_Images\img4-1_ImgID2.jpg"/>
   </g>
  </g>
  <path class="fil9" d="M5811.71 6951.2l-2691.26 -979.54c-110.94,-40.37 -200.9,22.6 -200.9,140.68l0 2017.98c0,118.06 89.96,246.51 200.9,286.89l2691.26 979.54c110.97,40.37 200.9,-22.6 200.9,-140.65l0 -2017.98c0,-118.09 -89.93,-246.54 -200.9,-286.92z"/>
  <path class="fil10" d="M5527.31 7916.64c-247.09,-85.19 -483.89,-130.62 -708.42,-100.14 -393.88,52.91 -613.94,392 -831.96,689.98 -27.01,36.4 -54.39,72.68 -83.15,107.39 -15.4,19.16 -31.83,36.86 -47.89,55.41 -0.85,1.05 -1.91,1.9 -3.1,2.51l-8.89 7.67 974.99 354.89c18.84,-26.3 38.34,-52.71 58.53,-78.13 24.66,-31.46 51.01,-61.2 77.02,-91.42 43.78,-51.43 -15.08,11.62 -15.08,14.18 0,-20.39 57.15,-52.04 68.44,-62.49 27.04,-21.11 55.12,-40.77 84.54,-57.73l-9.58 1.24c5.42,-0.9 10.58,-2.43 15.4,-4.6l9.23 -3.55c6.51,-3.09 13.02,-6.19 19.18,-8.33 22.57,-7.07 46.54,-11.09 68.45,-17.7 68.42,-18.79 -23.97,0.76 -22.94,-0.69 14.71,-20.85 129.7,3.86 158.12,8.02l27.04 4.39 27.7 7.17c46.54,12.94 93.42,28.18 140.31,44.13 94.8,32.7 189.25,68.9 284.06,103.4 66.38,24.16 133.82,48.71 201.24,69.59l0 -874.06c-159.49,-50.03 -321.02,-115.38 -483.24,-171.13z"/>
  <path class="fil10" d="M5811.71 6951.23l-1354.19 -492.89c-159.81,51.09 -316.2,109.96 -472.94,168.72 -128.69,47.87 -258.39,94.25 -392.54,131.37 -17.8,4.81 -34.23,9.76 -53.73,14.31 -38.69,11.06 18.15,-3.23 24.63,-5.24 -34.05,13.02 -70.96,20.38 -109.86,21.94 -73.23,12.67 -148.16,21.83 -224.84,27.43 -36.96,1.83 -74.27,2.84 -111.89,2.23 -20.19,-0.06 -44.85,-4.66 -68.45,-6.7 0,2.91 -9.92,5.14 -26.69,2.31l-13.02 -1.83 -3.42 -1.24 2.41 0.87c-19.52,-2.73 -39.37,-5.58 -58.87,-9.05l-28.76 -5.34 0 879.15c85.3,22.12 169.94,37.71 253.26,46.65 359.68,38.76 678.98,-12.91 992.45,-108.22 265.22,-80.83 513.35,-193.01 778.22,-277.25 30.48,-10.03 61.62,-19.45 92.77,-28.5 24.97,-7.3 77.68,-35.48 107.1,-29.13l-37.65 8.15 13.36 -2.43 55.09 -11.25c36.96,-6.96 73.92,-13.52 111.57,-18.76 70.49,-10.77 142.37,-15.93 215.61,-17.33 33.52,-0.9 67.76,-0.58 102.66,0.96 12.67,0.23 25.32,1.21 37.65,2.06l3.07 1.11c72.47,10.03 145.68,24.53 219.36,43.42 32.18,8.81 64.01,19.66 95.84,30.16 17.46,8.52 37.99,13.81 54.42,21.99l0 -99.8c0.03,-28.23 -5.19,-58.13 -15.37,-87.92 -10.19,-29.82 -25.11,-58.95 -43.95,-85.73 -18.84,-26.75 -41.22,-50.64 -65.8,-70.25 -24.61,-19.6 -50.93,-34.55 -77.5,-43.97z"/>
  <path class="fil11" d="M3047.88 6810.95c0,-3.28 -12.33,-6.3 -40.72,0.1 13.07,-1.64 26.72,-1.66 40.72,-0.1z"/>
  <path class="fil12" d="M3944.12 7911.14c-15.87,-5.9 -31.32,-16.86 -44.26,-31.38 -12.91,-14.53 -22.67,-31.91 -27.91,-49.77 -5.27,-17.89 -5.74,-35.35 -1.41,-50.01 4.37,-14.68 13.34,-25.85 25.67,-31.96l331.28 -157.69 -331.28 -399.18c-15.64,-19.28 -25.67,-42.54 -27.84,-64.71 -2.19,-22.2 3.6,-41.52 16.12,-53.85 12.54,-12.3 30.82,-16.61 50.88,-11.98 20.05,4.63 40.27,17.83 56.33,36.75l407.93 489.35c9.08,11 16.38,23.46 21.41,36.4 5.02,12.97 7.64,26.12 7.64,38.45 0,12.35 -2.62,23.6 -7.64,32.88 -5.03,9.29 -12.33,16.41 -21.41,20.83l-407.93 196.42c-13.66,6.09 -30.4,5.9 -47.58,-0.55z"/>
  <path class="fil12" d="M4988.3 8306.8l-387.4 -141.03c-20.43,-7.4 -40,-23.17 -54.45,-43.81 -14.42,-20.61 -22.54,-44.4 -22.54,-66.15 0,-21.72 8.12,-39.61 22.54,-49.74 14.45,-10.11 34.02,-11.61 54.45,-4.18l387.4 141.02c20.43,7.44 40.01,23.18 54.45,43.82 14.45,20.61 22.55,44.42 22.55,66.14 0,21.73 -8.1,39.61 -22.55,49.75 -14.44,10.1 -34.02,11.61 -54.45,4.18z"/>
  <g>
   <g style="clip-path:url(#id2)">
    <image x="3036.71" y="8818.47" width="7128.44" height="7197.89" xlink:href="img4-1_Images\img4-1_ImgID3.jpg"/>
   </g>
  </g>
  <path class="fil13" d="M9332.23 12067.72l0 1498.09c0,69.22 -25.85,126.18 -71.83,158.38 -45.99,32.18 -108.35,36.99 -173.38,13.31l-4709.11 -1713.97c-65.04,-23.68 -127.4,-73.87 -173.38,-139.54 -45.99,-65.67 -71.81,-141.45 -71.81,-210.64l0 -1498.09c-0.03,-14.48 1.11,-28.5 3.39,-41.91 9.57,-57.39 39.13,-101.92 83.42,-125.68 44.26,-23.76 100.38,-25.21 158.38,-4.1l4709.11 1713.97c32.22,11.67 64.13,30 93.9,53.92 29.76,23.95 56.83,53 79.58,85.54 22.78,32.52 40.86,67.89 53.16,104.06 12.3,36.14 18.63,72.39 18.57,106.66z"/>
  <path class="fil14" d="M5832.3 11403.56l-681.15 -247.92c-14.1,-5.13 -28.04,-13.15 -41.03,-23.62 -13.02,-10.51 -24.82,-23.23 -34.77,-37.47 -9.95,-14.23 -17.83,-29.68 -23.18,-45.51 -5.37,-15.82 -8.09,-31.67 -8.04,-46.62 0,-30.21 11.27,-55.08 31.35,-69.13 20.06,-14.05 47.28,-16.14 75.67,-5.82l681.15 247.94c28.39,10.32 55.61,32.23 75.67,60.88 20.08,28.68 31.35,61.73 31.35,91.94 0.05,15 -2.67,28.87 -8.04,40.77 -5.35,11.94 -13.23,21.67 -23.18,28.66 -9.95,7.01 -21.75,11.11 -34.77,12.14 -12.99,1.01 -26.93,-1.11 -41.03,-6.24z"/>
  <path class="fil15" d="M6177.39 12035.81l-1026.24 -373.51c-14.1,-5.14 -28.04,-13.18 -41.03,-23.66 -13.02,-10.48 -24.82,-23.2 -34.77,-37.44 -9.95,-14.23 -17.83,-29.71 -23.18,-45.53 -5.37,-15.8 -8.09,-31.65 -8.04,-46.62 0,-30.22 11.27,-55.06 31.35,-69.11 20.06,-14.08 47.28,-16.17 75.67,-5.82l1026.24 373.51c28.37,10.35 55.59,32.25 75.67,60.91 20.06,28.65 31.33,61.73 31.33,91.94 0.05,15 -2.67,28.87 -8.02,40.77 -5.37,11.91 -13.25,21.65 -23.17,28.66 -9.95,6.98 -21.78,11.11 -34.77,12.12 -13.02,1.03 -26.96,-1.09 -41.04,-6.22z"/>
  <path class="fil14" d="M8366.13 12211.62l-1541.8 -561.18c-7.02,-2.51 -14,-6.48 -20.51,-11.67 -6.51,-5.21 -12.43,-11.53 -17.44,-18.62 -4.97,-7.09 -8.94,-14.79 -11.64,-22.7 -2.7,-7.89 -4.1,-15.8 -4.1,-23.29 0,-15.16 5.66,-27.62 15.72,-34.68 10.08,-7.04 23.73,-8.1 37.97,-2.91l1541.8 561.15c7.04,2.57 14.03,6.59 20.53,11.83 6.54,5.24 12.44,11.61 17.44,18.73 4.97,7.12 8.94,14.87 11.64,22.78 2.7,7.91 4.08,15.85 4.08,23.36 0,7.49 -1.38,14.37 -4.08,20.3 -2.72,5.92 -6.67,10.76 -11.67,14.23 -5,3.44 -10.9,5.48 -17.43,5.93 -6.51,0.45 -13.47,-0.66 -20.51,-3.26z"/>
  <path class="fil14" d="M8366.13 12522.09l-1541.8 -561.16c-7.04,-2.57 -14.03,-6.59 -20.54,-11.85 -6.5,-5.24 -12.43,-11.59 -17.43,-18.71 -4.98,-7.12 -8.94,-14.87 -11.64,-22.78 -2.7,-7.91 -4.08,-15.85 -4.08,-23.36 0.11,-15.06 5.8,-27.41 15.85,-34.37 10.08,-6.96 23.68,-7.99 37.84,-2.83l1541.8 561.18c14.18,5.16 27.78,16.06 37.84,30.35 10.05,14.28 15.77,30.79 15.85,45.93 0,7.51 -1.38,14.42 -4.08,20.37 -2.7,5.95 -6.67,10.82 -11.64,14.31 -5,3.5 -10.9,5.53 -17.44,6.04 -6.5,0.5 -13.49,-0.56 -20.53,-3.12z"/>
  <path class="fil14" d="M8366.13 12832.55l-1541.8 -561.18c-14.24,-5.19 -27.89,-16.17 -37.97,-30.54 -10.06,-14.39 -15.72,-30.98 -15.72,-46.14 0,-15.16 5.66,-27.62 15.72,-34.69 10.08,-7.03 23.73,-8.09 37.97,-2.91l1541.8 561.16c7.04,2.56 14.03,6.59 20.53,11.82 6.54,5.27 12.44,11.62 17.44,18.74 4.97,7.11 8.94,14.87 11.64,22.78 2.7,7.91 4.08,15.85 4.08,23.36 0,7.49 -1.38,14.42 -4.08,20.37 -2.7,5.96 -6.67,10.82 -11.64,14.32 -5,3.49 -10.9,5.53 -17.44,6.03 -6.5,0.5 -13.49,-0.56 -20.53,-3.12z"/>
  <path class="fil16" d="M7974.89 11841.79c7.52,-3.81 0,-8.02 -32.17,2.49l7.86 0.31c8.23,-1 16.77,-1.53 24.31,-2.8z"/>
  <path class="fil17" d="M8044.03 11812.31c-6.56,3.71 -12.22,8.76 -16.78,15.01 4.95,-5.8 10.56,-10.83 16.78,-15.01z"/>
  <g>
   <g style="clip-path:url(#id3)">
    <image x="9212.14" y="3023.77" width="4504.73" height="6433.42" xlink:href="img4-1_Images\img4-1_ImgID4.jpg"/>
   </g>
  </g>
  <path class="fil18" d="M11463 6951.65c668.26,243.23 1209.99,-136.1 1209.99,-847.25 0,-711.12 -541.73,-1484.78 -1209.99,-1728.02 -668.26,-243.23 -1209.99,136.11 -1209.99,847.25 0,711.12 541.73,1484.79 1209.99,1728.02z"/>
  <path class="fil19" d="M11923.46 5979.63l177.95 64.79 0 -295.62 -177.95 -64.77c-9.19,-35.9 -21.49,-71.83 -36.73,-107.23l125.55 -87.9 -196.48 -280.61 -125.55 87.89c-27.94,-25.98 -57.28,-49.53 -87.58,-70.27l0 -190.4 -277.78 -101.09 0 190.39c-30.69,-1.59 -60.38,0.58 -88.5,6.54l-125.58 -179.31 -198.67 135.78 125.54 179.28c-15.1,24.43 -27.41,51.39 -36.72,80.52l-177.96 -64.8 0 295.62 177.96 64.77c9.31,35.88 21.62,71.81 36.72,107.24l-125.54 87.89 196.48 280.3 125.57 -87.92c28.18,26.4 57.84,50.3 88.5,71.3l0 191.06 279.98 101.89 0 -189.39c30.54,1.22 60.09,-1.11 88.19,-6.98l125.55 179.3 196.5 -137.23 -125.57 -179.31c15.27,-24.29 27.57,-51.28 36.72,-80.49l-0.6 -1.24zm-460.46 -51.36c-49.11,-17.91 -97.07,-50.93 -137.85,-94.85 -40.8,-43.92 -72.57,-96.76 -91.3,-151.87 -18.76,-55.12 -23.63,-109.99 -14,-157.72 9.6,-47.73 33.28,-86.18 68.02,-110.44 34.72,-24.29 78.96,-33.31 127.11,-25.95 48.15,7.35 98.05,30.77 143.4,67.28 45.35,36.51 84.11,84.48 111.39,137.85 27.26,53.36 41.81,109.75 41.81,161.98 0,34.74 -6.43,66.78 -18.92,94.29 -12.52,27.55 -30.82,50.01 -53.9,66.15 -23.09,16.14 -50.5,25.61 -80.67,27.89 -30.16,2.27 -62.47,-2.68 -95.09,-14.61z"/>
  <g>
   <g style="clip-path:url(#id4)">
    <image x="11988.57" y="5801.4" width="4542.04" height="7019.9" xlink:href="img4-1_Images\img4-1_ImgID5.jpg"/>
   </g>
  </g>
  <path class="fil20" d="M15226.09 8751.85l0 1731.73c0,30.82 -11.51,56.17 -31.99,70.51 -20.48,14.34 -48.23,16.48 -77.18,5.92l-1852.48 -674.23c-28.97,-10.53 -56.72,-32.89 -77.2,-62.13 -20.48,-29.23 -31.96,-62.97 -31.96,-93.79l0 -2501.27c0,-30.79 11.48,-56.17 31.96,-70.51 20.48,-14.31 48.23,-16.46 77.2,-5.93l1129.35 411.06 671.12 958.45 161.18 230.19z"/>
  <path class="fil12" d="M14763.39 8486.63l-1145.78 -417.01c-6.17,-2.25 -12.22,-5.74 -17.91,-10.31 -5.67,-4.58 -10.8,-10.14 -15.14,-16.36 -4.31,-6.21 -7.75,-12.96 -10.05,-19.84 -2.33,-6.91 -3.49,-13.81 -3.47,-20.32 0.11,-13.04 5.06,-23.76 13.76,-29.79 8.73,-6.03 20.51,-6.91 32.81,-2.44l1145.43 416.91c12.33,4.5 24.19,14.02 32.89,26.48 8.73,12.46 13.65,26.86 13.65,39.98 0,13.07 -4.86,23.84 -13.52,29.98 -8.65,6.14 -20.4,7.12 -32.67,2.72z"/>
  <path class="fil12" d="M14763.39 8959.13l-1145.78 -417.04c-12.36,-4.5 -24.18,-14.02 -32.91,-26.48 -8.74,-12.47 -13.66,-26.86 -13.66,-39.98 0.29,-12.86 5.29,-23.34 14,-29.24 8.7,-5.9 20.4,-6.69 32.57,-2.27l1145.43 416.9c6.14,2.25 12.2,5.74 17.89,10.32 5.66,4.58 10.82,10.13 15.13,16.35 4.34,6.22 7.76,12.96 10.08,19.84 2.31,6.91 3.47,13.81 3.44,20.32 -0.37,12.7 -5.37,23.05 -13.99,28.87 -8.63,5.85 -20.16,6.69 -32.2,2.41z"/>
  <path class="fil12" d="M14763.39 9332.32l-1145.44 -416.9c-25.69,-9.37 -46.54,5.24 -46.54,32.57 0,27.36 20.85,57.12 46.54,66.49l1145.44 416.9c25.71,9.34 46.54,-5.24 46.54,-32.6 0,-27.35 -20.83,-57.12 -46.54,-66.46z"/>
  <path class="fil12" d="M14763.39 9903.72l-1145.78 -417.04c-12.36,-4.47 -24.18,-14.02 -32.91,-26.49 -8.74,-12.46 -13.66,-26.82 -13.66,-39.97 0,-13.13 4.92,-23.95 13.66,-30.06 8.73,-6.11 20.55,-7.01 32.91,-2.54l1145.43 416.9c12.33,4.5 24.19,14.03 32.89,26.49 8.73,12.49 13.65,26.85 13.65,40 0,13.07 -4.86,23.84 -13.52,29.98 -8.65,6.11 -20.4,7.09 -32.67,2.73z"/>
  <path class="fil21" d="M15226.04 8752.01l-663.92 -241.67c-44.66,-16.24 -87.47,-50.69 -119.06,-95.81 -31.57,-45.08 -49.32,-97.12 -49.32,-144.64l0 -706.55 832.3 1188.67z"/>
  <g>
   <g style="clip-path:url(#id5)">
    <image x="5048.21" y="3057.07" width="5782.27" height="7471.3" xlink:href="img4-1_Images\img4-1_ImgID6.jpg"/>
   </g>
  </g>
  <path class="fil22" d="M9771.63 5569.28l0 2394.91c-0.06,41.06 -7.7,78.95 -22.52,111.49 -14.82,32.55 -36.51,59.11 -63.84,78.19 -27.34,19.07 -59.77,30.27 -95.44,32.96 -35.69,2.68 -73.92,-3.17 -112.53,-17.27l-3069.43 -1117.21c-77.92,-28.33 -152.64,-88.45 -207.75,-167.11 -55.14,-78.63 -86.15,-169.41 -86.23,-252.36l0 -2394.9c0,-82.97 30.96,-151.29 86.1,-189.89 55.14,-38.6 129.91,-44.34 207.88,-15.95l3068.75 1116.93c38.68,13.92 77.02,35.88 112.81,64.56 35.78,28.68 68.32,63.53 95.73,102.58 27.38,39.03 49.13,81.49 63.98,124.91 14.84,43.42 22.49,86.97 22.49,128.16z"/>
  <path class="fil23" d="M9771.63 5569.28l0 123.83 -3657.74 -1331.3 0 -123.83c0,-82.97 30.96,-151.29 86.1,-189.89 55.14,-38.6 129.91,-44.34 207.88,-15.95l3068.75 1116.93c38.68,13.92 77.02,35.88 112.81,64.56 35.78,28.68 68.32,63.53 95.73,102.58 27.38,39.03 49.13,81.49 63.98,124.91 14.84,43.42 22.49,86.97 22.49,128.16z"/>
  <path class="fil15" d="M9382.13 5333.2c0,12.25 -3.41,22.99 -9.81,30.85 -6.41,7.86 -15.51,12.49 -26.17,13.28 -10.66,0.79 -22.36,-2.28 -33.66,-8.81 -11.29,-6.51 -21.67,-16.22 -29.79,-27.86 -8.12,-11.67 -13.62,-24.74 -15.85,-37.57 -2.19,-12.83 -1,-24.87 3.47,-34.56 4.44,-9.68 11.96,-16.59 21.56,-19.84 9.63,-3.26 20.91,-2.73 32.44,1.53 15.35,5.69 30.06,17.63 40.91,33.16 10.84,15.55 16.9,33.44 16.9,49.82z"/>
  <path class="fil15" d="M9014.63 5199.56c0,12.25 -3.42,22.96 -9.82,30.82 -6.38,7.86 -15.48,12.49 -26.11,13.31 -10.61,0.82 -22.31,-2.22 -33.61,-8.73 -11.29,-6.48 -21.64,-16.17 -29.79,-27.78 -8.12,-11.62 -13.68,-24.66 -15.93,-37.5 -2.25,-12.83 -1.08,-24.84 3.31,-34.55 4.42,-9.71 11.88,-16.67 21.43,-20 9.58,-3.31 20.83,-2.86 32.33,1.35 15.43,5.61 30.22,17.51 41.15,33.1 10.9,15.58 17.04,33.55 17.04,49.98z"/>
  <path class="fil15" d="M8647.09 5065.7c0,12.25 -3.41,23 -9.79,30.83 -6.4,7.86 -15.47,12.49 -26.11,13.31 -10.64,0.82 -22.33,-2.23 -33.63,-8.71 -11.27,-6.51 -21.64,-16.16 -29.79,-27.78 -8.12,-11.64 -13.65,-24.69 -15.9,-37.49 -2.25,-12.83 -1.11,-24.87 3.3,-34.58 4.4,-9.71 11.86,-16.67 21.44,-19.98 9.55,-3.33 20.79,-2.86 32.3,1.32 15.43,5.61 30.24,17.52 41.14,33.1 10.93,15.59 17.04,33.58 17.04,49.98z"/>
  <path class="fil12" d="M7277.13 6165.97c7.15,2.68 14.16,7.07 20.51,12.84 6.35,5.76 11.83,12.75 16.06,20.39 4.21,7.65 7.04,15.75 8.23,23.69 1.22,7.91 0.74,15.39 -1.32,21.9 -12.57,46.09 -38.87,82.13 -75.65,103.59 -54.72,27.65 -124.14,26.53 -194.71,-3.13 -40.08,-12.99 -79.98,-35.74 -116.6,-66.48 -36.62,-30.78 -68.97,-68.72 -94.56,-110.89 -56.07,-97.02 -84.38,-202.86 -79.75,-298.16l0 -76.12c-1.37,-67.36 11.38,-129.07 37.31,-180.53 22.12,-44.95 58.58,-76.43 104.72,-90.46 47.47,-13.15 102.03,-8.83 157.43,12.52 69.59,21.67 137.77,71.7 190.29,139.54 35.72,49 61.01,104.32 72.89,159.46 1.88,7.94 2.2,15.67 0.87,22.57 -1.32,6.91 -4.26,12.81 -8.52,17.25 -4.28,4.45 -9.79,7.31 -16.14,8.34 -6.32,1.06 -13.3,0.26 -20.37,-2.33l-6.51 -2.36c-10.13,-3.54 -20.03,-10.66 -28.04,-20.21 -8.02,-9.53 -13.68,-20.9 -16.09,-32.28 -6.64,-40.53 -23.65,-81.94 -48.95,-119.06 -33.07,-42.26 -75.93,-73.13 -119.43,-86.07 -28.28,-11.62 -56.44,-15.93 -82.1,-12.6 -25.66,3.34 -48.1,14.21 -65.41,31.75 -38.92,47.89 -57.54,115.1 -53.04,191.19l0 76.84c-3.55,70.96 14.05,148.98 50.32,223.36 15.58,30.16 36.75,57.73 61.54,80.14 24.79,22.39 52.36,38.87 80.14,47.92 44.88,19.58 89.35,21.67 125.26,5.87 26.56,-17.28 44.53,-45.9 51.33,-81.83 2.3,-9.5 7.8,-16.7 15.63,-20.46 7.81,-3.75 17.49,-3.86 27.49,-0.26l7.17 4.07z"/>
  <path class="fil12" d="M7731.32 5821.41l189.25 571.81c3.44,10.22 9.32,20.03 16.88,28.18 7.57,8.15 16.46,14.26 25.56,17.57 9.11,3.31 18,3.68 25.56,1.03 7.54,-2.64 13.42,-8.17 16.88,-15.87l189.23 -434.08c3.42,-7.78 9.29,-13.36 16.83,-16.06 7.57,-2.7 16.48,-2.38 25.61,0.93l50.67 18.41c6.01,2.2 11.93,5.64 17.49,10.11 5.55,4.47 10.58,9.9 14.82,15.98 4.23,6.09 7.56,12.67 9.84,19.42 2.25,6.75 3.41,13.49 3.36,19.87l0 694.51c0,12.85 -4.79,23.44 -13.34,29.39 -8.54,5.98 -20.11,6.88 -32.17,2.49l-8.92 -3.26c-12.06,-4.39 -23.62,-13.7 -32.17,-25.87 -8.55,-12.2 -13.34,-26.28 -13.34,-39.11l0 -259.69 6.51 -232.51c0.06,-4.13 -1.24,-8.6 -3.67,-12.7 -2.41,-4.13 -5.83,-7.6 -9.61,-9.82 -3.78,-2.25 -7.75,-3.12 -11.19,-2.49 -3.44,0.67 -6.17,2.78 -7.7,6.01l-197.8 448.07c-3.49,7.65 -9.4,13.13 -16.94,15.75 -7.56,2.64 -16.43,2.3 -25.5,-0.98l-13.68 -4.98c-9.05,-3.31 -17.89,-9.42 -25.4,-17.51 -7.49,-8.13 -13.31,-17.89 -16.7,-28.02l-197.48 -589.76c-1.35,-4.42 -3.97,-8.68 -7.41,-11.96 -3.44,-3.28 -7.43,-5.4 -11.3,-5.95 -3.83,-0.58 -7.27,0.45 -9.68,2.88 -2.41,2.44 -3.63,6.11 -3.44,10.35l6.85 235.58 0 259.67c-0.08,12.85 -4.95,23.38 -13.54,29.34 -8.6,5.95 -20.22,6.82 -32.31,2.41l-6.85 -2.49c-12.04,-4.47 -23.58,-13.81 -32.1,-25.98 -8.49,-12.15 -13.33,-26.17 -13.41,-39.03l0 -694.5c0,-12.89 4.79,-23.5 13.31,-29.53 8.52,-6.06 20.11,-7.01 32.2,-2.73l50.32 18.34c9.47,3.01 18.84,9.13 26.8,17.51 7.97,8.39 14.16,18.6 17.68,29.27z"/>
  <path class="fil12" d="M8850 6635.93c-67.18,-40.91 -129.99,-96.13 -183.78,-161.56 -18.44,-24.13 -33.12,-50.93 -43.04,-78.55 -9.93,-27.63 -14.85,-55.43 -14.45,-81.49 -0.45,-30.01 5.66,-57.31 17.86,-79.75 12.17,-22.44 30.08,-39.4 52.31,-49.5 52.25,-23.55 117,-21.51 182.74,5.68 47.31,16.12 94.2,43.9 136.9,81.15 38.07,33 70.35,74.91 93.08,120.92 11.38,22.94 20.03,46.59 25.66,70.16 1.72,7.81 1.88,15.4 0.45,22.12 -1.42,6.75 -4.41,12.49 -8.7,16.75 -4.31,4.29 -9.82,6.99 -16.09,7.94 -6.29,0.93 -13.17,0.05 -20.16,-2.54l-6.82 -2.49c-10.51,-3.94 -20.64,-11.53 -28.74,-21.59 -8.09,-10.03 -13.65,-21.88 -15.77,-33.57 -5.45,-30.14 -19.26,-60.67 -39.34,-87.18 -34.05,-42.31 -77.42,-73.29 -121.5,-86.81 -40.27,-17.17 -80.14,-19.77 -113.27,-7.36 -13.3,6.38 -23.91,16.99 -30.93,30.9 -7.03,13.9 -10.26,30.72 -9.47,49.08 -0.08,15.88 3.36,32.81 10,49.46 6.67,16.66 16.38,32.57 28.34,46.43 39.85,43.44 84.4,80.41 131.42,109.01 50.61,32.17 99.38,70.46 145.1,114.01 31.51,30.42 58.2,67.02 77.68,106.57 17.41,38.13 26.17,77.63 25.32,114.12 0.77,30.08 -5.24,57.46 -17.52,79.82 -12.27,22.36 -30.45,39.03 -52.97,48.55 -55,21.22 -121.39,17.44 -188.56,-10.71 -49.22,-17.57 -97.98,-45.96 -143.06,-83.4 -40.99,-32.78 -76.55,-75.35 -102.66,-122.95 -12.7,-23.52 -22.31,-48.08 -28.42,-72.6 -1.77,-7.86 -1.96,-15.48 -0.58,-22.26 1.37,-6.8 4.31,-12.59 8.57,-16.96 4.26,-4.33 9.74,-7.14 16.01,-8.17 6.27,-1.03 13.15,-0.24 20.16,2.27l6.16 2.23c10.51,3.99 20.67,11.61 28.79,21.67 8.15,10.02 13.79,21.88 16.03,33.62 6.8,31.62 22.89,63.24 45.51,89.41 38.58,43.79 85.57,75.67 133.14,90.33 42.12,18.23 83.95,21.56 119.09,9.47 13.39,-5.69 24.16,-15.64 31.38,-29.03 7.2,-13.36 10.66,-29.71 10.03,-47.67 0.71,-16.88 -2.41,-35.09 -9.05,-53.13 -6.67,-18.07 -16.7,-35.46 -29.26,-50.78 -42.23,-44.08 -88.77,-81.83 -137.59,-111.62z"/>
 </g>
</svg>
