<?xml version="1.0" encoding="UTF-8"?>
<!DOCTYPE svg PUBLIC "-//W3C//DTD SVG 1.1//EN" "http://www.w3.org/Graphics/SVG/1.1/DTD/svg11.dtd">
<!-- Creator: CorelDRAW -->
<svg xmlns="http://www.w3.org/2000/svg" xml:space="preserve" width="180mm" height="140mm" version="1.1" style="shape-rendering:geometricPrecision; text-rendering:geometricPrecision; image-rendering:optimizeQuality; fill-rule:evenodd; clip-rule:evenodd"
viewBox="0 0 18000 14000"
 xmlns:xlink="http://www.w3.org/1999/xlink"
 xmlns:xodm="http://www.corel.com/coreldraw/odm/2003">
 <defs>
  <style type="text/css">
   <![CDATA[
    .fil0 {fill:#FEFEFE;fill-rule:nonzero}
   ]]>
  </style>
 </defs>
 <g id="Слой_x0020_1">
  <metadata id="CorelCorpID_0Corel-Layer"/>
  <g id="l1r1RPAEGff1sCrrAH05NvN">
   <g>
    <path id="p16luv6MSE" class="fil0" d="M6187.4 13410.16c-37.04,-42.33 -44.98,-113.77 -44.98,-460.38 0,-362.48 5.29,-415.4 47.63,-452.44 26.46,-23.81 222.25,-127 436.56,-230.19l388.94 -185.21 0 -674.69 0 -674.69 -2164.29 0 -2164.29 0 -137.58 -68.79c-76.73,-37.04 -179.92,-116.42 -230.19,-177.27l-92.6 -108.48 0 -4738.69 0 -4738.69 92.6 -108.48c50.27,-60.85 153.46,-140.23 230.19,-177.27l137.58 -68.79 6312.96 0 6312.96 0 137.58 68.79c76.73,37.04 179.92,116.42 230.19,177.27l92.6 108.48 0 4738.69 0 4738.69 -92.6 108.48c-50.27,60.85 -153.46,140.23 -230.19,177.27l-137.58 68.79 -2164.29 0 -2164.29 0 0 674.69 0 672.04 388.94 187.85c214.31,103.19 410.1,206.38 436.56,230.19 42.33,37.04 47.63,89.96 47.63,441.85 0,320.15 -7.94,412.75 -42.33,460.38l-39.69 58.21 -2772.83 0c-2651.13,0 -2775.48,-2.65 -2815.17,-47.63l-0.02 0.02zm4294.19 -2002.9l0 -674.69 -1481.67 0 -1481.67 0 0 674.69 0 674.69 1481.67 0 1481.67 0 0 -674.69zm-1283.23 -1336.14c39.69,-15.88 18.52,-23.81 -79.38,-23.81 -97.9,0 -119.06,7.94 -79.38,23.81 29.1,13.23 66.15,23.81 79.38,23.81 15.88,0 50.27,-10.58 79.38,-23.81zm-497.42 -481.54c-5.29,-34.4 -10.58,-13.23 -10.58,44.98 -2.65,58.21 2.65,84.67 10.58,60.85 5.29,-26.46 5.29,-74.08 0,-105.83zm492.13 -391.59c-31.75,-13.23 -89.96,-13.23 -132.29,0 -63.5,18.52 -55.56,21.17 58.21,23.81 100.54,0 119.06,-5.29 74.08,-23.81zm6178.02 -4257.14c-7.94,-3640.67 -7.94,-3651.25 -63.5,-3722.69 -29.1,-39.69 -87.31,-97.9 -127,-127l-71.44 -55.56 -6109.23 0 -6109.23 0 -71.44 55.56c-39.69,29.1 -97.9,87.31 -127,127 -55.56,71.44 -55.56,82.02 -63.5,3722.69l-5.29 3648.6 6376.46 0 6376.46 0 -5.29 -3648.6z"/>
    <path id="pBIvnGVNb" class="fil0" d="M3922.57 8092.03c-50.27,-39.69 -58.21,-66.15 -50.27,-216.96 7.94,-150.81 15.88,-174.63 74.08,-203.73 52.92,-26.46 1082.15,-31.75 5087.94,-26.46 4937.13,5.29 5024.44,5.29 5061.48,55.56 21.17,31.75 37.04,113.77 37.04,203.73 0,261.94 560.92,235.48 -5135.56,235.48 -4743.98,0 -5021.79,-2.65 -5074.71,-47.63l0 0.01z"/>
    <path id="pGbpW5scV" class="fil0" d="M8806.77 7060.16c-113.77,-124.35 -92.6,-193.15 735.54,-2386.54 425.98,-1140.35 791.1,-2084.92 804.33,-2098.15 15.88,-15.88 92.6,-31.75 174.63,-39.69 201.08,-15.88 251.35,29.1 251.35,227.54 0,127 -103.19,420.69 -769.94,2198.69 -423.33,1129.77 -788.46,2074.33 -809.63,2100.79 -60.85,66.15 -325.44,63.5 -386.29,-2.65l0.01 0.01z"/>
    <path id="p19EN7tYGg" class="fil0" d="M4684.57 6224.07c-261.94,-68.79 -481.54,-256.65 -611.19,-515.94 -60.85,-119.06 -60.85,-134.94 -68.79,-1182.69 -7.94,-1225.02 -23.81,-1148.29 232.83,-1148.29 251.35,0 238.13,-55.56 238.13,986.9 0,523.88 10.58,944.56 26.46,1000.13 55.56,201.08 219.6,365.13 415.4,418.04 182.56,50.27 436.56,-103.19 539.75,-328.08 44.98,-97.9 50.27,-185.21 50.27,-1037.17l0 -931.33 74.08 -55.56c97.9,-79.38 309.56,-63.5 381,29.1 47.63,58.21 50.27,113.77 42.33,1066.27l-7.94 1008.06 -74.08 158.75c-82.02,171.98 -214.31,328.08 -370.42,425.98 -203.73,132.29 -595.31,179.92 -867.83,105.83z"/>
    <path id="pIKdLqtG8" class="fil0" d="M6539.29 6208.2c-37.04,-37.04 -52.92,-89.96 -52.92,-177.27 -2.65,-108.48 39.69,-209.02 269.88,-674.69l269.88 -547.69 -256.65 -537.1c-232.83,-486.83 -256.65,-550.33 -256.65,-687.92 0,-124.35 10.58,-156.1 58.21,-190.5 71.44,-50.27 285.75,-55.56 343.96,-7.94 23.81,15.88 132.29,209.02 238.13,425.98l198.44 394.23 206.38 -402.17c224.9,-439.21 254,-468.31 444.5,-444.5 150.81,21.17 203.73,82.02 203.73,235.48 0,108.48 -39.69,206.38 -275.17,677.33l-272.52 547.69 259.29 529.17c238.13,478.9 261.94,542.4 261.94,677.33 0,193.15 -44.98,235.48 -243.42,235.48 -105.83,0 -156.1,-13.23 -185.21,-44.98 -23.81,-26.46 -124.35,-211.67 -224.9,-415.4l-185.21 -367.77 -66.15 116.42c-37.04,63.5 -129.65,238.13 -203.73,386.29 -74.08,148.17 -158.75,283.1 -185.21,298.98 -89.96,47.63 -288.4,31.75 -346.6,-26.46l0 0.01z"/>
    <path id="pdDjdjoBr" class="fil0" d="M11698.67 6221.43c-280.46,-79.38 -492.13,-267.23 -624.42,-555.63 -44.98,-95.25 -50.27,-201.08 -58.21,-1132.42 -10.58,-1225.02 -23.81,-1164.17 254,-1150.94 156.1,7.94 179.92,15.88 209.02,74.08 23.81,50.27 34.4,293.69 34.4,960.44 0,973.67 5.29,1008.06 153.46,1164.17 92.6,100.54 248.71,177.27 349.25,177.27 161.4,0 357.19,-142.88 457.73,-330.73 55.56,-100.54 58.21,-142.88 66.15,-1031.88 10.58,-1071.56 -2.65,-1018.65 246.06,-1018.65 248.71,0 238.13,-52.92 230.19,1153.58l-7.94 1029.23 -71.44 153.46c-95.25,203.73 -296.33,394.23 -489.48,468.31 -201.08,76.73 -547.69,95.25 -748.77,39.69l0 0.02z"/>
    <path id="ppaccx167" class="fil0" d="M13608.96 6218.78l-58.21 -39.69 0 -1357.31c0,-1558.4 -18.52,-1444.63 246.06,-1444.63 243.42,0 230.19,-89.96 230.19,1447.27 0,1296.46 -2.65,1333.5 -52.92,1383.77 -66.15,66.15 -277.81,71.44 -365.13,10.58l0.01 0.01z"/>
    <path id="pqqQo5jdV" class="fil0" d="M3946.38 1993.39c-58.21,-29.1 -66.15,-52.92 -74.08,-203.73 -13.23,-296.33 -627.06,-264.58 5124.98,-264.58 5696.48,0 5135.56,-26.46 5135.56,235.48 0,89.96 -15.88,171.98 -37.04,203.73 -37.04,50.27 -124.35,50.27 -5061.48,55.56 -4005.79,5.29 -5035.02,0 -5087.94,-26.46z"/>
   </g>
  </g>
 </g>
</svg>
